<svg version="1.1" id="Layer_1" xmlns="http://www.w3.org/2000/svg" xmlns:xlink="http://www.w3.org/1999/xlink" x="0px" y="0px"
	 width="100%" viewBox="0 0 1024 1024" enable-background="new 0 0 1024 1024" xml:space="preserve">
<path fill="#000000" opacity="1.000000" stroke="none" 
	d="
M1.000000,487.468658 
	C3.399821,483.619263 2.414135,479.562164 3.205140,475.856171 
	C11.585174,436.594269 30.459486,403.505524 61.087852,377.337494 
	C87.284958,354.955383 117.652519,342.023010 151.738281,337.657471 
	C157.935562,336.863739 157.935547,337.225800 158.403671,343.458984 
	C160.957855,377.467255 163.645523,411.465485 166.311020,445.465332 
	C166.358078,446.065552 166.700058,446.642609 167.840958,447.271820 
	C169.115692,438.837585 170.485718,430.416443 171.647598,421.966705 
	C175.384781,394.787933 179.070618,367.601990 182.696899,340.408264 
	C183.071365,337.600006 184.510529,336.662964 187.068756,336.929321 
	C212.899933,339.618713 237.338730,346.612946 259.732422,360.136719 
	C263.739288,362.556488 262.108398,365.497955 261.183380,368.387299 
	C253.860306,391.261566 244.852234,413.467010 234.088318,434.931793 
	C212.361237,478.258698 184.842743,517.569092 151.920685,553.142456 
	C142.288940,563.549866 132.259048,573.522522 121.736885,583.012329 
	C120.553375,584.079712 119.626366,585.673706 116.663506,585.370300 
	C111.078903,541.627502 105.471130,497.703278 99.852203,453.691650 
	C97.974899,454.180603 98.381714,455.558075 98.330727,456.558655 
	C97.280434,477.170837 96.331642,497.788330 95.247078,518.398621 
	C93.663589,548.490356 91.966103,578.576111 90.390343,608.668274 
	C90.240952,611.521240 88.590401,613.231934 86.678185,614.864319 
	C78.696617,621.678162 70.602249,628.363098 62.736862,635.307800 
	C60.188297,637.558105 58.509346,637.540955 56.038357,635.208801 
	C26.962894,607.765869 8.446707,574.734131 2.560469,534.936584 
	C2.344655,533.477478 1.788101,532.068726 1.195174,530.318237 
	C1.000000,515.979126 1.000000,501.958221 1.000000,487.468658 
z"/>
<path fill="#000000" opacity="1.000000" stroke="none" 
	d="
M1025.000000,370.541931 
	C1020.756104,375.898376 1015.407959,377.402313 1008.970825,377.373779 
	C968.319031,377.193573 927.666016,377.283752 887.013367,377.292419 
	C880.384155,377.293854 880.346924,377.311523 880.343811,383.944305 
	C880.332642,407.769409 880.492737,431.596039 880.242065,455.418427 
	C880.187195,460.631226 881.975037,461.839172 886.875305,461.806854 
	C916.363770,461.612427 945.854309,461.695770 975.344116,461.727875 
	C983.035767,461.736237 988.047119,465.298767 989.167480,471.354065 
	C990.695679,479.613098 984.992188,486.243652 976.026672,486.275604 
	C952.201843,486.360596 928.376587,486.312073 904.551453,486.315521 
	C898.386902,486.316406 892.211060,486.540314 886.061768,486.233765 
	C881.797485,486.021240 880.221375,487.244904 880.258667,491.784454 
	C880.460938,516.440979 880.459595,541.100708 880.274597,565.757446 
	C880.240295,570.319519 881.582214,571.801514 886.221619,571.777527 
	C918.376282,571.611145 950.532288,571.696777 982.687866,571.701050 
	C992.517822,571.702393 1002.349060,571.799988 1012.177124,571.665222 
	C1017.703613,571.589478 1021.853699,573.638306 1024.787842,578.739014 
	C1025.000000,582.030579 1025.000000,585.061218 1025.000000,588.545898 
	C1021.509644,594.464417 1016.396790,596.272156 1010.088257,596.259827 
	C963.625488,596.169067 917.162537,596.215698 870.699585,596.199951 
	C860.157837,596.196411 854.900024,591.113708 854.895569,580.674072 
	C854.865662,509.897217 854.872620,439.120361 854.910522,368.343506 
	C854.916321,357.588776 859.785156,352.824615 870.543091,352.821777 
	C917.172546,352.809509 963.802063,352.856171 1010.431396,352.776093 
	C1016.355774,352.765930 1021.257568,354.282410 1024.761475,359.763245 
	C1025.000000,363.361298 1025.000000,366.722565 1025.000000,370.541931 
z"/>
<path fill="#000000" opacity="1.000000" stroke="none" 
	d="
M88.764038,659.309875 
	C85.727341,657.506470 82.966904,655.950989 80.304535,654.242798 
	C75.966515,651.459290 75.825752,650.545593 79.852661,647.490479 
	C88.078682,641.249573 96.503555,635.271240 104.745461,629.050781 
	C159.759064,587.530151 204.389023,536.906006 237.877060,476.606354 
	C254.348160,446.947937 267.740692,415.990326 276.158722,383.011871 
	C276.889099,380.150543 276.729370,377.014740 278.566254,374.418060 
	C280.949585,373.923920 282.251007,375.742554 283.751648,376.887207 
	C312.924652,399.140045 330.518188,428.777222 339.135681,464.084320 
	C340.239258,468.605804 340.876831,473.240356 341.955505,477.768860 
	C342.699554,480.892548 341.513062,482.336731 338.611725,483.274353 
	C315.004944,490.903320 291.419250,498.597992 267.850189,506.342743 
	C264.602875,507.409821 261.092010,507.962219 258.065369,510.368927 
	C259.568573,512.333069 261.516998,511.714478 263.150848,511.736328 
	C287.969269,512.068237 312.788361,512.353088 337.607635,512.614014 
	C344.388000,512.685303 344.636353,512.645447 344.272461,519.630920 
	C343.070129,542.711853 336.965851,564.530762 326.971649,585.324219 
	C325.531830,588.319824 323.382507,589.182129 320.201538,589.222168 
	C297.049255,589.513977 273.898621,589.945068 250.747787,590.350037 
	C238.591110,590.562683 226.434906,590.802246 214.279022,591.055847 
	C212.855530,591.085510 211.319244,590.853821 208.973816,592.930603 
	C241.452087,601.333191 272.973511,609.488281 304.873291,617.741272 
	C266.277649,670.036316 174.646439,706.309448 88.764038,659.309875 
z"/>
<path fill="#000000" opacity="1.000000" stroke="none" 
	d="
M522.886963,449.137390 
	C548.425110,482.683258 573.741760,515.949524 599.096558,549.265991 
	C600.771790,548.098755 599.950989,546.654175 599.952271,545.483582 
	C600.015869,487.153534 600.023315,428.823456 600.074707,370.493378 
	C600.076904,368.006897 600.242859,365.487366 600.666321,363.040985 
	C601.770203,356.663696 607.039978,352.580780 613.495667,352.891541 
	C619.972229,353.203308 624.711548,357.767578 625.289612,364.275116 
	C625.363159,365.102997 625.341003,365.940582 625.341003,366.773651 
	C625.337769,438.603210 625.344055,510.432770 625.313965,582.262329 
	C625.309692,592.439758 616.711792,598.766113 607.934875,595.208618 
	C605.682617,594.295715 604.085327,592.693481 602.641235,590.799255 
	C555.157959,528.515564 507.657806,466.244751 460.149475,403.980225 
	C459.183899,402.714752 458.092285,401.545441 456.937897,400.188385 
	C455.752350,402.101379 456.150085,403.788818 456.149384,405.386169 
	C456.123871,463.383087 456.126678,521.380005 456.114868,579.376892 
	C456.114349,581.868042 456.284424,584.367310 455.534698,586.819031 
	C453.700256,592.817871 447.721558,596.897461 441.807251,596.117432 
	C435.566650,595.294312 430.857727,590.290710 430.740326,583.887573 
	C430.578369,575.057617 430.686371,566.222595 430.686340,557.389771 
	C430.685974,493.893097 430.675385,430.396423 430.700104,366.899750 
	C430.704407,355.877686 439.890869,349.659637 449.143616,354.285522 
	C451.623962,355.525574 453.282990,357.569031 454.906342,359.706116 
	C477.484894,389.429321 500.076843,419.142334 522.886963,449.137390 
z"/>
<path fill="#000000" opacity="1.000000" stroke="none" 
	d="
M768.394165,404.556152 
	C767.883423,420.681671 760.632690,433.280548 750.303833,444.486328 
	C737.909912,457.932465 722.947327,468.317902 708.598389,479.419067 
	C697.614197,487.917084 687.136963,496.930389 678.870911,508.158142 
	C670.408752,519.652222 665.313171,532.381104 668.088562,546.927979 
	C671.266174,563.583252 683.767700,573.769531 700.696289,575.814697 
	C724.049805,578.635925 742.117432,569.219421 757.667908,553.050354 
	C762.594360,547.927917 762.565247,547.891357 767.624023,552.909546 
	C770.108521,555.374023 772.531982,557.901611 775.060974,560.319214 
	C776.912964,562.089600 777.350281,563.502075 775.343689,565.723816 
	C759.882141,582.842163 741.484802,594.828430 718.193542,597.636841 
	C700.558411,599.763367 683.525635,597.251770 668.222778,587.580627 
	C641.791199,570.876282 638.229004,538.312744 648.781982,515.011780 
	C656.568359,497.819336 670.116882,485.383698 684.310913,473.681183 
	C696.647949,463.509705 709.505798,453.970428 721.853577,443.811554 
	C733.104797,434.554901 742.264465,423.768158 745.188904,408.793915 
	C748.344116,392.637817 740.273010,377.803040 725.370789,372.933594 
	C708.595215,367.452057 690.515991,374.243530 684.048462,388.937653 
	C680.320129,397.408356 681.114258,406.245270 684.444885,414.733582 
	C688.511169,425.096619 696.280701,432.727905 703.991028,440.376923 
	C708.575867,444.925262 708.516235,444.983215 703.385498,448.896667 
	C701.663391,450.210266 699.938721,451.520752 698.229919,452.851532 
	C690.049805,459.222107 691.992126,459.500549 684.227661,451.548187 
	C675.689270,442.803223 667.614563,433.791870 663.004578,422.193817 
	C649.267822,387.634277 670.108765,353.968964 707.134766,350.558411 
	C737.393433,347.771240 756.631042,364.524323 763.665100,379.890503 
	C767.200928,387.614716 768.933105,395.637665 768.394165,404.556152 
z"/>
<path fill="#000000" opacity="1.000000" stroke="none" 
	d="
M812.474121,579.525513 
	C782.315613,548.922791 752.406555,518.570801 722.014343,487.728394 
	C726.660889,484.208679 731.608765,480.352173 736.679749,476.664917 
	C739.252686,474.794037 740.646362,477.265747 742.074402,478.677307 
	C756.651917,493.086426 771.183289,507.542145 785.711975,522.000549 
	C802.721863,538.928101 819.775574,555.812378 836.687927,572.837036 
	C843.374207,579.567627 841.925964,587.302979 833.597900,590.822693 
	C829.131653,592.710205 825.084961,591.824951 821.610352,588.563538 
	C818.573975,585.713440 815.680298,582.711243 812.474121,579.525513 
z"/>
<path fill="#000000" opacity="1.000000" stroke="none" 
	d="
M490.727875,636.024658 
	C490.735107,632.864746 490.705994,630.199280 490.760284,627.535583 
	C490.809265,625.132874 491.073639,622.695862 493.891693,621.943115 
	C496.455780,621.258301 497.795380,623.108459 499.145477,624.888733 
	C509.810669,638.952271 520.500610,652.996948 531.195251,667.038086 
	C532.078918,668.198303 533.053101,669.289673 535.010742,671.648987 
	C535.010742,667.719666 535.012817,665.153809 535.010376,662.587891 
	C535.000122,651.595825 534.960754,640.603638 535.005066,629.611816 
	C535.012329,627.804810 535.201355,625.952759 535.643005,624.206726 
	C536.047729,622.606506 537.374390,621.790894 539.083618,621.936218 
	C540.784180,622.080933 541.864868,623.082703 542.126465,624.736938 
	C542.332886,626.042175 542.321289,627.389709 542.322449,628.718506 
	C542.336853,645.206665 542.369995,661.694946 542.302490,678.182861 
	C542.292175,680.693848 543.311584,683.886414 539.946045,685.129822 
	C536.559570,686.381042 535.268188,683.369995 533.713806,681.347229 
	C522.358337,666.569641 511.059387,651.748596 499.445068,636.551941 
	C498.214203,638.480835 498.454346,640.240540 498.560120,641.930847 
	C499.330627,654.245300 498.793549,666.570312 498.880280,678.889954 
	C498.891937,680.548401 498.914948,682.261597 497.964081,683.732361 
	C496.059937,686.677551 493.311249,686.247192 490.453949,682.501404 
	C480.455444,669.393799 470.484650,656.265076 460.493958,643.151489 
	C458.901825,641.061829 457.261475,639.008850 455.579865,636.857544 
	C453.749725,638.516907 454.400452,640.280273 454.393677,641.824707 
	C454.338989,654.315430 454.387634,666.806580 454.355469,679.297424 
	C454.348663,681.935120 454.692871,685.188110 450.857758,685.303345 
	C446.768280,685.426147 446.816132,682.099487 446.811279,679.224731 
	C446.782562,662.236938 446.789215,645.249146 446.811493,628.261353 
	C446.814819,625.747070 446.729370,622.930908 449.739075,622.020020 
	C452.768890,621.103088 454.131104,623.622681 455.646362,625.611267 
	C466.041351,639.253418 476.445740,652.888367 486.856567,666.518494 
	C487.747192,667.684509 488.385773,669.113159 490.727844,669.981323 
	C490.727844,658.619202 490.727844,647.569519 490.727875,636.024658 
z"/>
<path fill="#000000" opacity="1.000000" stroke="none" 
	d="
M612.289307,656.750610 
	C609.940247,676.566345 595.472534,687.900940 575.181396,686.276917 
	C559.276611,685.003967 546.470032,670.012573 546.844421,653.105652 
	C547.258911,634.390076 561.582764,620.548645 580.286438,620.790161 
	C598.769165,621.028687 612.247253,634.918762 612.312012,653.796509 
	C612.314880,654.627869 612.302002,655.459229 612.289307,656.750610 
M599.051208,670.528076 
	C608.105835,658.847656 606.744019,642.712219 595.944214,633.713379 
	C585.986633,625.416443 569.424622,626.475159 561.002197,635.947083 
	C551.612366,646.506958 552.160156,662.966797 562.220398,672.553040 
	C572.195740,682.058411 588.290649,681.400085 599.051208,670.528076 
z"/>
<path fill="#000000" opacity="1.000000" stroke="none" 
	d="
M778.956055,681.203430 
	C763.468079,669.841003 759.960266,648.365356 770.897766,633.596191 
	C781.527588,619.242615 802.683105,616.542603 817.777710,627.613098 
	C828.417664,635.416565 832.864502,650.810059 828.428589,664.483398 
	C824.260925,677.329773 812.545532,685.976196 799.247498,686.388184 
	C792.047485,686.611145 785.378296,685.262878 778.956055,681.203430 
M787.235474,677.504639 
	C794.453186,679.770508 801.711121,680.137146 808.642517,676.814148 
	C820.393127,671.180969 825.652405,657.125977 821.032837,644.487915 
	C816.492737,632.067322 803.729858,625.470276 790.771362,628.845886 
	C781.032776,631.382751 773.538391,639.559021 772.313599,648.983215 
	C770.636841,661.885376 775.290466,671.118591 787.235474,677.504639 
z"/>
<path fill="#000000" opacity="1.000000" stroke="none" 
	d="
M847.711365,637.072021 
	C845.219238,637.528931 846.371704,639.448975 846.359802,640.711243 
	C846.246399,652.700378 846.287170,664.691040 846.283325,676.681213 
	C846.282959,677.846924 846.287659,679.012634 846.278198,680.178284 
	C846.256287,682.862305 845.878479,685.438416 842.388245,685.326904 
	C839.264954,685.227173 838.801331,682.794006 838.783752,680.325989 
	C838.731445,672.999023 838.739075,665.671631 838.736694,658.344360 
	C838.733398,648.019470 838.740845,637.694641 838.746765,627.369751 
	C838.748047,625.117676 838.986572,622.845825 841.492554,622.033020 
	C843.991150,621.222656 845.509521,622.921753 846.872375,624.717712 
	C857.340088,638.512390 867.811768,652.303955 878.296082,666.086060 
	C879.457642,667.613037 880.706238,669.073853 882.790833,671.647217 
	C882.790833,657.427246 882.787781,644.661865 882.794189,631.896423 
	C882.795105,630.065186 882.740662,628.225525 882.892578,626.404846 
	C883.083435,624.118347 883.790100,621.919312 886.570251,621.921936 
	C889.280518,621.924438 890.170166,623.907837 890.285156,626.325806 
	C890.316772,626.990845 890.323059,627.657532 890.323181,628.323486 
	C890.326050,645.143005 890.342773,661.962646 890.309387,678.782043 
	C890.304565,681.210876 890.848877,684.076050 887.762573,685.177673 
	C884.637024,686.293213 883.314697,683.711731 881.826782,681.765503 
	C870.500427,666.950439 859.198364,652.116699 847.711365,637.072021 
z"/>
<path fill="#000000" opacity="1.000000" stroke="none" 
	d="
M936.972290,653.895142 
	C943.230774,659.273071 944.566284,665.865540 942.650024,673.133972 
	C940.635864,680.773438 934.858154,684.812439 927.542358,685.949280 
	C917.577759,687.497620 908.171265,685.971802 901.476379,677.283081 
	C899.937073,675.285339 897.615845,672.616638 900.599731,670.323120 
	C903.396851,668.173279 905.352722,670.477844 907.133911,672.721008 
	C912.059387,678.923523 923.339294,681.168396 930.330444,677.477112 
	C937.385498,673.752014 938.039551,663.931458 931.557251,659.090881 
	C928.222412,656.600647 924.273193,655.905579 920.312805,655.338135 
	C915.424377,654.637634 910.947021,652.975830 907.113342,649.847168 
	C898.838501,643.094299 899.451782,630.488342 908.288696,624.595825 
	C918.059631,618.080627 932.600586,620.079712 939.556702,628.936584 
	C941.222168,631.057129 943.240051,633.545288 940.448120,635.902039 
	C937.758545,638.172363 935.998718,635.585327 934.277771,633.772461 
	C928.988037,628.200195 921.380615,626.484680 914.672363,629.312561 
	C911.007080,630.857666 908.539612,633.430176 908.424377,637.544189 
	C908.310120,641.619080 910.491760,644.428162 914.061523,646.235413 
	C918.299500,648.380981 923.051636,648.541321 927.529053,649.757568 
	C930.749512,650.632385 933.851868,651.833313 936.972290,653.895142 
z"/>
<path fill="#000000" opacity="1.000000" stroke="none" 
	d="
M631.454102,665.522339 
	C632.455383,667.826233 633.328430,669.779907 634.318420,671.995300 
	C636.617249,670.885742 636.905884,668.786316 637.615356,667.106018 
	C642.983398,654.392456 648.267822,641.643616 653.581909,628.907227 
	C654.158020,627.526489 654.707031,626.131042 655.356689,624.784973 
	C656.396606,622.630432 657.998352,621.096802 660.495422,622.165588 
	C663.086304,623.274475 662.829834,625.548706 661.932068,627.703308 
	C659.054443,634.609009 656.127014,641.494080 653.194885,648.376892 
	C648.568298,659.237000 643.937744,670.095398 639.271057,680.938232 
	C638.358887,683.057678 637.574158,685.497498 634.578186,685.369202 
	C631.850891,685.252502 631.248718,682.897766 630.417603,680.957153 
	C622.955444,663.533813 615.524414,646.097168 608.112671,628.652405 
	C607.114502,626.303040 606.040405,623.552429 609.202087,622.207214 
	C612.588135,620.766418 613.891724,623.511780 614.963928,626.070862 
	C620.423706,639.102112 625.872925,652.137939 631.454102,665.522339 
z"/>
<path fill="#000000" opacity="1.000000" stroke="none" 
	d="
M827.932068,493.995148 
	C833.238281,499.974030 833.665344,504.098602 828.808960,509.634216 
	C822.575500,516.739258 815.852234,523.413452 809.380493,530.311218 
	C807.706848,532.094971 806.101135,532.402405 804.309387,530.569275 
	C804.078003,530.332520 803.813904,530.127625 803.564148,529.908997 
	C790.519287,518.492004 790.513306,518.486389 802.497620,506.020111 
	C806.178345,502.191437 809.793762,498.290802 813.631470,494.624451 
	C818.743347,489.740845 821.686462,489.651550 827.932068,493.995148 
z"/>
<path fill="#000000" opacity="1.000000" stroke="none" 
	d="
M673.370361,638.635315 
	C667.486694,652.781677 661.726990,666.603149 655.967468,680.424622 
	C655.711365,681.039062 655.446716,681.650330 655.204285,682.270142 
	C654.206360,684.821472 652.348206,686.205322 649.748657,685.066833 
	C647.192261,683.947205 647.616455,681.694641 648.551086,679.503418 
	C654.099731,666.494141 659.617065,653.471558 665.150085,640.455505 
	C667.233032,635.555542 669.312683,630.654053 671.428894,625.768433 
	C672.231079,623.916565 673.091797,621.977417 675.502441,621.886902 
	C677.976562,621.794067 678.808289,623.692871 679.618347,625.588318 
	C687.203247,643.335266 694.811340,661.072327 702.393127,678.820679 
	C703.344788,681.048401 704.174744,683.566345 701.342590,684.889221 
	C698.368591,686.278137 696.744812,684.286926 695.670227,681.714050 
	C690.028137,668.204956 684.375793,654.700195 678.716125,641.198425 
	C677.892517,639.233459 677.010315,637.293091 676.185059,635.409424 
	C674.039734,635.609375 674.288330,637.389343 673.370361,638.635315 
z"/>
<path fill="#000000" opacity="1.000000" stroke="none" 
	d="
M719.679504,684.914307 
	C714.805969,685.860168 714.256104,682.693970 714.188110,679.588745 
	C714.064453,673.942200 714.317993,668.288513 714.334290,662.637573 
	C714.366333,651.511047 714.343689,640.384399 714.343689,628.372986 
	C708.678955,628.372986 703.585388,628.406799 698.492615,628.358459 
	C696.019531,628.334961 692.930237,628.669739 692.927429,625.050415 
	C692.924622,621.442871 696.003967,621.726562 698.482788,621.720642 
	C711.643555,621.689392 724.804443,621.700439 737.965332,621.708984 
	C740.532410,621.710632 743.528564,621.705383 743.456604,625.179871 
	C743.383057,628.732910 740.245239,628.337952 737.777649,628.371887 
	C734.113281,628.422180 730.436584,628.575806 726.785950,628.349915 
	C722.990173,628.114929 721.955139,629.743408 721.992065,633.347168 
	C722.144165,648.172302 722.065247,663.000000 722.044678,677.826721 
	C722.041199,680.298401 722.360657,682.901367 719.679504,684.914307 
z"/>
<path fill="#000000" opacity="1.000000" stroke="none" 
	d="
M438.240631,631.107544 
	C438.233917,647.416809 438.230103,663.242432 438.214600,679.068054 
	C438.212799,680.892700 438.359589,682.774292 437.032501,684.295715 
	C436.038635,685.435181 434.731689,685.572144 433.373169,685.222168 
	C431.695496,684.790039 430.905975,683.501831 430.821167,681.905518 
	C430.679932,679.246826 430.691345,676.578430 430.689423,673.914124 
	C430.678589,658.921387 430.651855,643.928589 430.709503,628.936096 
	C430.720520,626.075562 429.883453,622.084167 434.267914,622.009705 
	C438.991425,621.929443 438.037292,626.092529 438.233948,629.124878 
	C438.266205,629.622559 438.239502,630.124084 438.240631,631.107544 
z"/>
<path fill="#000000" opacity="1.000000" stroke="none" 
	d="
M755.244751,674.909302 
	C755.201355,677.558167 755.280823,679.733032 755.082275,681.882202 
	C754.894165,683.918457 753.760376,685.311646 751.547241,685.361206 
	C749.345642,685.410522 748.240112,684.095276 747.830078,682.066467 
	C747.764526,681.742126 747.734558,681.405029 747.734436,681.073853 
	C747.728821,662.755432 747.711975,644.437073 747.746033,626.118713 
	C747.750610,623.635254 748.949829,621.803650 751.633789,621.933960 
	C754.699097,622.082703 755.217468,624.463440 755.222107,626.961914 
	C755.246765,640.118103 755.245789,653.274231 755.252258,666.430420 
	C755.253540,669.094971 755.248352,671.759521 755.244751,674.909302 
z"/>
<path fill="#000000" opacity="1.000000" stroke="none" 
	d="
M1000.653320,668.017761 
	C1002.104248,663.675476 997.120911,657.327698 1004.314392,655.893860 
	C1013.956116,653.971863 1022.142761,658.575745 1023.865234,666.254089 
	C1025.150635,671.983765 1024.744873,677.600525 1020.203918,682.040833 
	C1015.432800,686.706238 1009.416748,686.700806 1003.354797,686.097229 
	C1000.989197,685.861694 1000.688049,683.927551 1000.680420,681.988037 
	C1000.662842,677.496460 1000.661621,673.004883 1000.653320,668.017761 
M1019.497681,669.859558 
	C1018.734192,664.301331 1015.332153,661.382019 1009.997864,660.504333 
	C1007.334900,660.066223 1005.360901,660.670349 1005.400391,663.992310 
	C1005.455688,668.643494 1005.440491,673.296387 1005.390198,677.947815 
	C1005.355042,681.196350 1007.050476,681.851379 1009.911011,681.380798 
	C1016.025574,680.375000 1018.532104,677.658386 1019.497681,669.859558 
z"/>
<path fill="#000000" opacity="1.000000" stroke="none" 
	d="
M1011.819397,633.844849 
	C1014.249695,633.987488 1016.829407,633.928772 1016.707886,636.602478 
	C1016.587769,639.243347 1013.920044,638.792786 1011.993652,639.103149 
	C1009.409790,639.519470 1005.514648,637.536255 1005.342468,642.657776 
	C1005.255188,645.252014 1005.929260,646.826477 1008.898926,646.743469 
	C1011.890259,646.659790 1014.889709,646.734375 1017.881470,646.847961 
	C1019.499939,646.909363 1020.952515,647.567444 1020.885071,649.456238 
	C1020.825378,651.126953 1019.311890,651.587585 1017.988342,651.633484 
	C1013.340454,651.794922 1008.684021,651.924500 1004.037109,651.810242 
	C1001.678406,651.752258 1000.634033,650.173584 1000.650391,647.761963 
	C1000.701172,640.273865 1000.666809,632.785217 1000.645996,625.296753 
	C1000.638794,622.711548 1001.807983,621.109497 1004.451782,621.048828 
	C1008.774658,620.949707 1013.103149,620.949646 1017.425781,621.052795 
	C1019.113647,621.093018 1021.023254,621.523254 1020.901855,623.737549 
	C1020.784119,625.885620 1018.885498,626.124817 1017.178345,626.197693 
	C1015.350952,626.275635 1013.514709,626.158813 1011.688660,626.251709 
	C1008.883484,626.394409 1005.370850,625.244141 1005.370544,630.215515 
	C1005.370178,635.075684 1008.874939,633.493896 1011.819397,633.844849 
z"/>
<path fill="#000000" opacity="1.000000" stroke="none" 
	d="
M970.637329,623.151917 
	C974.961975,626.683472 975.608398,630.971863 973.991943,635.542786 
	C972.484131,639.806396 969.030945,641.635132 964.575012,641.414551 
	C961.444824,641.259644 959.858643,642.439026 960.159790,645.744995 
	C960.248962,646.724121 960.137512,647.749451 959.945862,648.719604 
	C959.671692,650.107666 958.986450,651.282227 957.352600,651.248108 
	C955.738647,651.214478 954.885864,650.095337 954.875488,648.646667 
	C954.817261,640.502380 954.793518,632.356323 954.913574,624.213196 
	C954.946228,621.996094 956.709839,621.142944 958.708618,621.022522 
	C962.711792,620.781189 966.711548,620.688660 970.637329,623.151917 
M969.215393,629.284302 
	C968.687378,628.662659 968.276917,627.832214 967.610229,627.456970 
	C965.242676,626.124512 962.078247,624.942017 960.751953,627.816833 
	C959.599548,630.314758 958.774963,634.140930 961.763306,636.380920 
	C964.186096,638.196960 968.491333,635.795776 969.491699,632.414062 
	C969.713013,631.666016 969.505981,630.791199 969.215393,629.284302 
z"/>
<path fill="#000000" opacity="1.000000" stroke="none" 
	d="
M984.514099,649.740479 
	C984.228088,643.733215 983.927856,638.090820 984.054810,632.458191 
	C984.147339,628.354919 983.469421,625.552734 978.422241,626.128967 
	C976.737732,626.321289 974.840454,625.791870 974.937378,623.557373 
	C975.030518,621.411316 976.928528,621.046997 978.614868,621.024353 
	C984.095764,620.950745 989.579346,620.950745 995.059814,621.044678 
	C996.770264,621.074036 998.663391,621.636597 998.655334,623.703430 
	C998.646851,625.882324 996.591675,626.302795 994.975586,626.107178 
	C989.656555,625.463318 988.980225,628.371460 989.206970,632.681580 
	C989.468506,637.652344 989.384949,642.653076 989.198059,647.631287 
	C989.087769,650.570801 988.172668,652.911804 984.514099,649.740479 
z"/>
<path fill="#000000" opacity="1.000000" stroke="none" 
	d="
M980.366943,660.513916 
	C979.360291,660.543396 978.688965,660.624268 978.031006,660.562439 
	C976.521851,660.420654 974.834106,660.330627 974.887512,658.217590 
	C974.936584,656.278992 976.392700,655.769531 978.009766,655.761841 
	C983.834229,655.734131 989.659241,655.738281 995.483521,655.788879 
	C997.093872,655.802795 998.668030,656.377136 998.645569,658.237976 
	C998.621277,660.249512 996.813293,660.535095 995.332336,660.342102 
	C989.911011,659.635925 988.887268,662.427368 989.192383,667.105530 
	C989.516541,672.076660 989.272522,677.087219 989.210022,682.079773 
	C989.188721,683.782776 988.955139,685.729614 986.790344,685.802368 
	C984.615417,685.875488 984.182251,683.887512 984.138794,682.238770 
	C983.985229,676.417480 984.013855,670.591553 983.957092,664.767517 
	C983.935486,662.553162 984.084106,660.175964 980.366943,660.513916 
z"/>
<path fill="#000000" opacity="1.000000" stroke="none" 
	d="
M970.721252,686.301880 
	C953.585022,686.099548 955.877808,688.541016 955.694458,671.764771 
	C955.654480,668.108215 955.655457,664.450317 955.711121,660.794128 
	C955.741150,658.823120 955.538513,656.224365 958.245544,656.187195 
	C961.207886,656.146545 961.155640,658.850281 961.178833,661.013428 
	C961.230530,665.833435 961.385559,670.664551 961.131958,675.471802 
	C960.918640,679.516479 962.283264,681.441467 966.504761,680.966797 
	C967.981567,680.800720 969.499146,680.870117 970.988403,680.972839 
	C973.081604,681.117249 975.917786,680.806152 975.852112,683.827637 
	C975.793579,686.520569 973.135254,686.159851 970.721252,686.301880 
z"/>
</svg>