<?xml version="1.0" standalone="no"?>
<!DOCTYPE svg PUBLIC "-//W3C//DTD SVG 20010904//EN"
 "http://www.w3.org/TR/2001/REC-SVG-20010904/DTD/svg10.dtd">
<svg version="1.0" xmlns="http://www.w3.org/2000/svg"
 width="500.000000pt" height="500.000000pt" viewBox="0 0 500.000000 500.000000"
 preserveAspectRatio="xMidYMid meet">

<g transform="translate(0.000000,500.000000) scale(0.100000,-0.100000)"
fill="#000000" stroke="none">
<path d="M948 4984 c-476 -74 -851 -453 -924 -934 -21 -141 -21 -2949 0 -3090
45 -296 196 -550 436 -732 89 -68 264 -152 385 -185 l100 -28 1560 0 1560 0
100 27 c119 33 295 117 385 186 237 180 391 438 435 729 22 144 22 2949 1
3093 -74 486 -450 862 -936 936 -137 20 -2969 19 -3102 -2z m1841 -1436 c35
-84 66 -158 68 -165 5 -13 -146 -64 -248 -84 l-58 -11 48 -47 c74 -73 96 -127
96 -241 0 -86 -3 -101 -31 -160 -70 -147 -213 -241 -454 -297 -89 -20 -146
-25 -370 -33 -278 -9 -327 -17 -366 -55 -29 -30 -30 -48 -3 -74 38 -35 97 -42
424 -51 319 -9 427 -20 555 -57 135 -39 263 -118 323 -200 59 -82 80 -156 75
-271 -5 -129 -38 -202 -133 -291 -103 -96 -254 -156 -480 -193 -106 -17 -520
-16 -645 1 -296 40 -501 134 -564 260 -47 92 -42 181 15 272 33 52 80 92 163
139 l58 33 -59 31 c-32 17 -83 56 -114 86 -186 184 -89 434 205 530 l40 13
-25 19 c-143 113 -203 249 -180 410 23 159 105 269 261 348 135 67 248 88 540
100 347 14 558 47 717 114 32 13 63 25 69 25 5 1 39 -68 73 -151z m512 -25
c80 -40 150 -112 186 -190 20 -44 27 -78 31 -152 l5 -96 13 62 c25 125 106
245 212 317 163 110 349 123 527 36 44 -21 91 -50 104 -63 l23 -26 -37 -73
c-103 -204 -266 -340 -470 -393 -41 -10 -107 -15 -217 -15 l-158 0 0 -570 0
-570 -247 2 -248 3 -3 883 -2 884 108 -4 c98 -3 114 -6 173 -35z"/>
<path d="M1787 3239 c-56 -13 -111 -44 -140 -79 -29 -33 -43 -101 -32 -150 11
-50 74 -106 142 -127 79 -23 239 -23 315 0 200 61 193 294 -10 351 -63 17
-210 20 -275 5z"/>
<path d="M1710 1905 c-84 -14 -154 -45 -170 -74 -5 -11 -10 -36 -10 -56 0 -94
120 -135 397 -135 139 0 269 17 315 41 51 26 68 51 68 97 0 75 -53 110 -205
132 -94 13 -303 11 -395 -5z"/>
</g>
</svg>
