<svg xmlns="http://www.w3.org/2000/svg" xmlns:xlink="http://www.w3.org/1999/xlink" version="1.1" width="1200" height="675" style="shape-rendering:geometricPrecision; text-rendering:geometricPrecision; image-rendering:optimizeQuality; fill-rule:evenodd; clip-rule:evenodd">
<g><path style="opacity:0.998" fill="#013398" d="M 22.5,170.5 C 184.167,170.5 345.833,170.5 507.5,170.5C 507.5,278.5 507.5,386.5 507.5,494.5C 345.833,494.5 184.167,494.5 22.5,494.5C 22.5,386.5 22.5,278.5 22.5,170.5 Z"/></g>
<g><path style="opacity:0.897" fill="#50545f" d="M 587.5,211.5 C 611.833,211.5 636.167,211.5 660.5,211.5C 660.808,217.425 660.475,223.259 659.5,229C 642.503,229.5 625.503,229.667 608.5,229.5C 608.5,235.833 608.5,242.167 608.5,248.5C 624.17,248.333 639.837,248.5 655.5,249C 656.475,254.741 656.808,260.575 656.5,266.5C 640.5,266.5 624.5,266.5 608.5,266.5C 608.334,274.84 608.5,283.173 609,291.5C 609.333,291.167 609.667,290.833 610,290.5C 627.333,291.167 644.667,291.833 662,292.5C 662.804,297.751 662.637,302.918 661.5,308C 658.574,308.218 655.74,308.718 653,309.5C 633.314,309.171 611.481,308.838 587.5,308.5C 586.167,276.137 586.167,243.804 587.5,211.5 Z"/></g>
<g><path style="opacity:1" fill="#eac319" d="M 272.5,223.5 C 274.833,224.167 277.167,224.833 279.5,225.5C 276.853,227.811 274.186,230.144 271.5,232.5C 273.281,235.779 273.947,239.112 273.5,242.5C 270.833,240.5 268.167,238.5 265.5,236.5C 262.193,238.64 259.026,240.974 256,243.5C 256.287,239.783 257.121,236.116 258.5,232.5C 255.688,229.599 252.688,226.932 249.5,224.5C 253.5,223.833 257.5,223.167 261.5,222.5C 262.569,219.461 263.735,216.461 265,213.5C 266.716,216.64 268.049,219.973 269,223.5C 270.145,224.684 271.312,224.684 272.5,223.5 Z"/></g>
<g><path style="opacity:1" fill="#7a754f" d="M 272.5,223.5 C 275.247,223.187 277.914,223.52 280.5,224.5C 280.376,225.107 280.043,225.44 279.5,225.5C 277.167,224.833 274.833,224.167 272.5,223.5 Z"/></g>
<g><path style="opacity:1" fill="#edc416" d="M 220.5,249.5 C 221.291,251.691 221.291,253.691 220.5,255.5C 214.386,249.815 208.886,250.482 204,257.5C 203.879,253.678 204.713,250.011 206.5,246.5C 203.671,243.841 200.671,241.341 197.5,239C 201.167,238.667 204.833,238.333 208.5,238C 210.059,234.606 211.392,231.106 212.5,227.5C 214.295,230.924 215.962,234.424 217.5,238C 221.167,238.333 224.833,238.667 228.5,239C 225.5,241.333 222.5,243.667 219.5,246C 220.337,247.011 220.67,248.178 220.5,249.5 Z"/></g>
<g><path style="opacity:1" fill="#eac319" d="M 321.5,237.5 C 325.167,238.167 328.833,238.833 332.5,239.5C 329.21,241.124 326.543,243.457 324.5,246.5C 325.409,249.725 326.409,252.891 327.5,256C 326.092,256.315 324.759,255.982 323.5,255C 321.679,253.257 319.679,251.757 317.5,250.5C 314.214,252.451 311.214,254.785 308.5,257.5C 308.167,257 307.833,256.5 307.5,256C 308.601,252.864 309.601,249.697 310.5,246.5C 307.883,244.179 305.216,241.845 302.5,239.5C 305.833,238.833 309.167,238.167 312.5,237.5C 314.719,234.217 316.385,230.551 317.5,226.5C 318.1,230.463 319.433,234.13 321.5,237.5 Z"/></g>
<g><path style="opacity:0.912" fill="#50545f" d="M 833.5,235.5 C 850.774,234.915 863.607,242.581 872,258.5C 879.041,288.105 867.707,305.772 838,311.5C 809.893,308.318 797.893,292.652 802,264.5C 806.594,248.306 817.094,238.639 833.5,235.5 Z M 832.5,253.5 C 845.405,251.572 852.738,257.072 854.5,270C 853.167,272 853.167,274 854.5,276C 852.059,291.885 843.393,296.885 828.5,291C 820.235,280.836 819.402,270.003 826,258.5C 827.965,256.45 830.132,254.783 832.5,253.5 Z"/></g>
<g><path style="opacity:0.901" fill="#50545f" d="M 1064.5,235.5 C 1067.26,236.738 1070.09,236.738 1073,235.5C 1081.59,236.139 1088.93,239.472 1095,245.5C 1096.2,248.089 1097.2,250.756 1098,253.5C 1098.33,266.5 1098.67,279.5 1099,292.5C 1099.38,297.689 1100.55,302.689 1102.5,307.5C 1102.29,308.086 1101.96,308.586 1101.5,309C 1095.83,309.667 1090.17,309.667 1084.5,309C 1082.71,307.168 1081.38,305.002 1080.5,302.5C 1066.23,313.498 1052.73,313.165 1040,301.5C 1032.45,288.205 1035.28,277.705 1048.5,270C 1058.71,267.161 1068.88,264.327 1079,261.5C 1079.3,255.627 1076.47,252.293 1070.5,251.5C 1066.86,251.487 1063.2,252.32 1059.5,254C 1057.55,255.734 1056.55,257.901 1056.5,260.5C 1049.79,260.327 1043.46,258.827 1037.5,256C 1042.32,243.677 1051.32,236.844 1064.5,235.5 Z M 1075.5,276.5 C 1076.83,276.5 1078.17,276.5 1079.5,276.5C 1080.68,291.446 1074.35,297.613 1060.5,295C 1056.72,292.089 1055.56,288.256 1057,283.5C 1058.58,281.959 1060.41,280.792 1062.5,280C 1067.04,279.133 1071.37,277.967 1075.5,276.5 Z"/></g>
<g><path style="opacity:0.901" fill="#50545f" d="M 784.5,236.5 C 789.371,236.192 794.037,237.025 798.5,239C 799.578,239.674 800.245,240.674 800.5,242C 799.092,247.577 796.926,252.743 794,257.5C 781.428,252.023 775.094,256.356 775,270.5C 774.823,283.409 774.323,296.242 773.5,309C 767.251,309.809 761.084,309.642 755,308.5C 754.5,285.169 754.333,261.836 754.5,238.5C 760.509,238.334 766.509,238.501 772.5,239C 773.264,241.069 773.764,243.236 774,245.5C 776.505,241.189 780.005,238.189 784.5,236.5 Z"/></g>
<g><path style="opacity:0.91" fill="#50545f" d="M 919.5,236.5 C 936.746,236.038 947.913,244.038 953,260.5C 957.392,277.563 953.559,292.396 941.5,305C 928.528,313.763 916.361,312.596 905,301.5C 904.5,312.828 904.333,324.162 904.5,335.5C 897.91,335.811 891.41,335.478 885,334.5C 884.5,302.502 884.333,270.502 884.5,238.5C 890.833,238.5 897.167,238.5 903.5,238.5C 903.336,241.187 903.503,243.854 904,246.5C 908.194,241.496 913.361,238.163 919.5,236.5 Z M 917.5,252.5 C 922.405,252.429 926.572,254.096 930,257.5C 936.242,269.178 935.742,280.678 928.5,292C 915.77,297.217 907.937,293.051 905,279.5C 903.204,270.18 905.37,262.014 911.5,255C 913.611,254.155 915.611,253.322 917.5,252.5 Z"/></g>
<g><path style="opacity:0.901" fill="#50545f" d="M 986.5,236.5 C 1008.74,234.032 1022.24,243.699 1027,265.5C 1027.5,270.155 1027.67,274.821 1027.5,279.5C 1012.17,279.5 996.833,279.5 981.5,279.5C 982.819,293.149 989.819,297.649 1002.5,293C 1004.35,290.96 1005.69,288.627 1006.5,286C 1012.88,285.895 1019.22,286.562 1025.5,288C 1022.97,300.192 1015.3,307.526 1002.5,310C 978.398,312.879 964.565,302.379 961,278.5C 959.119,257.89 967.619,243.89 986.5,236.5 Z M 993.5,251.5 C 1002.28,252.611 1006.94,257.611 1007.5,266.5C 998.833,266.5 990.167,266.5 981.5,266.5C 981.514,258.071 985.514,253.071 993.5,251.5 Z"/></g>
<g><path style="opacity:0.902" fill="#50545f" d="M 1150.5,236.5 C 1159.92,235.559 1168.09,238.226 1175,244.5C 1176.93,247.948 1178.26,251.615 1179,255.5C 1179.33,255.167 1179.67,254.833 1180,254.5C 1180.83,272.509 1180.67,290.509 1179.5,308.5C 1172.97,309.818 1166.47,309.818 1160,308.5C 1159.67,291.833 1159.33,275.167 1159,258.5C 1157.17,254.665 1154.17,252.332 1150,251.5C 1146.59,251.918 1143.09,253.084 1139.5,255C 1137.95,256.214 1136.78,257.714 1136,259.5C 1134.58,275.785 1134.08,292.118 1134.5,308.5C 1127.83,308.5 1121.17,308.5 1114.5,308.5C 1114.5,285.167 1114.5,261.833 1114.5,238.5C 1120.83,238.5 1127.17,238.5 1133.5,238.5C 1132.19,246.799 1133.86,247.966 1138.5,242C 1142.48,239.838 1146.48,238.005 1150.5,236.5 Z"/></g>
<g><path style="opacity:1" fill="#50555f" d="M 312.5,237.5 C 309.167,238.167 305.833,238.833 302.5,239.5C 301.957,239.44 301.624,239.107 301.5,238.5C 305.107,237.511 308.774,237.177 312.5,237.5 Z"/></g>
<g><path style="opacity:1" fill="#50555f" d="M 321.5,237.5 C 325.555,237.176 329.555,237.509 333.5,238.5C 333.376,239.107 333.043,239.44 332.5,239.5C 328.833,238.833 325.167,238.167 321.5,237.5 Z"/></g>
<g><path style="opacity:0.907" fill="#50545f" d="M 674.5,238.5 C 681.167,238.5 687.833,238.5 694.5,238.5C 694.125,255.535 694.625,272.535 696,289.5C 697.797,293.586 700.964,295.586 705.5,295.5C 710.896,294.72 715.063,292.054 718,287.5C 719.369,271.202 719.869,254.869 719.5,238.5C 726.167,238.5 732.833,238.5 739.5,238.5C 739.667,261.836 739.5,285.169 739,308.5C 733.25,309.641 727.416,309.807 721.5,309C 720.726,306.595 720.226,304.095 720,301.5C 709.377,311.138 697.544,312.971 684.5,307C 680.61,304.404 677.777,300.904 676,296.5C 674.564,277.213 674.064,257.88 674.5,238.5 Z"/></g>
<g><path style="opacity:1" fill="#928549" d="M 220.5,249.5 C 222.385,251.795 222.885,254.462 222,257.5C 221.283,256.956 220.783,256.289 220.5,255.5C 221.291,253.691 221.291,251.691 220.5,249.5 Z"/></g>
<g><path style="opacity:1" fill="#e8c11b" d="M 174.5,265.5 C 175.117,265.611 175.617,265.944 176,266.5C 176.943,269.824 177.776,273.157 178.5,276.5C 182.514,276.334 186.514,276.501 190.5,277C 187.667,279.167 184.833,281.333 182,283.5C 182.028,287.284 182.861,290.951 184.5,294.5C 184.167,294.833 183.833,295.167 183.5,295.5C 180.795,293.291 177.961,291.291 175,289.5C 171.597,291.119 168.43,293.119 165.5,295.5C 165.167,295 164.833,294.5 164.5,294C 166.385,290.692 167.219,287.192 167,283.5C 164.226,281.86 161.726,279.86 159.5,277.5C 163.445,276.509 167.445,276.176 171.5,276.5C 172.303,272.761 173.303,269.095 174.5,265.5 Z"/></g>
<g><path style="opacity:1" fill="#ebc318" d="M 354.5,265.5 C 356.83,268.573 358.497,272.073 359.5,276C 363.5,276.333 367.5,276.667 371.5,277C 368.667,279.167 365.833,281.333 363,283.5C 362.879,287.322 363.713,290.989 365.5,294.5C 365.167,294.833 364.833,295.167 364.5,295.5C 362.072,292.902 359.239,290.902 356,289.5C 352.597,291.119 349.43,293.119 346.5,295.5C 346.167,295.167 345.833,294.833 345.5,294.5C 347.287,290.989 348.121,287.322 348,283.5C 345.356,281.69 342.856,279.69 340.5,277.5C 344.167,276.833 347.833,276.167 351.5,275.5C 352.909,272.273 353.909,268.94 354.5,265.5 Z"/></g>
<g><path style="opacity:1" fill="#edc515" d="M 147.5,331.5 C 147.389,330.883 147.056,330.383 146.5,330C 150.025,329.821 153.359,329.321 156.5,328.5C 158.004,325.341 159.337,322.007 160.5,318.5C 161.886,322.171 163.553,325.671 165.5,329C 168.76,329.784 171.927,329.617 175,328.5C 175.5,329 176,329.5 176.5,330C 173.577,332.045 170.743,334.212 168,336.5C 168.667,340.5 169.333,344.5 170,348.5C 166.974,345.974 163.807,343.64 160.5,341.5C 158.321,342.757 156.321,344.257 154.5,346C 153.241,346.982 151.908,347.315 150.5,347C 152.587,343.413 153.421,339.58 153,335.5C 150.833,334.512 149,333.179 147.5,331.5 Z"/></g>
<g><path style="opacity:1" fill="#e9c21b" d="M 368.5,318.5 C 369.496,318.414 370.329,318.748 371,319.5C 371.578,322.903 372.745,326.07 374.5,329C 377.76,329.784 380.927,329.617 384,328.5C 384.5,329 385,329.5 385.5,330C 382.577,332.045 379.743,334.212 377,336.5C 377.008,339.861 377.841,343.028 379.5,346C 379.167,346.833 378.833,347.667 378.5,348.5C 375.786,345.785 372.786,343.451 369.5,341.5C 366.65,343.427 363.983,345.594 361.5,348C 360.668,348.688 360.002,348.521 359.5,347.5C 360.809,344.264 361.809,340.931 362.5,337.5C 359.86,334.86 357.194,332.194 354.5,329.5C 357.899,329.533 361.565,329.367 365.5,329C 367.208,325.707 368.208,322.207 368.5,318.5 Z"/></g>
<g><path style="opacity:1" fill="#5d5d5b" d="M 156.5,328.5 C 153.359,329.321 150.025,329.821 146.5,330C 147.056,330.383 147.389,330.883 147.5,331.5C 146.005,331.585 145.005,330.919 144.5,329.5C 148.445,328.509 152.445,328.176 156.5,328.5 Z"/></g>
<g><path style="opacity:0.904" fill="#50545f" d="M 589.5,356.5 C 595.48,356.793 601.48,357.126 607.5,357.5C 608.333,380.493 608.833,403.493 609,426.5C 611.548,434.117 616.882,438.117 625,438.5C 627.755,438.853 630.922,438.353 634.5,437C 638.275,435.558 641.108,433.058 643,429.5C 644.117,405.534 644.95,381.534 645.5,357.5C 652.21,356.748 658.71,356.748 665,357.5C 665.941,382.536 665.608,407.536 664,432.5C 662.167,442.329 656.667,449.162 647.5,453C 631.342,458.428 615.676,457.428 600.5,450C 590.93,441.533 586.263,430.867 586.5,418C 586.524,398.042 586.524,377.875 586.5,357.5C 587.791,357.737 588.791,357.404 589.5,356.5 Z"/></g>
<g><path style="opacity:0.848" fill="#50545f" d="M 760.5,356.5 C 766.049,356.736 771.549,356.736 777,356.5C 777.414,356.957 777.914,357.291 778.5,357.5C 779.807,363.388 779.807,369.221 778.5,375C 772.175,375.5 765.842,375.666 759.5,375.5C 759.209,369.077 759.542,362.744 760.5,356.5 Z"/></g>
<g><path style="opacity:1" fill="#e9c21b" d="M 160.5,383.5 C 163.833,382.833 167.167,382.167 170.5,381.5C 172.201,378.074 173.534,374.407 174.5,370.5C 176.596,373.78 177.93,377.447 178.5,381.5C 182.514,381.334 186.514,381.501 190.5,382C 187.667,384.167 184.833,386.333 182,388.5C 181.879,392.322 182.713,395.989 184.5,399.5C 184.167,399.833 183.833,400.167 183.5,400.5C 180.762,398.379 177.928,396.379 175,394.5C 171.71,396.287 168.543,398.287 165.5,400.5C 165.167,400 164.833,399.5 164.5,399C 165.797,396.275 166.797,393.441 167.5,390.5C 165.757,387.484 163.423,385.151 160.5,383.5 Z"/></g>
<g><path style="opacity:1" fill="#eac21a" d="M 341.5,383.5 C 344.833,382.833 348.167,382.167 351.5,381.5C 352.547,377.639 354.047,373.973 356,370.5C 357.068,373.871 358.235,377.204 359.5,380.5C 363.167,381.167 366.833,381.833 370.5,382.5C 368.169,384.66 365.669,386.66 363,388.5C 362.879,392.322 363.713,395.989 365.5,399.5C 365.167,399.833 364.833,400.167 364.5,400.5C 361.762,398.379 358.928,396.379 356,394.5C 352.71,396.287 349.543,398.287 346.5,400.5C 346.167,400.167 345.833,399.833 345.5,399.5C 346.699,396.568 347.699,393.568 348.5,390.5C 346.8,387.493 344.466,385.16 341.5,383.5 Z"/></g>
<g><path style="opacity:1" fill="#8d8644" d="M 170.5,381.5 C 167.167,382.167 163.833,382.833 160.5,383.5C 159.624,383.631 158.957,383.298 158.5,382.5C 162.445,381.509 166.445,381.176 170.5,381.5 Z"/></g>
<g><path style="opacity:1" fill="#8d8644" d="M 351.5,381.5 C 348.167,382.167 344.833,382.833 341.5,383.5C 340.624,383.631 339.957,383.298 339.5,382.5C 343.445,381.509 347.445,381.176 351.5,381.5 Z"/></g>
<g><path style="opacity:0.916" fill="#50545f" d="M 717.5,381.5 C 729.906,380.447 738.739,385.447 744,396.5C 745.436,415.787 745.936,435.12 745.5,454.5C 738.833,454.5 732.167,454.5 725.5,454.5C 725.667,439.163 725.5,423.83 725,408.5C 724.699,401.7 721.199,398.033 714.5,397.5C 707.135,397.753 702.635,401.42 701,408.5C 699.307,423.041 699.141,437.541 700.5,452C 700.043,452.414 699.709,452.914 699.5,453.5C 693.202,454.496 686.868,454.83 680.5,454.5C 680.5,430.833 680.5,407.167 680.5,383.5C 686.5,383.5 692.5,383.5 698.5,383.5C 698.335,386.518 698.502,389.518 699,392.5C 703.87,386.425 710.037,382.759 717.5,381.5 Z"/></g>
<g><path style="opacity:0.916" fill="#50545f" d="M 818.5,381.5 C 841.366,379.507 855.866,389.507 862,411.5C 864.266,432.876 855.432,447.376 835.5,455C 801.895,458.062 786.729,442.896 790,409.5C 794.141,394.524 803.641,385.191 818.5,381.5 Z M 821.5,398.5 C 830.93,397.767 837.43,401.767 841,410.5C 841.87,416.917 841.536,423.251 840,429.5C 834.195,440.155 826.028,442.322 815.5,436C 808.951,426.912 807.784,417.078 812,406.5C 814.325,402.765 817.491,400.099 821.5,398.5 Z"/></g>
<g><path style="opacity:0.908" fill="#50545f" d="M 908.5,381.5 C 923.606,380.281 932.772,386.947 936,401.5C 936.492,418.847 936.826,436.181 937,453.5C 930.256,454.479 923.422,454.812 916.5,454.5C 916.667,438.83 916.5,423.163 916,407.5C 913.217,397.264 907.051,394.764 897.5,400C 895.622,401.543 894.122,403.376 893,405.5C 891.577,421.785 891.077,438.118 891.5,454.5C 884.833,454.5 878.167,454.5 871.5,454.5C 871.5,430.833 871.5,407.167 871.5,383.5C 877.5,383.5 883.5,383.5 889.5,383.5C 889.335,386.518 889.502,389.518 890,392.5C 894.87,386.425 901.037,382.759 908.5,381.5 Z"/></g>
<g><path style="opacity:0.9" fill="#50545f" d="M 759.5,383.5 C 766.09,383.189 772.59,383.522 779,384.5C 779.667,407.5 779.667,430.5 779,453.5C 772.59,454.478 766.09,454.811 759.5,454.5C 759.5,430.833 759.5,407.167 759.5,383.5 Z"/></g>
<g><path style="opacity:1" fill="#ecc417" d="M 200.5,423.5 C 200.047,422.542 199.381,421.708 198.5,421C 202.025,420.821 205.359,420.321 208.5,419.5C 210.339,416.471 211.673,413.138 212.5,409.5C 214.26,412.94 215.926,416.44 217.5,420C 221.167,420.333 224.833,420.667 228.5,421C 225.329,423.341 222.329,425.841 219.5,428.5C 221.139,432.049 221.972,435.716 222,439.5C 219.28,436.981 216.28,434.981 213,433.5C 209.72,434.981 206.72,436.981 204,439.5C 203.879,435.678 204.713,432.011 206.5,428.5C 204.838,426.348 202.838,424.682 200.5,423.5 Z"/></g>
<g><path style="opacity:1" fill="#ebc319" d="M 321.5,419.5 C 325.167,420.167 328.833,420.833 332.5,421.5C 329.01,423.157 326.344,425.657 324.5,429C 325.106,432.151 326.106,435.151 327.5,438C 323.867,437.011 320.534,435.178 317.5,432.5C 314.214,434.451 311.214,436.785 308.5,439.5C 308.167,439 307.833,438.5 307.5,438C 308.982,434.575 309.816,431.075 310,427.5C 307.167,425.333 304.333,423.167 301.5,421C 305.541,420.827 309.541,420.327 313.5,419.5C 314.835,415.828 316.168,412.161 317.5,408.5C 318.466,412.407 319.799,416.074 321.5,419.5 Z"/></g>
<g><path style="opacity:1" fill="#595a5d" d="M 208.5,419.5 C 205.359,420.321 202.025,420.821 198.5,421C 199.381,421.708 200.047,422.542 200.5,423.5C 197.968,423.171 196.968,422.005 197.5,420C 201.152,419.501 204.818,419.335 208.5,419.5 Z"/></g>
<g><path style="opacity:1" fill="#50555f" d="M 321.5,419.5 C 325.555,419.176 329.555,419.509 333.5,420.5C 333.376,421.107 333.043,421.44 332.5,421.5C 328.833,420.833 325.167,420.167 321.5,419.5 Z"/></g>
<g><path style="opacity:1" fill="#edc415" d="M 264.5,423.5 C 266.624,426.665 268.291,430.165 269.5,434C 273.167,434.333 276.833,434.667 280.5,435C 277.329,437.341 274.329,439.841 271.5,442.5C 273.287,446.011 274.121,449.678 274,453.5C 271.39,451.118 268.557,449.118 265.5,447.5C 261.95,448.86 258.783,450.86 256,453.5C 256.667,449.5 257.333,445.5 258,441.5C 255.257,439.212 252.423,437.045 249.5,435C 253.167,434.667 256.833,434.333 260.5,434C 262.326,430.688 263.66,427.188 264.5,423.5 Z"/></g>
</svg>