<svg viewBox="0 371.628 1156.176 403.74399999999997" xmlns="http://www.w3.org/2000/svg" version="1.1" style="max-height: 500px" width="1156.176" height="403.74399999999997">

<path style="visibility: visible;" data-index="0" d="M0 0 C31.44865468 1.18674169 59.77939584 11.90420772 87 27 C86.36396926 33.28189267 84.57465741 38.96784148 82.5625 44.9375 C82.20833008 45.99018066 81.85416016 47.04286133 81.48925781 48.12744141 C67.89134396 87.77131599 49.01036562 128.35553471 24.69628906 162.59106445 C22.64187727 165.50857758 20.68321512 168.4815947 18.72802734 171.46606445 C12.94215996 180.29056002 6.83087973 188.79764527 0.40527344 197.16552734 C-0.9244729 198.90140538 -2.24146732 200.64613389 -3.5546875 202.39453125 C-9.12892776 209.78183853 -15.02479988 216.84719236 -21.1159668 223.81274414 C-22.5696 225.50032997 -24.00192549 227.2062848 -25.42504883 228.91967773 C-33.32607724 238.3872447 -41.84404937 247.15236711 -50.58422852 255.8449707 C-52.9654586 258.21533097 -55.3356164 260.5963973 -57.70507812 262.97851562 C-59.22852465 264.50064285 -60.75259022 266.02215079 -62.27734375 267.54296875 C-62.97947495 268.24914841 -63.68160614 268.95532806 -64.40501404 269.6829071 C-67.73081045 272.97701312 -70.78846943 275.84148228 -75 278 C-75.14099121 276.82083008 -75.28198242 275.64166016 -75.42724609 274.42675781 C-75.95750765 269.99819852 -76.49142131 265.57008553 -77.02636719 261.14208984 C-77.25618502 259.23563181 -77.48504862 257.32905846 -77.71289062 255.42236328 C-78.04298226 252.66146523 -78.37665099 249.90101792 -78.7109375 247.140625 C-78.80998383 246.30573547 -78.90903015 245.47084595 -79.01107788 244.61065674 C-79.54122717 240.26166981 -80.16756358 235.95060349 -80.92236328 231.63476562 C-82.44042917 222.70060517 -83.44613337 213.69783105 -84.53125 204.703125 C-84.76998434 202.74075464 -85.0089619 200.77841387 -85.24816895 198.81610107 C-85.87441035 193.67370091 -86.49753682 188.53092819 -87.11993408 183.38806152 C-87.74877068 178.19599395 -88.38028192 173.00425188 -89.01171875 167.8125 C-89.72463711 161.95073899 -90.43737457 156.08895772 -91.14758301 150.22686768 C-92.40958466 139.81506767 -93.68971767 129.40584463 -95 119 C-96.40485738 140.95849623 -97.71587793 162.92163383 -98.95531273 184.89007664 C-99.2805946 190.64584891 -99.61422092 196.40107307 -99.95316124 202.1560564 C-101.03980035 220.66298725 -102.07301102 239.15313802 -102.48091316 257.68914032 C-102.53442848 260.02680334 -102.59595449 262.36410143 -102.66075134 264.70147705 C-102.69177051 265.82538597 -102.69177051 265.82538597 -102.72341633 266.97200012 C-102.76439181 268.4498233 -102.80570109 269.92763726 -102.84736156 271.40544128 C-102.94203883 274.92807536 -103.01112166 278.44766667 -103.0229187 281.97161865 C-103.11137636 305.39654379 -103.11137636 305.39654379 -109.50732422 311.95890808 C-112.19906143 314.26430606 -114.99620177 316.1104218 -118 318 C-119.96491784 319.53223452 -121.84942173 321.13688928 -123.75 322.75 C-124.63300781 323.45382812 -125.51601562 324.15765625 -126.42578125 324.8828125 C-129.78497545 327.64560955 -132.915118 330.62746093 -136.02734375 333.6640625 C-138 335 -138 335 -139.90429688 334.77758789 C-142.37480636 333.86093217 -143.63841468 332.74912717 -145.50390625 330.89453125 C-146.15665527 330.24798584 -146.8094043 329.60144043 -147.48193359 328.93530273 C-148.16852051 328.23477783 -148.85510742 327.53425293 -149.5625 326.8125 C-150.63105225 325.72980835 -150.63105225 325.72980835 -151.72119141 324.62524414 C-158.03267994 318.13515542 -163.72824299 311.35422401 -169 304 C-169.42474609 303.40896484 -169.84949219 302.81792969 -170.28710938 302.20898438 C-187.17073174 278.42887481 -198.03562579 251.72938766 -203 223 C-203.24363281 221.72511719 -203.48726562 220.45023438 -203.73828125 219.13671875 C-211.49448507 170.85830722 -198.09199339 119.89171208 -170.0625 80.25 C-166.09749607 74.97405157 -161.84222536 69.94313797 -157.53515625 64.9453125 C-156.08972465 63.26602833 -154.65341305 61.57853792 -153.24609375 59.8671875 C-149.56573449 55.39459832 -145.42857173 51.72060278 -141 48 C-140.15953125 47.26007813 -139.3190625 46.52015625 -138.453125 45.7578125 C-109.38993577 20.62859087 -69.1691563 0.05280194 -30 1 C-29.50647951 5.01919743 -29.03322081 9.04057386 -28.5625 13.0625 C-28.42779297 14.15755859 -28.29308594 15.25261719 -28.15429688 16.38085938 C-27.29676972 23.80578965 -26.83026784 31.16701785 -26.5546875 38.6328125 C-26.03529165 52.40138375 -24.79879088 66.09281818 -23.5625 79.8125 C-23.12408791 84.73548214 -22.68855142 89.65871522 -22.25390625 94.58203125 C-22.14825348 95.7740213 -22.04260071 96.96601135 -21.93374634 98.19412231 C-20.85531635 110.4550289 -19.91204362 122.72572536 -19 135 C-18.84419464 133.83752495 -18.84419464 133.83752495 -18.6852417 132.65156555 C-17.68633927 125.19943901 -16.68688964 117.74738612 -15.68688583 110.2954073 C-15.17329952 106.46805341 -14.65989554 102.64067528 -14.14697266 98.81323242 C-11.90725135 82.10136009 -9.64874957 65.39257179 -7.33468628 48.69081116 C-6.46954124 42.43722153 -5.61703166 36.18254877 -4.8046875 29.921875 C-4.64613281 28.70242188 -4.48757812 27.48296875 -4.32421875 26.2265625 C-4.01468212 23.83101818 -3.70753151 21.43516474 -3.40234375 19.0390625 C-2.56026941 12.59475808 -1.53185328 6.31720026 0 0 Z" fill="#A1C555" transform="translate(205,377)"/>
<path style="visibility: visible;" data-index="1" d="M0 0 C9.12737813 5.38548181 16.41984337 12.68426744 24 20 C24.8353125 20.7940625 25.670625 21.588125 26.53125 22.40625 C49.40852138 44.57960534 61.75544091 76.66046043 69 107 C69.30429932 108.1770752 69.30429932 108.1770752 69.61474609 109.37792969 C69.80762207 110.15813477 70.00049805 110.93833984 70.19921875 111.7421875 C70.46545044 112.78802002 70.46545044 112.78802002 70.73706055 113.85498047 C71.05257549 116.42890273 70.54999079 118.48032881 70 121 C69.29415268 121.22693039 68.58830536 121.45386078 67.86106873 121.68766785 C61.14020557 123.84858765 54.41959368 126.01028682 47.69924831 128.17281628 C44.24600271 129.2840018 40.79266773 130.39490772 37.33911133 131.50512695 C33.99314791 132.58077037 30.64744167 133.65721042 27.30189705 134.73415565 C25.4330788 135.33552259 23.56400916 135.93610815 21.69493103 136.53666687 C15.92115858 138.39595469 10.15949542 140.28195538 4.41430664 142.2277832 C-8.00331746 146.31895168 -20.51328797 150.12481351 -33 154 C19.47 154.495 19.47 154.495 73 155 C73 185.00667565 65.45231342 213.21712774 52 240 C37.87502106 240.31345374 23.75002032 240.62591604 9.625 240.9375 C8.58697109 240.96039848 7.54894218 240.98329697 6.47945786 241.00688934 C-25.34632741 241.70865204 -57.1722566 242.39234576 -89 243 C-88.28258636 243.1782431 -87.56517273 243.35648621 -86.82601929 243.54013062 C-53.49654035 251.82333432 -20.17459838 260.1121817 13 269 C15.83183745 269.75593563 18.66396199 270.51079285 21.49609375 271.265625 C23.6640625 271.84375 25.83203125 272.421875 28 273 C26.70469232 276.7442551 25.23916634 279.15186458 22.46484375 281.96875 C21.74683594 282.69827881 21.02882813 283.42780762 20.2890625 284.17944336 C19.51304687 284.94522705 18.73703125 285.71101074 17.9375 286.5 C17.13183594 287.29736572 16.32617188 288.09473145 15.49609375 288.91625977 C-12.97309462 316.60421357 -49.86959562 334.56902311 -89 341 C-90.03608398 341.17442627 -91.07216797 341.34885254 -92.13964844 341.52856445 C-137.44583441 348.63747527 -181.98237422 337.02902942 -221 314 C-221.97324219 313.45988281 -222.94648438 312.91976563 -223.94921875 312.36328125 C-224.62597656 311.91339844 -225.30273438 311.46351563 -226 311 C-226 310.34 -226 309.68 -226 309 C-223.64208646 307.0597913 -221.2750583 305.23667639 -218.8125 303.4375 C-218.08434082 302.89810791 -217.35618164 302.35871582 -216.60595703 301.80297852 C-212.25177967 298.59466234 -207.84234525 295.48567624 -203.375 292.4375 C-187.63972733 281.6509126 -172.56211297 269.2443627 -158.53491211 256.33081055 C-156.81896796 254.75302774 -155.09633486 253.18249399 -153.36767578 251.61865234 C-146.32831545 245.23070627 -139.50603544 238.66298073 -132.7980957 231.9284668 C-131.17447771 230.29943428 -129.54550397 228.67589272 -127.91601562 227.05273438 C-122.40111699 221.54170761 -117.02673833 215.96551226 -112 210 C-111.09934017 208.95539982 -110.19831752 207.91111233 -109.296875 206.8671875 C-103.15073936 199.64642078 -97.17966981 192.31485191 -91.39160156 184.80371094 C-90.47782573 183.61932921 -89.56060927 182.43759248 -88.63964844 181.25878906 C-74.82788769 163.55722579 -62.05789146 144.54624922 -51 125 C-50.60409668 124.30148926 -50.20819336 123.60297852 -49.80029297 122.88330078 C-47.21974264 118.31314318 -44.67934827 113.72226307 -42.16259766 109.11669922 C-41.12509558 107.22775697 -40.07171474 105.34902663 -39.01171875 103.47265625 C-21.23007698 71.33316708 -8.59921543 35.64226533 0 0 Z" fill="#74B45C" transform="translate(311,418)"/>

<path style="opacity: 1;" data-index="3" d="M0 0 C4.23301283 2.62093178 6.62321398 5.87473725 9.5546875 9.84375 C10.15265137 10.63313965 10.75061523 11.4225293 11.36669922 12.23583984 C12.64827476 13.92905494 13.92498863 15.62595881 15.19726562 17.32617188 C17.19166825 19.9847204 19.20555886 22.62725426 21.2265625 25.265625 C27.78606071 33.83116046 34.28882674 42.43721071 40.74267578 51.08251953 C44.4946204 56.09229756 48.32659049 61.03649218 52.1796875 65.96875 C57.02582562 72.17217612 61.80075472 78.42100193 66.50878906 84.72973633 C70.6165169 90.23024483 74.76648492 95.69762815 78.9296875 101.15625 C79.60209473 102.03796875 80.27450195 102.9196875 80.96728516 103.828125 C83.03761708 106.54202483 85.10854168 109.25547126 87.1796875 111.96875 C89.93044206 115.57234169 92.6805897 119.17639422 95.4296875 122.78125 C96.09822754 123.6578125 96.76676758 124.534375 97.45556641 125.4375 C101.91955093 131.29709831 106.34215548 137.18615632 110.74755859 143.08984375 C114.45242635 148.03799765 118.24385905 152.91442784 122.0546875 157.78125 C127.47915769 164.71152206 132.73126864 171.75153685 137.92480469 178.85595703 C142.45743846 185.0367061 147.11514782 191.10922101 151.859375 197.12890625 C155.78404139 202.12216992 159.60760674 207.18684137 163.41357422 212.27075195 C163.96903427 213.01207619 164.52449432 213.75340042 165.0967865 214.51718903 C166.45809921 216.33411749 167.81905643 218.15131105 169.1796875 219.96875 C169.17931047 218.87745757 169.17893345 217.78616514 169.178545 216.66180325 C169.17074224 190.11317102 169.19731323 163.56474299 169.2599659 137.01618099 C169.28946776 124.17749213 169.3077838 111.33896893 169.29980469 98.50024414 C169.29287875 87.31051926 169.30690182 76.12105073 169.34612358 64.93138891 C169.36616041 59.00599648 169.37567767 53.08100672 169.36011124 47.15559196 C169.34578976 41.57810876 169.35948259 36.00139527 169.39463997 30.42401123 C169.40260705 28.37740513 169.40034891 26.33072966 169.38707924 24.28415108 C169.37047987 21.48746713 169.39078693 18.69335987 169.42019653 15.89683533 C169.40661043 15.08845323 169.39302433 14.28007113 169.37902653 13.44719261 C169.49013265 8.00410218 170.96601363 5.23389029 174.69857585 1.28377825 C177.87034583 -1.53232757 180.79647459 -1.3074653 184.86328125 -1.2421875 C189.56612127 -0.81393563 192.27789811 0.92323741 195.31591034 4.44543457 C197.81618219 9.17199018 197.73663465 12.94937932 197.68762207 18.21679688 C197.69386203 19.24674522 197.700102 20.27669357 197.70653105 21.33785248 C197.72248183 24.78796806 197.70984809 28.23737921 197.69726562 31.6875 C197.70268579 34.16138115 197.70980785 36.63525907 197.71850586 39.10913086 C197.73485937 45.13029513 197.73245547 51.15118309 197.7208553 57.17233658 C197.71181746 62.06632371 197.71059848 66.96025496 197.71495056 71.85424805 C197.71556349 72.5510938 197.71617643 73.24793956 197.71680793 73.96590185 C197.71808685 75.38158228 197.7193837 76.79726269 197.7206983 78.21294308 C197.7321013 91.48417281 197.71899481 104.75529197 197.69749683 118.02650356 C197.67962607 129.41095357 197.68273025 140.79524043 197.70117188 152.1796875 C197.72258356 165.40379777 197.73100269 178.62781116 197.71872282 191.85193634 C197.71744864 193.26237486 197.71619116 194.6728134 197.71495056 196.08325195 C197.71402491 197.12416434 197.71402491 197.12416434 197.71308056 198.18610525 C197.70962854 203.07355674 197.71545278 207.96094671 197.72486877 212.84838867 C197.7372662 219.4279172 197.72842501 226.00718524 197.70529175 232.58670044 C197.69999771 235.00301603 197.70153023 237.41935752 197.71034241 239.83566284 C197.72125344 243.13102801 197.70758672 246.42540135 197.68762207 249.72070312 C197.69654496 250.67965233 197.70546784 251.63860153 197.71466112 252.6266098 C197.64848733 258.24775168 196.96776314 261.52965056 193.1796875 265.96875 C189.25174649 269.36106269 186.33974422 270.41608239 181.3046875 270.5 C175.88629793 269.14540261 172.42321416 265.43730115 169.3046875 261.03125 C168.53511719 259.9690625 167.76554688 258.906875 166.97265625 257.8125 C166.53743652 257.20921875 166.1022168 256.6059375 165.65380859 255.984375 C162.70502446 251.95238397 159.6515703 247.99895251 156.6171875 244.03125 C155.22375844 242.20457955 153.83053251 240.37775413 152.4375 238.55078125 C151.73399414 237.62861816 151.03048828 236.70645508 150.30566406 235.75634766 C147.53937109 232.12916194 144.775684 228.49999508 142.01196289 224.87084961 C136.05401015 217.04766084 130.08869281 209.23019828 124.11254883 201.42089844 C119.10576896 194.87647024 114.11345284 188.32105667 109.12109375 181.765625 C104.9798776 176.32878844 100.83313399 170.89624792 96.6796875 165.46875 C88.47496372 154.74645073 80.29808129 144.00294592 72.11816406 133.26171875 C64.79160469 123.64147642 57.46147164 114.02407097 50.11254883 104.42089844 C45.11146742 97.88391878 40.12404362 91.33656327 35.13867188 84.78759766 C31.95057742 80.60072096 28.75903512 76.41664256 25.5546875 72.2421875 C24.69810547 71.12553711 24.69810547 71.12553711 23.82421875 69.98632812 C22.78113362 68.6273443 21.73698948 67.26917213 20.69140625 65.91210938 C17.73154868 62.05472087 14.8446214 58.15012368 11.98828125 54.21533203 C11.27341553 53.23098175 10.5585498 52.24663147 9.82202148 51.23245239 C9.28005127 50.4854306 8.73808105 49.73840881 8.1796875 48.96875 C8.17729915 50.05157855 8.17491079 51.1344071 8.17245007 52.25004864 C8.11369133 78.58097687 8.03783101 104.91181334 7.94397259 131.2426405 C7.89898075 143.97596091 7.85957389 156.70925313 7.83325195 169.44262695 C7.81029933 180.53925577 7.77693196 191.63579566 7.73098594 202.73235399 C7.70701685 208.60950282 7.68831222 214.48656337 7.68207359 220.36375999 C7.67603944 225.89344551 7.65610002 231.42290504 7.62541199 236.95250702 C7.61660496 238.98382564 7.61291467 241.01517375 7.61467934 243.0465107 C7.61632646 245.81697043 7.59968077 248.58673666 7.57841492 251.35710144 C7.58326249 252.16352732 7.58811007 252.96995321 7.59310454 253.80081624 C7.53502582 258.37604537 7.00997955 261.32988797 4.1796875 264.96875 C-0.13465847 268.75695622 -2.78742656 270.39118661 -8.65234375 270.31640625 C-12.41151307 269.7135845 -15.27528259 267.75452598 -17.8203125 264.96875 C-20.46353798 260.12876905 -20.10500469 255.2032579 -20.08773804 249.84095764 C-20.09226915 248.81186372 -20.09680026 247.78276979 -20.10146868 246.7224912 C-20.11414284 243.26945713 -20.11249036 239.81658017 -20.11083984 236.36352539 C-20.11682313 233.88979387 -20.12362821 231.41606422 -20.13119507 228.94233704 C-20.14704338 222.91777363 -20.15330424 216.89327215 -20.15441982 210.86869366 C-20.15537051 205.97183317 -20.15948183 201.0749856 -20.16582108 196.1781292 C-20.1834302 182.29300021 -20.19266028 168.40790212 -20.19116013 154.52276189 C-20.19108022 153.77444236 -20.1910003 153.02612283 -20.19091797 152.25512695 C-20.19079533 151.13127662 -20.19079533 151.13127662 -20.19067021 149.98472225 C-20.18985705 137.83843704 -20.20900295 125.69227577 -20.2371947 113.54602642 C-20.265917 101.07275343 -20.27973541 88.5995409 -20.27800715 76.12623399 C-20.27734309 69.12399494 -20.28284226 62.12188586 -20.30436325 55.11967659 C-20.32446817 48.53608274 -20.32390811 41.95271676 -20.30932999 35.36909294 C-20.30723399 32.95115636 -20.31198954 30.53320282 -20.3240509 28.11529541 C-20.33943668 24.81771319 -20.33023859 21.52108694 -20.31478882 18.223526 C-20.32507594 17.26389468 -20.33536307 16.30426335 -20.34596193 15.31555229 C-20.28778568 9.70716804 -19.63892208 6.37734206 -15.8203125 1.96875 C-10.6188322 -1.49890354 -5.90897367 -2.16062195 0 0 Z" fill="#3A3839" transform="translate(501.8203125,396.03125)"/>
<path style="visibility: visible; opacity: 1;" data-index="4" d="M0 0 C0.7031153 -0.00467997 1.4062306 -0.00935994 2.13065243 -0.01418173 C4.48060551 -0.02612318 6.82997449 -0.01667818 9.17993164 -0.00723267 C10.86711975 -0.01129876 12.55430519 -0.01664085 14.2414856 -0.02316284 C18.81995804 -0.03683781 23.39822766 -0.03153705 27.97670364 -0.02202559 C32.76832882 -0.01442994 37.55993664 -0.02147434 42.3515625 -0.02618408 C50.39822508 -0.03164191 58.44480504 -0.02444931 66.49145508 -0.01016235 C75.79427301 0.00616421 85.09689369 0.00087572 94.39970684 -0.01564157 C102.387098 -0.02925566 110.37442979 -0.03117647 118.3618288 -0.02332556 C123.13227382 -0.01864863 127.90262613 -0.01802477 132.67306519 -0.02793503 C137.15796008 -0.03660128 141.64260068 -0.03058904 146.12746811 -0.01325226 C147.77340142 -0.00928559 149.41935612 -0.01042455 151.06528091 -0.01704025 C153.31220142 -0.02523893 155.55830718 -0.01495527 157.80517578 0 C159.06245987 0.00113108 160.31974396 0.00226215 161.61512756 0.00342751 C166.28611704 0.53983183 168.81489221 2.38144679 172.21508789 5.50595093 C174.5654655 9.51029797 174.587562 12.84196586 173.90258789 17.38095093 C172.27781324 21.11793262 170.34637482 23.22858409 166.90258789 25.38095093 C163.61070209 26.47824619 161.19971187 26.5040444 157.73335266 26.50120544 C156.4418631 26.50258011 155.15037354 26.50395477 153.81974792 26.50537109 C152.38552833 26.50183193 150.95130898 26.49819712 149.51708984 26.49447632 C148.00927736 26.4941943 146.50146474 26.49435248 144.99365234 26.49491882 C140.89684122 26.49520621 136.80005927 26.48931898 132.70325494 26.48234487 C128.4231177 26.47610154 124.14297983 26.47550675 119.86283875 26.47431946 C111.75621728 26.47120904 103.64960926 26.46299953 95.54299372 26.45296997 C84.58962679 26.439712 73.63625619 26.43430659 62.68288326 26.42846775 C45.42277472 26.41905946 28.16269458 26.39913861 10.90258789 26.38095093 C10.90258789 58.06095093 10.90258789 89.74095093 10.90258789 122.38095093 C19.06235352 122.33454468 27.22211914 122.28813843 35.62915039 122.24032593 C41.45434203 122.2172899 47.27949946 122.19678479 53.10470772 122.17993546 C60.65120636 122.1577701 68.19752815 122.12963025 75.74389648 122.07919312 C82.35745199 122.03501169 88.97086635 122.01181585 95.58457565 122.00144196 C98.10837187 121.99404861 100.63215756 121.9796113 103.15587234 121.9580307 C106.68967618 121.92901326 110.22268808 121.9249944 113.7565918 121.92684937 C114.80100433 121.91246826 115.84541687 121.89808716 116.92147827 121.88327026 C122.89967382 121.91724789 126.37380663 122.35431785 130.90258789 126.38095093 C133.87876702 130.84521962 133.64264861 135.14819835 132.90258789 140.38095093 C130.95412464 144.32445423 127.94605629 146.74043074 123.90258789 148.38095093 C121.6456337 148.62704659 121.6456337 148.62704659 119.13165283 148.62145996 C117.69720573 148.62558395 117.69720573 148.62558395 116.23377991 148.62979126 C115.19152756 148.62260071 114.14927521 148.61541016 113.07543945 148.60800171 C111.97270187 148.60829376 110.86996429 148.60858582 109.73381042 148.60888672 C106.08686469 148.60749277 102.44012296 148.59192822 98.79321289 148.57626343 C96.26544303 148.57253354 93.73767172 148.56968645 91.2098999 148.56768799 C85.23531851 148.56083049 79.26082476 148.54506562 73.28627849 148.52498901 C64.62224338 148.49650742 55.95818332 148.48603581 47.29411316 148.47337341 C35.16354406 148.4539752 23.03316637 148.41565379 10.90258789 148.38095093 C10.90258789 180.39095093 10.90258789 212.40095093 10.90258789 245.38095093 C21.96145508 245.34614624 33.02032227 245.31134155 44.41430664 245.27548218 C51.40975144 245.26015818 58.40518412 245.24559262 65.40063477 245.23446655 C76.51029609 245.21665523 87.61988923 245.19569943 98.72949219 245.15463257 C106.82001875 245.12474003 114.91049007 245.10537825 123.00107032 245.09868544 C127.28537159 245.09477294 131.56951484 245.08557136 135.85376549 245.06376076 C139.88631158 245.04339788 143.91863456 245.0371167 147.95122719 245.04162788 C149.43107948 245.04080259 150.91093924 245.03483564 152.39074707 245.0233345 C154.4120697 245.00839534 156.43351205 245.01378805 158.45487976 245.02018738 C159.58591975 245.017422 160.71695974 245.01465662 161.88227367 245.01180744 C166.36943985 245.56022991 168.94439049 247.50044521 172.21508789 250.50595093 C174.57468842 254.52601109 174.68974768 257.82666931 173.90258789 262.38095093 C171.47948675 267.41354561 168.99219402 269.28156789 163.90258789 271.38095093 C160.52610779 271.76126766 160.52610779 271.76126766 156.76757812 271.76863098 C156.07248107 271.77401652 155.37738401 271.77940206 154.66122341 271.78495079 C152.34435995 271.79919807 150.02807044 271.792135 147.71118164 271.78500366 C146.04517153 271.79070888 144.37916533 271.79767374 142.71316528 271.80580139 C138.19667636 271.8237297 133.68038176 271.82256522 129.16386795 271.81685901 C125.39138994 271.81376714 121.61894925 271.81985948 117.84647655 271.82589775 C108.94685443 271.83993986 100.04732831 271.83838388 91.14770508 271.82699585 C81.9692435 271.8155105 72.79107397 271.829598 63.61265087 271.85639232 C55.7279794 271.87854722 47.84339962 271.88518731 39.95869923 271.87931591 C35.25135617 271.87594516 30.5442004 271.87836943 25.83688354 271.89556694 C21.41101203 271.91103102 16.98557346 271.90708664 12.55971909 271.8882618 C10.93677732 271.88457463 9.31380351 271.88768813 7.69089127 271.89814758 C5.47262802 271.91135116 3.25579954 271.8998178 1.03759766 271.88215637 C-0.82287453 271.88184245 -0.82287453 271.88184245 -2.72093201 271.88152218 C-8.04619185 271.09203967 -10.90475927 268.71053595 -14.4406662 264.76866055 C-16.70519483 260.13815844 -16.65293874 256.26795896 -16.60534668 251.17759705 C-16.61158664 250.15243782 -16.6178266 249.12727858 -16.62425566 248.07105392 C-16.64020596 244.63709074 -16.62757286 241.20383535 -16.61499023 237.76986694 C-16.62041045 235.30746039 -16.62753254 232.84505707 -16.63623047 230.38265991 C-16.65258417 224.38923368 -16.65017978 218.39608503 -16.63857991 212.40266962 C-16.62954133 207.53062083 -16.62832341 202.65862818 -16.63267517 197.78657341 C-16.6332881 197.09279174 -16.63390104 196.39901007 -16.63453254 195.68420471 C-16.63581146 194.27472702 -16.63710832 192.86524934 -16.63842291 191.45577168 C-16.64982621 178.24221552 -16.63671941 165.0287704 -16.61522144 151.81523245 C-16.5973546 140.48283493 -16.60045157 129.15060134 -16.61889648 117.81820679 C-16.64031447 104.65305045 -16.64872344 91.48799145 -16.63644743 78.32282013 C-16.63517326 76.9182615 -16.63391578 75.51370286 -16.63267517 74.10914421 C-16.63205807 73.41810744 -16.63144097 72.72707068 -16.63080516 72.0150934 C-16.62735474 67.15065393 -16.63317403 62.28627629 -16.64259338 57.42184639 C-16.65499951 50.87104158 -16.64613531 44.32049818 -16.62301636 37.76970673 C-16.61772628 35.3650991 -16.6192481 32.96046543 -16.62806702 30.55586815 C-16.63899379 27.27398961 -16.62529216 23.99310371 -16.60534668 20.71128845 C-16.61426957 19.75914304 -16.62319245 18.80699762 -16.63238573 17.82599932 C-16.56175461 11.83633467 -15.72481955 8.2188436 -12.09741211 3.38095093 C-8.19548289 0.14341749 -4.9810183 0.00448102 0 0 Z" fill="#3A3839" transform="translate(973.097412109375,394.6190490722656)"/>
<path style="visibility: visible; opacity: 1;" data-index="5" d="M0 0 C11.65958981 9.100581 21.04713642 21.31186814 23.0390625 36.33984375 C24.49565667 56.86703194 20.19582318 74.63103578 6.625 90.5 C-3.90647602 102.34206713 -15.85503625 112.17576765 -28.51611328 121.63574219 C-40.26643683 130.45554788 -51.78579192 139.52816733 -62.75 149.3125 C-63.88308594 150.31796875 -63.88308594 150.31796875 -65.0390625 151.34375 C-73.75462618 159.53846326 -81.18380047 170.2682369 -85.75 181.3125 C-86.22566406 182.38564453 -86.22566406 182.38564453 -86.7109375 183.48046875 C-90.65747503 193.99853437 -90.64031358 208.69264731 -86.0625 218.9609375 C-80.10769256 229.62996749 -71.56782506 236.275967 -59.8203125 239.8046875 C-58.79550781 240.05605469 -58.79550781 240.05605469 -57.75 240.3125 C-57.01136719 240.49425781 -56.27273438 240.67601562 -55.51171875 240.86328125 C-36.46840737 243.96084958 -18.30316701 239.08855392 -2.30078125 228.7265625 C4.53399169 223.69558062 10.35538172 217.3866498 16.25 211.3125 C19.18230193 212.63370828 21.23664899 214.05888197 23.484375 216.3515625 C24.34482422 217.22167969 24.34482422 217.22167969 25.22265625 218.109375 C25.80917969 218.71265625 26.39570312 219.3159375 27 219.9375 C27.60199219 220.54851562 28.20398438 221.15953125 28.82421875 221.7890625 C30.30405305 223.29238624 31.77764676 224.80184856 33.25 226.3125 C26.50035703 242.4366471 3.34687667 254.08814195 -11.7890625 260.625 C-32.38998001 268.51718248 -57.64655126 268.1940898 -77.9140625 259.58203125 C-86.40437358 255.75012961 -93.28164296 251.10303574 -99.75 244.3125 C-100.31976562 243.75046875 -100.88953125 243.1884375 -101.4765625 242.609375 C-112.61525289 230.84234823 -116.38476437 214.26539739 -116.14794922 198.56542969 C-115.18773119 171.08115627 -96.97208775 151.46327378 -78.04199219 133.42724609 C-73.45580857 129.19572474 -68.56314674 125.44127428 -63.5703125 121.70947266 C-60.00452975 118.97296396 -56.57726964 116.06483616 -53.125 113.1875 C-48.35458887 109.2264072 -43.55887707 105.35993694 -38.5625 101.6875 C-22.84619333 90.03538268 -5.845354 75.85005973 -1.96484375 55.48828125 C-0.87942658 44.4959655 -1.10857621 34.75942852 -7.73828125 25.55078125 C-14.89065444 17.08899258 -22.60370238 12.97873972 -33.73046875 11.94140625 C-44.97671248 11.6138715 -53.96352603 13.33567536 -63.125 20.375 C-69.8774197 26.94377649 -73.09305456 34.49609283 -73.3125 43.875 C-72.47960411 62.03213031 -64.07908999 73.82998891 -51.75 86.3125 C-50.98042969 87.09753906 -50.21085938 87.88257813 -49.41796875 88.69140625 C-47.87606536 90.24587097 -46.31588872 91.78219966 -44.75 93.3125 C-46.08598273 97.3204482 -48.74420347 98.92780939 -52 101.375 C-52.57363281 101.82166016 -53.14726563 102.26832031 -53.73828125 102.72851562 C-56.947333 105.17368148 -59.87773346 107.02417072 -63.75 108.3125 C-80.31157572 92.39525071 -96.96160159 74.71531676 -98.21875 50.4453125 C-98.25277437 48.4429703 -98.26273175 46.44009079 -98.25 44.4375 C-98.24427979 43.3861084 -98.23855957 42.3347168 -98.23266602 41.25146484 C-97.89667697 26.61953784 -91.95285601 15.93356484 -82.1875 5.1875 C-60.66614346 -15.33672805 -24.18255917 -16.76521959 0 0 Z" fill="#3B393A" transform="translate(835.75,402.6875)"/>
<path style="visibility: visible;" data-index="6" d="M0 0 C0 0.66 0 1.32 0 2 C0.84847991 2.36112885 0.84847991 2.36112885 1.71410084 2.72955322 C4.47059981 4.26154785 6.34382873 6.09505523 8.5743866 8.32714844 C9.48716873 9.23573608 10.39995087 10.14432373 11.34039307 11.08044434 C12.34445719 12.08999159 13.34842113 13.09963849 14.35229492 14.109375 C15.41486639 15.17087334 16.47787071 16.23193854 17.54127502 17.29260254 C20.42577493 20.17225669 23.30398863 23.05811957 26.18098617 25.94526672 C29.19080276 28.96386563 32.20588894 31.97719254 35.22029114 34.99121094 C40.28007887 40.05193506 45.33597894 45.11651684 50.3894043 50.18359375 C56.23689969 56.0468271 62.08961781 61.90480491 67.94535369 67.75980759 C73.57441497 73.38825917 79.20061638 79.0195599 84.82522011 84.65246582 C87.22115198 87.05193351 89.61793594 89.45054532 92.01537132 91.84851074 C94.83551685 94.66965862 97.65310583 97.49333534 100.46870995 100.3190155 C101.50429827 101.35753167 102.54074113 102.39519649 103.57808304 103.43196106 C104.98989079 104.84328023 106.39832554 106.25797121 107.80656433 107.67285156 C108.5968764 108.46483948 109.38718847 109.25682739 110.20144939 110.07281494 C112.56629138 112.6067932 112.95912775 113.70221648 113.4375 117.1875 C112.86024036 122.21790545 110.65900216 124.64433481 107 128 C103.32050896 129.83974552 99.99095465 129.85416394 96 129 C93.70298958 127.34387875 93.70298958 127.34387875 91.36087036 125.12522888 C90.4876627 124.30390913 89.61445503 123.48258938 88.71478653 122.63638115 C87.81890697 121.76637537 86.92302742 120.89636959 86 120 C85.14848232 119.1751668 84.29696465 118.3503336 83.4196434 117.50050545 C80.67123782 114.80778746 77.94593138 112.0927968 75.22607422 109.37133789 C74.19032515 108.33858965 73.15437447 107.30604358 72.11824036 106.27368164 C69.33759464 103.50177324 66.5601073 100.72672193 63.78350592 97.95076299 C62.0469342 96.21490614 60.30965072 94.47976489 58.57211685 92.74487114 C52.5071516 86.68911588 46.4447322 80.63082569 40.38476562 74.57006836 C34.73716919 68.92186802 29.08398259 63.27930512 23.42822826 57.63927466 C18.56251374 52.78660632 13.70063235 47.93012041 8.84175694 43.07060426 C5.94345985 40.1720519 3.04362157 37.27508308 0.13991928 34.38194466 C-2.58139826 31.67026212 -5.29793515 28.95388231 -8.01078224 26.2337265 C-9.00882479 25.23463329 -10.00859323 24.23726089 -11.01016426 23.24170494 C-12.37173099 21.88779104 -13.72661219 20.52716348 -15.08108521 19.16615295 C-15.84240313 18.4053798 -16.60372105 17.64460665 -17.38810921 16.86077976 C-19 15 -19 15 -19 13 C-17.1350189 11.45923412 -15.27421549 10.03246762 -13.3125 8.625 C-8.70134841 5.25860052 -8.70134841 5.25860052 -4.23046875 1.7109375 C-2 0 -2 0 0 0 Z" fill="#3B393A" transform="translate(827,532)"/>
<path style="visibility: visible;" data-index="7" d="M0 0 C3.05938847 0.16234122 4.55379538 0.57243562 6.7824707 2.70800781 C7.32476318 3.44889648 7.86705566 4.18978516 8.42578125 4.953125 C9.04960693 5.78980713 9.67343262 6.62648926 10.31616211 7.48852539 C10.97495361 8.39981201 11.63374512 9.31109863 12.3125 10.25 C13.73658253 12.17086704 15.16107359 14.09143125 16.5859375 16.01171875 C17.31393555 17.00220215 18.04193359 17.99268555 18.79199219 19.01318359 C22.28523056 23.73855713 25.86377923 28.39788996 29.4375 33.0625 C34.99941677 40.34454547 40.51009345 47.66359585 46 55 C46.00808685 54.34045319 46.01617371 53.68090637 46.02450562 53.00137329 C46.11035572 46.15598793 46.20985003 39.31089871 46.31738281 32.46582031 C46.3557398 29.90890463 46.39058062 27.35193375 46.421875 24.79492188 C46.46737976 21.12610091 46.5253981 17.45766227 46.5859375 13.7890625 C46.59748871 12.64007477 46.60903992 11.49108704 46.62094116 10.30728149 C46.64081085 9.2463327 46.66068054 8.18538391 46.68115234 7.09228516 C46.69447601 6.15518707 46.70779968 5.21808899 46.7215271 4.25259399 C47 2 47 2 49 0 C51.32421875 0.015625 51.32421875 0.015625 54 1 C55.81605528 2.88602055 57.28422318 4.65051949 58.8125 6.75 C59.27624023 7.36343262 59.73998047 7.97686523 60.21777344 8.60888672 C61.2535298 9.98037333 62.28365628 11.35612395 63.30908203 12.73535156 C65.10282001 15.13770696 66.92131486 17.51958347 68.74609375 19.8984375 C77.91855559 31.86649697 86.95975151 43.93194357 96 56 C96.01030746 55.31317642 96.02061493 54.62635284 96.03123474 53.91871643 C96.13905595 46.79784143 96.25367283 39.67709926 96.37231445 32.55639648 C96.4157418 29.89561735 96.4574109 27.23480893 96.49731445 24.57397461 C96.55482872 20.75886185 96.61857668 16.94389758 96.68359375 13.12890625 C96.70030624 11.93100967 96.71701874 10.7331131 96.73423767 9.49891663 C96.75418289 8.3978508 96.77412811 7.29678497 96.79467773 6.16235352 C96.81022202 5.18750504 96.8257663 4.21265656 96.84178162 3.20826721 C97 1 97 1 98 0 C100.5 -0.125 100.5 -0.125 103 0 C104.84797201 1.84797201 104.12775947 4.86796077 104.12939453 7.33984375 C104.13202301 8.33251755 104.13202301 8.33251755 104.13470459 9.34524536 C104.13912217 11.5426899 104.13618547 13.74005458 104.1328125 15.9375 C104.13348557 17.45825211 104.13445561 18.97900412 104.13571167 20.49975586 C104.13718851 23.69092836 104.13503452 26.88207292 104.13037109 30.07324219 C104.1246738 34.1726453 104.12795288 38.27198296 104.13394356 42.37138367 C104.13754954 45.51282244 104.13641042 48.65424558 104.13381577 51.79568481 C104.1331466 53.30762744 104.13397457 54.81957146 104.13629532 56.33151245 C104.13882245 58.44109887 104.13498044 60.55057787 104.12939453 62.66015625 C104.12859894 63.86293213 104.12780334 65.06570801 104.12698364 66.30493164 C104 69 104 69 103 70 C100.63305664 70.2734375 100.63305664 70.2734375 98 70 C96.33764648 68.6015625 96.33764648 68.6015625 94.87109375 66.625 C94.31744141 65.89539063 93.76378906 65.16578125 93.19335938 64.4140625 C92.61392578 63.61742187 92.03449219 62.82078125 91.4375 62 C90.82326172 61.18273437 90.20902344 60.36546875 89.57617188 59.5234375 C87.70307309 57.02597245 85.8508471 54.51397946 84 52 C82.48464101 49.97147164 80.96416168 47.94687243 79.44311523 45.92260742 C78.48080315 44.64055571 77.52067774 43.35685976 76.56274414 42.0715332 C71.97864299 35.92799514 67.27083441 29.88293048 62.54296875 23.84960938 C61.97964844 23.12966797 61.41632812 22.40972656 60.8359375 21.66796875 C60.33626465 21.03141357 59.8365918 20.3948584 59.32177734 19.73901367 C58.15444687 18.20320005 57.07006598 16.60509897 56 15 C55.98969254 15.65954681 55.97938507 16.31909363 55.96876526 16.99862671 C55.86084621 23.8439149 55.74623661 30.68906754 55.62768555 37.53417969 C55.58428978 40.09111707 55.5426182 42.64808431 55.50268555 45.20507812 C55.44509531 48.87378959 55.38136862 52.54235011 55.31640625 56.2109375 C55.29969376 57.35992523 55.28298126 58.50891296 55.26576233 59.69271851 C55.24581711 60.7536673 55.22587189 61.81461609 55.20532227 62.90771484 C55.18977798 63.84481293 55.1742337 64.78191101 55.15821838 65.74740601 C55 68 55 68 54 70 C51.765625 70.296875 51.765625 70.296875 49 70 C46.859375 68.015625 46.859375 68.015625 44.75 65.25 C43.96625 64.23679687 43.1825 63.22359375 42.375 62.1796875 C41.59125 61.13039063 40.8075 60.08109375 40 59 C38.948125 57.61167969 38.948125 57.61167969 37.875 56.1953125 C36.41116572 54.25250304 34.95454309 52.30424583 33.50390625 50.3515625 C30.12504737 45.8107493 26.66995779 41.32798653 23.21972656 36.84130859 C17.41570482 29.27595078 11.71434991 21.63314327 6 14 C5.9845388 15.03023537 5.9845388 15.03023537 5.96876526 16.08128357 C5.86094405 23.20215857 5.74632717 30.32290074 5.62768555 37.44360352 C5.5842582 40.10438265 5.5425891 42.76519107 5.50268555 45.42602539 C5.44517128 49.24113815 5.38142332 53.05610242 5.31640625 56.87109375 C5.29133751 58.66793861 5.29133751 58.66793861 5.26576233 60.50108337 C5.24581711 61.6021492 5.22587189 62.70321503 5.20532227 63.83764648 C5.18977798 64.81249496 5.1742337 65.78734344 5.15821838 66.79173279 C5 69 5 69 4 70 C2.33382885 70.04063832 0.66611905 70.042721 -1 70 C-2.40034018 67.19931963 -2.13498646 64.87905422 -2.14526367 61.74609375 C-2.15164352 60.43133057 -2.15802338 59.11656738 -2.16459656 57.76196289 C-2.166125 56.32047563 -2.16723908 54.87898788 -2.16796875 53.4375 C-2.17118055 51.96541308 -2.17454456 50.49332648 -2.17805481 49.02124023 C-2.18404683 45.93440002 -2.18589459 42.84758781 -2.18530273 39.76074219 C-2.185201 35.79929862 -2.19886468 31.83803383 -2.21607494 27.87663269 C-2.22717487 24.83637664 -2.22922258 21.79616413 -2.22869301 18.75588989 C-2.22987572 17.29500715 -2.23431373 15.83412337 -2.24202538 14.3732605 C-2.25178623 12.33349908 -2.24769314 10.29368544 -2.24291992 8.25390625 C-2.24434494 7.09189697 -2.24576996 5.9298877 -2.24723816 4.73266602 C-2 2 -2 2 0 0 Z" fill="#413F40" transform="translate(502,696)"/>
<path style="visibility: visible;" data-index="8" d="M0 0 C7.73412577 5.24480189 13.94376881 12.61716048 15.875 21.875 C17.11917836 32.82543591 16.61885136 43.5378627 9.81640625 52.625 C2.46160865 61.15805354 -4.74720793 66.05524533 -15.9921875 67.3046875 C-27.76132937 68.02571654 -36.32801255 65.41368439 -45.59375 57.86328125 C-52.90957139 50.47921525 -56.33812955 41.03952331 -56.6875 30.75 C-56.23928897 20.12268069 -52.63425885 11.45816888 -45.125 3.875 C-42.27889777 1.53566777 -39.35668827 -0.36226094 -36.125 -2.125 C-35.51140625 -2.4653125 -34.8978125 -2.805625 -34.265625 -3.15625 C-23.52335071 -8.11422275 -9.98273013 -5.59110273 0 0 Z M-43.72265625 12.890625 C-48.93679169 20.26884451 -50.09336055 28.01165281 -49.125 36.875 C-46.60164167 46.64839764 -41.72805892 52.6404296 -33.328125 58.02734375 C-26.35385955 61.37560836 -15.9916678 61.06913608 -8.59375 59.25390625 C-1.25805029 55.97904031 5.35640516 49.098001 8.24609375 41.62109375 C10.29776947 32.66253454 10.23212692 23.0118782 5.41796875 14.98828125 C0.77757623 8.63270567 -4.29164071 3.74532455 -12.125 1.875 C-25.11020402 0.4530665 -35.22289802 2.25092764 -43.72265625 12.890625 Z" fill="#403F3F" transform="translate(668.125,700.125)"/>
<path style="visibility: visible;" data-index="9" d="M0 0 C8.83119299 5.69577719 14.18087943 13.17072031 16.875 23.375 C18.22306966 34.63256418 16.58831724 44.43966748 10 53.75 C4.15907701 60.88728744 -2.51997696 64.50665899 -11.125 67.375 C-23.76134974 68.1976439 -33.22730906 67.65852253 -43.375 59.375 C-50.95138952 52.15655014 -54.56451696 43.61533826 -55.36328125 33.296875 C-55.62391235 22.15832477 -52.77937522 13.59636598 -45.125 5.375 C-32.61415666 -6.27302656 -14.95228896 -8.27434938 0 0 Z M-43.49609375 14.0703125 C-48.79966134 21.57416113 -49.03860473 29.3323895 -48.125 38.375 C-46.03743216 46.71284535 -40.21630229 53.59970684 -33.1875 58.375 C-25.99194393 62.03459553 -15.33017658 61.7077045 -7.6875 59.375 C-0.6575922 56.05488833 5.01797862 50.3707646 8.21875 43.33203125 C10.72211145 35.86664979 11.30709982 26.99632263 8.3125 19.625 C4.53120982 12.35227464 -0.564967 6.61816749 -8.12109375 3.2265625 C-22.05470585 -0.72340816 -34.37594824 2.83134531 -43.49609375 14.0703125 Z" fill="#403E3F" transform="translate(911.125,699.625)"/>
<path style="visibility: visible;" data-index="10" d="M0 0 C3.99563089 1.55800859 5.78531572 4.59123961 8.15234375 7.99609375 C9.21429958 9.46878101 10.27817573 10.94008501 11.34375 12.41015625 C11.89562988 13.1774707 12.44750977 13.94478516 13.01611328 14.73535156 C15.78263316 18.51893925 18.6902758 22.18915428 21.58984375 25.87109375 C26.65561892 32.34915423 31.63026933 38.8895204 36.52734375 45.49609375 C37.13239746 46.30731689 37.73745117 47.11854004 38.36083984 47.9543457 C38.91723145 48.7093335 39.47362305 49.46432129 40.046875 50.2421875 C40.53905518 50.90790771 41.03123535 51.57362793 41.53833008 52.25952148 C42.71484375 54.05859375 42.71484375 54.05859375 43.71484375 57.05859375 C44.37484375 57.05859375 45.03484375 57.05859375 45.71484375 57.05859375 C45.71484375 38.57859375 45.71484375 20.09859375 45.71484375 1.05859375 C47.36484375 0.72859375 49.01484375 0.39859375 50.71484375 0.05859375 C53.48039305 2.82414305 52.96832976 4.43979162 52.97363281 8.3125 C52.97993713 9.62726318 52.98624146 10.94202637 52.99273682 12.29663086 C52.98915715 13.73811985 52.98505521 15.17960762 52.98046875 16.62109375 C52.98181543 18.09318099 52.98375598 19.5652678 52.98626709 21.03735352 C52.98921824 24.12422923 52.98492107 27.21098928 52.97558594 30.29785156 C52.96419131 34.25931504 52.97075084 38.22050753 52.98273087 42.18196106 C52.98994975 45.22222952 52.98766143 48.26243348 52.98247528 51.30270386 C52.98113886 52.76358065 52.98278625 54.22446325 52.98743439 55.68533325 C52.99249981 57.7251169 52.98341354 59.76492101 52.97363281 61.8046875 C52.97204163 62.96669678 52.97045044 64.12870605 52.96881104 65.32592773 C52.71484375 68.05859375 52.71484375 68.05859375 50.71484375 70.05859375 C48.40234375 70.05859375 48.40234375 70.05859375 45.71484375 69.05859375 C43.84167976 67.08937007 42.30251972 65.23784376 40.71484375 63.05859375 C40.24264404 62.43412354 39.77044434 61.80965332 39.28393555 61.16625977 C38.27039633 59.82464041 37.26233705 58.47886682 36.25927734 57.12939453 C34.23732347 54.41832708 32.17474723 51.73958479 30.11254883 49.05908203 C27.92080327 46.20674105 25.74208578 43.34454741 23.5625 40.48291016 C21.51134691 37.79158482 19.45693746 35.10276202 17.40234375 32.4140625 C15.94394031 30.50395978 14.48560602 28.59380425 13.02734375 26.68359375 C12.33165283 25.77343506 11.63596191 24.86327637 10.91918945 23.92553711 C10.27038818 23.07483643 9.62158691 22.22413574 8.953125 21.34765625 C8.37602783 20.59178223 7.79893066 19.8359082 7.2043457 19.05712891 C5.99004294 17.42784151 4.8420061 15.74933727 3.71484375 14.05859375 C3.69938255 15.08882912 3.69938255 15.08882912 3.68360901 16.13987732 C3.5757878 23.26075232 3.46117092 30.38149449 3.3425293 37.50219727 C3.29910195 40.1629764 3.25743285 42.82378482 3.2175293 45.48461914 C3.16001503 49.2997319 3.09626707 53.11469617 3.03125 56.9296875 C3.00618126 58.72653236 3.00618126 58.72653236 2.98060608 60.55967712 C2.96066086 61.66074295 2.94071564 62.76180878 2.92016602 63.89624023 C2.90462173 64.87108871 2.88907745 65.84593719 2.87306213 66.85032654 C2.71484375 69.05859375 2.71484375 69.05859375 1.71484375 70.05859375 C-0.78515625 70.18359375 -0.78515625 70.18359375 -3.28515625 70.05859375 C-5.11997642 68.22377358 -4.42248529 65.28685493 -4.43041992 62.82641602 C-4.43377853 62.17599335 -4.43713715 61.52557068 -4.44059753 60.85543823 C-4.45013293 58.69527298 -4.45205194 56.53518502 -4.453125 54.375 C-4.45633583 52.87906359 -4.45969976 51.38312751 -4.46321106 49.88719177 C-4.46920884 46.74729687 -4.4710503 43.60742952 -4.47045898 40.4675293 C-4.47035733 36.43767693 -4.48400957 32.40800065 -4.50123119 28.37819004 C-4.51233228 25.28731978 -4.51437878 22.19649233 -4.51384926 19.10560417 C-4.51503224 17.61960175 -4.51947171 16.13359832 -4.52718163 14.64761543 C-4.53694351 12.5716724 -4.53411883 10.49611483 -4.52807617 8.42016602 C-4.52950119 7.23737564 -4.53092621 6.05458527 -4.53239441 4.83595276 C-4.2241225 1.37296886 -3.61690694 0.0927412 0 0 Z" fill="#3F3D3E" transform="translate(943.28515625,695.94140625)"/>
<path style="visibility: visible;" data-index="11" d="M0 0 C4.15117565 2.42094923 6.88676517 4.79382428 9.4375 8.875 C9.75 11.75 9.75 11.75 9.4375 13.875 C6.35490292 14.1703708 4.88252811 14.18717173 2.3046875 12.37890625 C1.64726563 11.73824219 0.98984375 11.09757813 0.3125 10.4375 C-4.89237183 5.42502616 -9.33948556 5.54279256 -16.37890625 5.58203125 C-20.66953813 5.97687467 -22.46633474 6.95084392 -25.5625 9.875 C-27.16904601 13.08809202 -27.03167159 16.38972534 -26.5625 19.875 C-23.95995484 24.55958129 -20.42531953 26.12476924 -15.5625 27.875 C-12.21888134 28.80707252 -8.83099895 29.53169322 -5.43554688 30.24804688 C0.58814057 31.63100682 5.76002222 34.08111154 9.3125 39.375 C12.34081562 44.67208629 12.50540334 49.95086468 11.4375 55.875 C9.33917745 61.29634698 6.01663203 64.94158908 1.0625 67.9375 C-6.55394337 71.23949282 -15.68308802 71.29868447 -23.6015625 68.98828125 C-28.99956496 66.53390249 -33.57442979 63.08040803 -36.5625 57.875 C-36.9375 54.9375 -36.9375 54.9375 -36.5625 52.875 C-34.0875 52.38 -34.0875 52.38 -31.5625 51.875 C-31.19898438 52.34550781 -30.83546875 52.81601562 -30.4609375 53.30078125 C-29.95820312 53.92339844 -29.45546875 54.54601562 -28.9375 55.1875 C-28.45023438 55.80238281 -27.96296875 56.41726563 -27.4609375 57.05078125 C-23.00176907 61.33562005 -18.61001618 62.28978629 -12.5625 62.25 C-11.386875 62.25773438 -10.21125 62.26546875 -9 62.2734375 C-4.44924292 61.74596338 -1.09418782 60.25351904 2.3125 57.1875 C4.54534384 52.59776543 3.8799512 48.31296639 2.4375 43.625 C-1.99153929 37.53507098 -8.66268874 36.54620682 -15.625 34.9375 C-22.43676105 33.33720752 -27.57026975 31.99722656 -31.85546875 26.09375 C-34.7057922 21.19080454 -35.52927808 16.46418577 -34.5625 10.875 C-32.78853674 5.34245209 -29.37578663 2.66696269 -24.46484375 -0.1796875 C-17.10472827 -3.83707548 -7.34924039 -3.45325753 0 0 Z" fill="#413F40" transform="translate(1043.5625,697.125)"/>
<path style="visibility: visible;" data-index="12" d="M0 0 C3.18251523 2.12167682 4.87267139 3.80900708 7 7 C7.65259097 11.81285844 7.59000641 14.74893214 4.75 18.75 C0.81069191 23.50336938 -3.68150243 27.76894393 -8.0859375 32.0859375 C-11.10570759 35.06676794 -13.88950551 38.21024329 -16.59765625 41.4765625 C-18 43 -18 43 -21 45 C-25.95 40.05 -30.9 35.1 -36 30 C-34.12633417 25.31583543 -33.05167777 23.6906573 -29.60546875 20.3125 C-28.73212891 19.44882812 -27.85878906 18.58515625 -26.95898438 17.6953125 C-25.58709961 16.36113281 -25.58709961 16.36113281 -24.1875 15 C-22.83301758 13.66582031 -22.83301758 13.66582031 -21.45117188 12.3046875 C-19.76146991 10.64105736 -18.0686965 8.98053667 -16.37182617 7.32421875 C-14.67133355 5.65785851 -12.99144945 3.97036702 -11.32543945 2.26953125 C-7.38562581 -1.57556142 -5.32003206 -1.17221045 0 0 Z" fill="#3B3A3B" transform="translate(923,550)"/>
<path style="visibility: visible; opacity: 1;" data-index="13" d="M0 0 C1.32 0 2.64 0 4 0 C10.35285387 13.63150051 16.4121219 27.39177751 22.38238525 41.19439697 C23.2104023 43.10555907 24.04157835 45.01535564 24.87591553 46.92376709 C26.06428082 49.64460842 27.24059831 52.3703611 28.4140625 55.09765625 C28.77610779 55.92085861 29.13815308 56.74406097 29.51116943 57.59220886 C32.59621275 64.82701859 32.59621275 64.82701859 32 69 C31 70 31 70 28.4375 70.0625 C27.633125 70.041875 26.82875 70.02125 26 70 C17.82617029 51.07009373 9.83555418 32.07239395 2 13 C-0.76404691 15.76404691 -1.78563809 19.07994632 -3.1953125 22.65625 C-3.50644989 23.43198364 -3.81758728 24.20771729 -4.13815308 25.00695801 C-5.13863651 27.5027246 -6.1323835 30.00109519 -7.125 32.5 C-12.15097704 45.12801962 -17.39123328 57.61869859 -23 70 C-24.65 70 -26.3 70 -28 70 C-29.19683821 65.82078802 -28.78929187 63.59575424 -27.08154297 59.6340332 C-26.6371286 58.58556717 -26.19271423 57.53710114 -25.73483276 56.4568634 C-25.24225983 55.33285629 -24.74968689 54.20884918 -24.2421875 53.05078125 C-23.49208908 51.29908882 -23.49208908 51.29908882 -22.72683716 49.51200867 C-21.66506755 47.03874465 -20.59873734 44.56817 -19.5234375 42.10083008 C-18.15755794 38.96671178 -16.80550025 35.82689582 -15.45895195 32.68443012 C-14.16197804 29.6587941 -12.85855332 26.63595246 -11.5546875 23.61328125 C-11.07425995 22.49939529 -10.5938324 21.38550934 -10.09884644 20.23786926 C-2.28108931 2.28108931 -2.28108931 2.28108931 0 0 Z" fill="#403F3F" transform="translate(754,696)"/>
<path style="visibility: visible;" data-index="14" d="M0 0 C2.39208984 0.10571289 2.39208984 0.10571289 5 1 C6.49462891 3.27124023 6.49462891 3.27124023 7.7265625 6.30859375 C8.19610352 7.436604 8.66564453 8.56461426 9.14941406 9.72680664 C9.63635742 10.95133545 10.12330078 12.17586426 10.625 13.4375 C11.14103114 14.69665119 11.65895822 15.95502692 12.17871094 17.21264648 C13.25486092 19.82167732 14.32124146 22.43441486 15.38183594 25.04980469 C16.95003619 28.90005734 18.57899256 32.72221427 20.2265625 36.5390625 C20.73493652 37.72056885 21.24331055 38.9020752 21.76708984 40.11938477 C22.74227365 42.38362863 23.71911468 44.64715959 24.69775391 46.90991211 C25.3501001 48.44143921 25.3501001 48.44143921 26.015625 50.00390625 C26.40008789 50.89924072 26.78455078 51.7945752 27.18066406 52.71704102 C28 55 28 55 28 58 C28.66 58 29.32 58 30 58 C30.17165176 57.38770538 30.34330353 56.77541077 30.52015686 56.14456177 C32.26883058 50.09155222 34.38019715 44.33772926 36.87109375 38.5546875 C37.23469498 37.69996857 37.5982962 36.84524963 37.97291565 35.96463013 C38.73602084 34.17375141 39.50166954 32.38395449 40.26977539 30.59521484 C41.43654926 27.87721475 42.59488291 25.15573691 43.75195312 22.43359375 C44.49950781 20.68208152 45.24753861 18.9307724 45.99609375 17.1796875 C46.33789169 16.37739716 46.67968964 15.57510681 47.03184509 14.74850464 C49.18742575 9.73779565 51.51900497 4.85813928 54 0 C56.475 0.495 56.475 0.495 59 1 C58.45733533 5.9033215 57.41615198 9.94927916 55.48046875 14.48046875 C55.09823654 15.38479393 55.09823654 15.38479393 54.70828247 16.30738831 C53.87600072 18.27093213 53.03201317 20.2291896 52.1875 22.1875 C51.60438473 23.55537561 51.02195584 24.923544 50.44018555 26.29199219 C49.23796233 29.11581737 48.03067906 31.93739957 46.81933594 34.75732422 C45.3314101 38.2226278 43.85503293 41.69267394 42.38414001 45.16523743 C41.29038528 47.74719219 40.19356716 50.32783684 39.09585571 52.90811157 C38.32422965 54.72242032 37.55407118 56.53735301 36.78393555 58.35229492 C36.31511963 59.44775635 35.84630371 60.54321777 35.36328125 61.671875 C34.95376221 62.6319043 34.54424316 63.59193359 34.12231445 64.58105469 C33 67 33 67 31 70 C28.65454102 69.78637695 28.65454102 69.78637695 26 69 C24.61303711 67.03588867 24.61303711 67.03588867 23.52734375 64.41796875 C23.108479 63.43642822 22.68961426 62.4548877 22.25805664 61.44360352 C21.82227295 60.36908936 21.38648926 59.2945752 20.9375 58.1875 C20.23838501 56.53028931 20.23838501 56.53028931 19.52514648 54.83959961 C18.5259462 52.46942287 17.53443189 50.09599428 16.54980469 47.71972656 C14.98649813 43.95194162 13.37722478 40.20489065 11.7578125 36.4609375 C8.81538158 29.65028439 5.88470912 22.83533865 3 16 C2.59249512 15.05624512 2.18499023 14.11249023 1.76513672 13.14013672 C1.39791504 12.26760254 1.03069336 11.39506836 0.65234375 10.49609375 C0.33128662 9.74384521 0.01022949 8.99159668 -0.32055664 8.21655273 C-1.09430594 5.69234507 -1.19080715 3.62605717 -1 1 C-0.67 0.67 -0.34 0.34 0 0 Z" fill="#403E3F" transform="translate(681,696)"/>
<path style="visibility: visible;" data-index="15" d="M0 0 C0.95708359 0.00222061 1.91416718 0.00444122 2.9002533 0.00672913 C3.98129837 0.00680466 5.06234344 0.00688019 6.17614746 0.00695801 C7.94018166 0.01469994 7.94018166 0.01469994 9.73985291 0.02259827 C10.93702438 0.02401321 12.13419586 0.02542816 13.36764526 0.02688599 C17.20918732 0.03250472 21.05067208 0.04506041 24.89219666 0.05775452 C27.48920102 0.0627671 30.0862063 0.06733043 32.68321228 0.07142639 C39.06539344 0.08248024 45.44754096 0.0992366 51.82969666 0.12025452 C52.21188433 1.77640109 52.54364767 3.44482476 52.82969666 5.12025452 C51.82969666 6.12025452 51.82969666 6.12025452 49.60484314 6.23377991 C48.64650574 6.22854309 47.68816833 6.22330627 46.70079041 6.21791077 C45.14908142 6.21307678 45.14908142 6.21307678 43.56602478 6.20814514 C42.4774115 6.19976624 41.38879822 6.19138733 40.26719666 6.18275452 C38.62847595 6.17598694 38.62847595 6.17598694 36.95664978 6.16908264 C34.2476117 6.15725278 31.53868066 6.14076995 28.82969666 6.12025452 C28.83413788 6.89255402 28.8385791 7.66485352 28.84315491 8.46055603 C28.8831867 15.72970089 28.91365809 22.9987925 28.933321 30.26801872 C28.94376963 34.00543281 28.95794836 37.74275602 28.98057556 41.4801178 C29.0022657 45.08515952 29.01425714 48.69011368 29.01945114 52.29521561 C29.02315381 53.67237349 29.030384 55.04952646 29.04115677 56.42664719 C29.05562 58.35164997 29.05651313 60.27674039 29.05674744 62.20179749 C29.06118866 63.2987796 29.06562988 64.39576172 29.07020569 65.52598572 C28.82969666 68.12025452 28.82969666 68.12025452 26.82969666 70.12025452 C25.17969666 69.79025452 23.52969666 69.46025452 21.82969666 69.12025452 C21.82969666 48.33025452 21.82969666 27.54025452 21.82969666 6.12025452 C13.90969666 6.12025452 5.98969666 6.12025452 -2.17030334 6.12025452 C-2.50030334 4.47025452 -2.83030334 2.82025452 -3.17030334 1.12025452 C-2.17030334 0.12025452 -2.17030334 0.12025452 0 0 Z" fill="#3E3C3D" transform="translate(778.1703033447266,695.8797454833984)"/>
<path style="visibility: visible;" data-index="16" d="M0 0 C5.91616165 0.07017985 10.44713761 0.383294 14.87109375 4.71484375 C19.04654192 9.55268597 19.67523848 12.50842555 19.5859375 18.71484375 C19.16719875 23.74746316 17.07022492 26.82688017 13.375 30.0625 C9.01218813 33.24371699 6.03258421 33.38671305 0.75 33.375 C-0.41789062 33.37757813 -1.58578125 33.38015625 -2.7890625 33.3828125 C-5.625 33.25 -5.625 33.25 -6.625 32.25 C-6.7252093 29.97052208 -6.75581303 27.68792865 -6.7578125 25.40625 C-6.75876923 24.72195923 -6.75972595 24.03766846 -6.76071167 23.3326416 C-6.7613933 21.88338123 -6.75954023 20.43411782 -6.75537109 18.98486328 C-6.75002252 16.75937072 -6.7553166 14.53407999 -6.76171875 12.30859375 C-6.76105797 10.90364539 -6.7597768 9.49869715 -6.7578125 8.09375 C-6.75668457 6.80662109 -6.75555664 5.51949219 -6.75439453 4.19335938 C-6.53430076 -0.81315098 -4.52554427 0.06737783 0 0 Z" fill="#424141" transform="translate(1126.625,733.75)"/>
<path style="visibility: visible;" data-index="17" d="M0 0 C2.5 0.125 2.5 0.125 3.5 1.125 C3.59948193 3.23637901 3.62799638 5.35112286 3.62939453 7.46484375 C3.63114685 8.12662628 3.63289917 8.78840881 3.63470459 9.47024536 C3.63912217 11.6676899 3.63618547 13.86505458 3.6328125 16.0625 C3.63348557 17.58325211 3.63445561 19.10400412 3.63571167 20.62475586 C3.63718851 23.81592836 3.63503452 27.00707292 3.63037109 30.19824219 C3.6246738 34.2976453 3.62795288 38.39698296 3.63394356 42.49638367 C3.63754954 45.63782244 3.63641042 48.77924558 3.63381577 51.92068481 C3.6331466 53.43262744 3.63397457 54.94457146 3.63629532 56.45651245 C3.63882245 58.56609887 3.63498044 60.67557787 3.62939453 62.78515625 C3.62859894 63.98793213 3.62780334 65.19070801 3.62698364 66.42993164 C3.5 69.125 3.5 69.125 2.5 70.125 C0.25 70.5625 0.25 70.5625 -2.5 70.125 C-5.78260305 67.35302409 -7.30076826 65.79854663 -7.8125 61.5 C-7.8125 59.02180692 -7.71946888 56.59280567 -7.5 54.125 C-6.51 54.785 -5.52 55.445 -4.5 56.125 C-4.48969254 55.43817642 -4.47938507 54.75135284 -4.46876526 54.04371643 C-4.36094405 46.92284143 -4.24632717 39.80209926 -4.12768555 32.68139648 C-4.0842582 30.02061735 -4.0425891 27.35980893 -4.00268555 24.69897461 C-3.94517128 20.88386185 -3.88142332 17.06889758 -3.81640625 13.25390625 C-3.79969376 12.05600967 -3.78298126 10.8581131 -3.76576233 9.62391663 C-3.74581711 8.5228508 -3.72587189 7.42178497 -3.70532227 6.28735352 C-3.68977798 5.31250504 -3.6742337 4.33765656 -3.65821838 3.33326721 C-3.43200462 0.17598286 -3.18144357 0.15907218 0 0 Z" fill="#393839" transform="translate(602.5,695.875)"/>
<path style="visibility: visible; opacity: 1;" data-index="18" d="M0 0 C4.70588235 0.70588235 4.70588235 0.70588235 6 2 C6.10465469 4.04468974 6.13856044 6.09302554 6.14526367 8.14038086 C6.15483345 10.11263893 6.15483345 10.11263893 6.16459656 12.1247406 C6.16612511 13.57144128 6.16723914 15.01814245 6.16796875 16.46484375 C6.1711796 17.93835992 6.17454354 19.41187576 6.17805481 20.88539124 C6.18405252 23.9782078 6.18589406 27.07099639 6.18530273 30.16381836 C6.18520108 34.13313768 6.19885321 38.10227822 6.21607494 42.07155514 C6.22717637 45.11610238 6.22922252 48.16060617 6.22869301 51.20517159 C6.22987594 52.66884541 6.23431516 54.13252025 6.24202538 55.59617424 C6.2517872 57.64083442 6.24769288 59.6855467 6.24291992 61.73022461 C6.24434494 62.89525009 6.24576996 64.06027557 6.24723816 65.26060486 C6 68 6 68 4 70 C1.75 70.125 1.75 70.125 -1 69 C-3.36239264 66.56140114 -5.43658615 64.02103278 -7 61 C-6.67 60.01 -6.34 59.02 -6 58 C-4.35 58.33 -2.7 58.66 -1 59 C-1.00222061 58.27559219 -1.00444122 57.55118439 -1.00672913 56.80482483 C-1.02673227 49.99156547 -1.04197425 43.17831047 -1.05181217 36.36502934 C-1.05703989 32.86191115 -1.0641355 29.35881715 -1.07543945 25.85571289 C-1.08834206 21.83219159 -1.09322912 17.80869586 -1.09765625 13.78515625 C-1.10539818 11.88987938 -1.10539818 11.88987938 -1.11329651 9.95631409 C-1.11337204 8.795186 -1.11344757 7.63405792 -1.11352539 6.43774414 C-1.115746 5.40960098 -1.11796661 4.38145782 -1.12025452 3.32215881 C-1 1 -1 1 0 0 Z" fill="#454344" transform="translate(990,696)"/>
<path style="visibility: visible;" data-index="19" d="M0 0 C1.66611905 -0.042721 3.33382885 -0.04063832 5 0 C6.84797201 1.84797201 6.12775947 4.86796077 6.12939453 7.33984375 C6.13114685 8.00162628 6.13289917 8.66340881 6.13470459 9.34524536 C6.13912217 11.5426899 6.13618547 13.74005458 6.1328125 15.9375 C6.13348557 17.45825211 6.13445561 18.97900412 6.13571167 20.49975586 C6.13718851 23.69092836 6.13503452 26.88207292 6.13037109 30.07324219 C6.1246738 34.1726453 6.12795288 38.27198296 6.13394356 42.37138367 C6.13754954 45.51282244 6.13641042 48.65424558 6.13381577 51.79568481 C6.1331466 53.30762744 6.13397457 54.81957146 6.13629532 56.33151245 C6.13882245 58.44109887 6.13498044 60.55057787 6.12939453 62.66015625 C6.12859894 63.86293213 6.12780334 65.06570801 6.12698364 66.30493164 C6 69 6 69 5 70 C2.5 70.125 2.5 70.125 0 70 C-1.83489179 68.16510821 -1.12773894 65.22749337 -1.12939453 62.76782227 C-1.13114685 62.1173996 -1.13289917 61.46697693 -1.13470459 60.79684448 C-1.13912267 58.63667163 -1.13618495 56.47658 -1.1328125 54.31640625 C-1.13348563 52.82047001 -1.13445574 51.32453388 -1.13571167 49.82859802 C-1.13718865 46.68869997 -1.1350344 43.54883031 -1.13037109 40.40893555 C-1.12467871 36.37913275 -1.12794969 32.34939663 -1.13394356 28.31959629 C-1.13755336 25.22872921 -1.13640856 22.13787798 -1.13381577 19.04701042 C-1.1331474 17.5610141 -1.13397176 16.07501634 -1.13629532 14.58902168 C-1.13882816 12.51316631 -1.13497209 10.43741953 -1.12939453 8.36157227 C-1.12859894 7.17878189 -1.12780334 5.99599152 -1.12698364 4.77735901 C-1 2 -1 2 0 0 Z" fill="#393838" transform="translate(838,696)"/>
<path style="visibility: visible;" data-index="20" d="M0 0 C2.5 0.125 2.5 0.125 3.5 1.125 C3.59943852 3.20045952 3.62799595 5.27933792 3.62939453 7.35717773 C3.63114685 8.0076004 3.63289917 8.65802307 3.63470459 9.32815552 C3.63912267 11.48832837 3.63618495 13.64842 3.6328125 15.80859375 C3.63348563 17.30452999 3.63445574 18.80046612 3.63571167 20.29640198 C3.63718865 23.43630003 3.6350344 26.57616969 3.63037109 29.71606445 C3.62467871 33.74586725 3.62794969 37.77560337 3.63394356 41.80540371 C3.63755336 44.89627079 3.63640856 47.98712202 3.63381577 51.07798958 C3.6331474 52.5639859 3.63397176 54.04998366 3.63629532 55.53597832 C3.63882816 57.61183369 3.63497209 59.68758047 3.62939453 61.76342773 C3.62859894 62.94621811 3.62780334 64.12900848 3.62698364 65.34764099 C3.5 68.125 3.5 68.125 2.5 70.125 C0.83388095 70.167721 -0.83382885 70.16563832 -2.5 70.125 C-4.34797201 68.27702799 -3.62775947 65.25703923 -3.62939453 62.78515625 C-3.63202301 61.79248245 -3.63202301 61.79248245 -3.63470459 60.77975464 C-3.63912217 58.5823101 -3.63618547 56.38494542 -3.6328125 54.1875 C-3.63348557 52.66674789 -3.63445561 51.14599588 -3.63571167 49.62524414 C-3.63718851 46.43407164 -3.63503452 43.24292708 -3.63037109 40.05175781 C-3.6246738 35.9523547 -3.62795288 31.85301704 -3.63394356 27.75361633 C-3.63754954 24.61217756 -3.63641042 21.47075442 -3.63381577 18.32931519 C-3.6331466 16.81737256 -3.63397457 15.30542854 -3.63629532 13.79348755 C-3.63882245 11.68390113 -3.63498044 9.57442213 -3.62939453 7.46484375 C-3.62859894 6.26206787 -3.62780334 5.05929199 -3.62698364 3.82006836 C-3.45513311 0.17275666 -3.45513311 0.17275666 0 0 Z" fill="#3B393A" transform="translate(485.5,695.875)"/>
<path style="visibility: visible;" data-index="21" d="M0 0 C5.52703135 0.03943185 8.25804356 0.57813223 12.3125 4.3125 C14.78611688 8.02292531 14.85857278 11.01112675 14.3125 15.3125 C12.63764788 19.16465988 11.16962965 20.76964814 7.3125 22.3125 C4.28457178 22.56315631 1.35808972 22.40207617 -1.6875 22.3125 C-1.6875 25.6125 -1.6875 28.9125 -1.6875 32.3125 C-3.6675 32.8075 -3.6675 32.8075 -5.6875 33.3125 C-7.59599948 31.40400052 -6.81809633 27.99771226 -6.8203125 25.46875 C-6.82126923 24.78445923 -6.82222595 24.10016846 -6.82321167 23.3951416 C-6.8238933 21.94588123 -6.82204023 20.49661782 -6.81787109 19.04736328 C-6.81252252 16.82187072 -6.8178166 14.59657999 -6.82421875 12.37109375 C-6.82355797 10.96614539 -6.8222768 9.56119715 -6.8203125 8.15625 C-6.81918457 6.86912109 -6.81805664 5.58199219 -6.81689453 4.25585938 C-6.59648217 -0.75789799 -4.53982787 0.10609684 0 0 Z" fill="#414040" transform="translate(1075.6875,694.6875)"/>
<path style="visibility: visible;" data-index="22" d="M0 0 C0.83265381 0.00523682 1.66530762 0.01047363 2.52319336 0.01586914 C3.42231445 0.0190918 4.32143555 0.02231445 5.24780273 0.02563477 C6.66609375 0.03820312 6.66609375 0.03820312 8.11303711 0.05102539 C9.06243164 0.05553711 10.01182617 0.06004883 10.98999023 0.06469727 C13.34356776 0.07652429 15.69702188 0.09300514 18.05053711 0.11352539 C18.61303711 2.05102539 18.61303711 2.05102539 19.05053711 4.11352539 C18.05053711 5.11352539 18.05053711 5.11352539 14.45288086 5.21118164 C12.96456844 5.20450759 11.47627279 5.19254722 9.98803711 5.17602539 C9.22942383 5.17151367 8.47081055 5.16700195 7.68920898 5.16235352 C5.8096184 5.15053219 3.93006812 5.13259617 2.05053711 5.11352539 C2.05053711 8.08352539 2.05053711 11.05352539 2.05053711 14.11352539 C5.68053711 14.11352539 9.31053711 14.11352539 13.05053711 14.11352539 C13.71053711 15.43352539 14.37053711 16.75352539 15.05053711 18.11352539 C14.05053711 19.11352539 14.05053711 19.11352539 11.10913086 19.21118164 C9.91416992 19.19958008 8.71920898 19.18797852 7.48803711 19.17602539 C5.69172852 19.16249023 5.69172852 19.16249023 3.85913086 19.14868164 C2.93229492 19.13708008 2.00545898 19.12547852 1.05053711 19.11352539 C1.05053711 22.41352539 1.05053711 25.71352539 1.05053711 29.11352539 C6.99053711 29.11352539 12.93053711 29.11352539 19.05053711 29.11352539 C19.05053711 30.43352539 19.05053711 31.75352539 19.05053711 33.11352539 C15.5713877 33.14240353 12.0922688 33.16028226 8.61303711 33.17602539 C7.12320312 33.18859375 7.12320312 33.18859375 5.60327148 33.20141602 C4.6590332 33.20463867 3.71479492 33.20786133 2.74194336 33.21118164 C1.86739502 33.21641846 0.99284668 33.22165527 0.09179688 33.22705078 C-1.94946289 33.11352539 -1.94946289 33.11352539 -2.94946289 32.11352539 C-3.04967219 29.83404748 -3.08027592 27.55145404 -3.08227539 25.26977539 C-3.08323212 24.58548462 -3.08418884 23.90119385 -3.08517456 23.19616699 C-3.08585619 21.74690662 -3.08400312 20.29764321 -3.07983398 18.84838867 C-3.07448541 16.62289611 -3.07977949 14.39760538 -3.08618164 12.17211914 C-3.08552086 10.76717078 -3.08423969 9.36222254 -3.08227539 7.95727539 C-3.08114746 6.67014648 -3.08001953 5.38301758 -3.07885742 4.05688477 C-2.90795518 0.16934241 -2.90795518 0.16934241 0 0 Z" fill="#3C3B3C" transform="translate(1122.949462890625,694.886474609375)"/>
<path style="visibility: visible;" data-index="23" d="M0 0 C9.2 0 9.2 0 14 4 C16.9657349 8.44860234 16.64087636 12.78143535 16 18 C14.19881522 21.00197464 13.09667268 22.45166366 10 24 C6.7 24 3.4 24 0 24 C0 16.08 0 8.16 0 0 Z" fill="#FBFBFB" transform="translate(1125,738)"/>
<path style="visibility: visible; opacity: 1;" data-index="24" d="M0 0 C1.98 0.495 1.98 0.495 4 1 C4 9.91 4 18.82 4 28 C9.28 28 14.56 28 20 28 C20.33 29.32 20.66 30.64 21 32 C19.41062444 33.58937556 17.76100154 33.12981143 15.5625 33.1328125 C14.22058594 33.13474609 14.22058594 33.13474609 12.8515625 33.13671875 C11.91054687 33.13285156 10.96953125 33.12898437 10 33.125 C8.58847656 33.13080078 8.58847656 33.13080078 7.1484375 33.13671875 C6.25382812 33.13542969 5.35921875 33.13414062 4.4375 33.1328125 C3.61121094 33.13168457 2.78492188 33.13055664 1.93359375 33.12939453 C0 33 0 33 -1 32 C-1.1002093 29.72052208 -1.13081303 27.43792865 -1.1328125 25.15625 C-1.13376923 24.47195923 -1.13472595 23.78766846 -1.13571167 23.0826416 C-1.1363933 21.63338123 -1.13454023 20.18411782 -1.13037109 18.73486328 C-1.12502252 16.50937072 -1.1303166 14.28407999 -1.13671875 12.05859375 C-1.13605797 10.65364539 -1.1347768 9.24869715 -1.1328125 7.84375 C-1.13168457 6.55662109 -1.13055664 5.26949219 -1.12939453 3.94335938 C-1 1 -1 1 0 0 Z" fill="#4E4D4D" transform="translate(1071,734)"/>
<path style="visibility: visible;" data-index="25" d="M0 0 C7.92 0 15.84 0 24 0 C24.33 1.32 24.66 2.64 25 4 C21.37 4 17.74 4 14 4 C14 13.57 14 23.14 14 33 C12.68 33 11.36 33 10 33 C10 23.43 10 13.86 10 4 C6.37 4 2.74 4 -1 4 C-0.67 2.68 -0.34 1.36 0 0 Z" fill="#3A3839" transform="translate(1092,695)"/>
<path style="visibility: visible;" data-index="26" d="M0 0 C8.25 0 16.5 0 25 0 C25 1.32 25 2.64 25 4 C21.37 4 17.74 4 14 4 C14 13.24 14 22.48 14 32 C12.68 32 11.36 32 10 32 C10 22.76 10 13.52 10 4 C6.37 4 2.74 4 -1 4 C-0.67 2.68 -0.34 1.36 0 0 Z" fill="#3A3839" transform="translate(1092,734)"/>
<path style="visibility: visible;" data-index="27" d="M0 0 C0.33 0 0.66 0 1 0 C2.17989698 5.02439462 2.35284499 10.07307316 2.60546875 15.20507812 C2.78494943 19.08156589 2.78494943 19.08156589 3.51147461 22.87963867 C4.11863606 25.51491962 4.11203872 27.93671997 4.09765625 30.640625 C4.09282227 32.24550781 4.09282227 32.24550781 4.08789062 33.8828125 C4.07951172 34.99398437 4.07113281 36.10515625 4.0625 37.25 C4.05798828 38.37664062 4.05347656 39.50328125 4.04882812 40.6640625 C4.03705397 43.44276217 4.0206084 46.22135409 4 49 C4.66 49 5.32 49 6 49 C6.02505615 49.70608398 6.0501123 50.41216797 6.07592773 51.13964844 C6.19207369 54.34327509 6.31471603 57.54662118 6.4375 60.75 C6.47681641 61.86117187 6.51613281 62.97234375 6.55664062 64.1171875 C6.59853516 65.18710937 6.64042969 66.25703125 6.68359375 67.359375 C6.72025146 68.34389648 6.75690918 69.32841797 6.79467773 70.34277344 C6.91787031 72.90961358 6.91787031 72.90961358 7.5 74.98632812 C8.15491053 77.62387797 8.21944497 80.14445913 8.31640625 82.859375 C8.37924805 84.53193359 8.37924805 84.53193359 8.44335938 86.23828125 C8.48267578 87.39714844 8.52199219 88.55601562 8.5625 89.75 C8.60568359 90.92433594 8.64886719 92.09867187 8.69335938 93.30859375 C8.79934794 96.20561451 8.90141638 99.10271935 9 102 C9.33 100.35 9.66 98.7 10 97 C10.33 97 10.66 97 11 97 C10.88581333 99.58422459 10.75907638 102.16679513 10.625 104.75 C10.5940625 105.47960937 10.563125 106.20921875 10.53125 106.9609375 C10.32021472 110.82991759 9.87092234 113.62577514 8 117 C7.93006836 116.07517822 7.86013672 115.15035645 7.78808594 114.19750977 C7.50877762 110.50956363 7.22778796 106.82174704 6.94622803 103.13397217 C6.81498856 101.41414321 6.68400876 99.69429441 6.55328369 97.97442627 C5.72955795 87.15206408 4.86832474 76.33390346 3.9453125 65.51953125 C2.0889569 43.67963195 0.32949966 21.92593027 0 0 Z" fill="#F3FAE0" transform="translate(177,399)"/>
<path style="visibility: visible;" data-index="28" d="M0 0 C0.83265381 0.00523682 1.66530762 0.01047363 2.52319336 0.01586914 C3.42231445 0.0190918 4.32143555 0.02231445 5.24780273 0.02563477 C6.66609375 0.03820312 6.66609375 0.03820312 8.11303711 0.05102539 C9.06243164 0.05553711 10.01182617 0.06004883 10.98999023 0.06469727 C13.34356776 0.07652429 15.69702188 0.09300514 18.05053711 0.11352539 C18.61303711 2.05102539 18.61303711 2.05102539 19.05053711 4.11352539 C18.05053711 5.11352539 18.05053711 5.11352539 14.45288086 5.21118164 C12.96456844 5.20450759 11.47627279 5.19254722 9.98803711 5.17602539 C9.22942383 5.17151367 8.47081055 5.16700195 7.68920898 5.16235352 C5.8096184 5.15053219 3.93006812 5.13259617 2.05053711 5.11352539 C2.05053711 8.08352539 2.05053711 11.05352539 2.05053711 14.11352539 C5.68053711 14.11352539 9.31053711 14.11352539 13.05053711 14.11352539 C13.05053711 14.44352539 13.05053711 14.77352539 13.05053711 15.11352539 C8.10053711 15.11352539 3.15053711 15.11352539 -1.94946289 15.11352539 C-2.27946289 15.77352539 -2.60946289 16.43352539 -2.94946289 17.11352539 C-2.97630968 14.46762525 -2.99622646 11.82199443 -3.01196289 9.17602539 C-3.0203418 8.4212793 -3.0287207 7.6665332 -3.03735352 6.88891602 C-3.0459873 4.96358226 -3.00170622 3.03816958 -2.94946289 1.11352539 C-1.94946289 0.11352539 -1.94946289 0.11352539 0 0 Z" fill="#636162" transform="translate(1122.949462890625,694.886474609375)"/>
<path style="visibility: visible;" data-index="29" d="M0 0 C8.262 -0.486 8.262 -0.486 11.5625 1.6875 C13.30414195 4.48927182 13.64744805 5.76275975 13 9 C11.5625 11.3125 11.5625 11.3125 9 13 C5.91795866 13.33419725 3.1165708 13.18332769 0 13 C0 8.71 0 4.42 0 0 Z" fill="#EFEDEE" transform="translate(1073,700)"/>
<path style="visibility: visible;" data-index="30" d="M0 0 C0.33 0 0.66 0 1 0 C1.02464574 5.96313166 1.042834 11.92623395 1.05493164 17.8894043 C1.05997278 19.91968298 1.06680557 21.94995802 1.07543945 23.98022461 C1.08751467 26.89177347 1.09323034 29.8032745 1.09765625 32.71484375 C1.10281754 33.6283812 1.10797882 34.54191864 1.11329651 35.48313904 C1.11349168 37.65575427 1.06211805 39.82827296 1 42 C0.505 42.495 0.505 42.495 0 43 C-0.1474969 45.43445913 -0.23488535 47.84428567 -0.28125 50.28125 C-0.29965942 51.00993286 -0.31806885 51.73861572 -0.33703613 52.48937988 C-0.3959594 54.82616893 -0.44870654 57.16303173 -0.5 59.5 C-0.56745015 62.57307911 -0.64111793 65.64591316 -0.71875 68.71875 C-0.73232544 69.43228638 -0.74590088 70.14582275 -0.7598877 70.88098145 C-0.88719819 75.88719819 -0.88719819 75.88719819 -2 77 C-2.23527773 79.34987262 -2.41386417 81.70556039 -2.5625 84.0625 C-2.64628906 85.35285156 -2.73007813 86.64320313 -2.81640625 87.97265625 C-2.87699219 88.97167969 -2.93757813 89.97070312 -3 91 C-3.33 91 -3.66 91 -4 91 C-4.12180476 79.64267244 -3.76242447 68.36944871 -3.125 57.03125 C-3.03494272 55.37261967 -2.94526921 53.71396847 -2.85595703 52.05529785 C-2.6230223 47.74805616 -2.38497372 43.44111278 -2.14575195 39.13421631 C-1.90128812 34.71595229 -1.66180952 30.29741814 -1.421875 25.87890625 C-0.95271549 17.25233666 -0.47813747 8.62607662 0 0 Z" fill="#EDF6D7" transform="translate(104,581)"/>
<path style="visibility: visible;" data-index="31" d="M0 0 C0.33 0 0.66 0 1 0 C1.16619069 8.01408459 0.8977745 16.03086583 0 24 C-0.33 24.33 -0.66 24.66 -1 25 C-2.63209387 32.99470979 -3.31049691 41.06401469 -3.75390625 49.19921875 C-4 52 -4 52 -5 54 C-5.26365764 57.22614424 -5.4443034 60.44547376 -5.60546875 63.67773438 C-5.89920831 68.89920831 -5.89920831 68.89920831 -7 70 C-7.28101946 72.31952569 -7.44782625 74.63885514 -7.62109375 76.96875 C-7.74613281 77.6390625 -7.87117187 78.309375 -8 79 C-8.99 79.495 -8.99 79.495 -10 80 C-9.36996043 69.7750061 -8.10090736 59.700183 -6.6875 49.5625 C-6.46482522 47.94447581 -6.24258187 46.32639219 -6.02075195 44.70825195 C-5.68222351 42.23952283 -5.34339182 39.7708393 -5.00309753 37.30235291 C-3.87256726 29.10075492 -2.77737791 20.89458222 -1.6875 12.6875 C-1.358075 10.21223931 -1.02864814 7.73697886 -0.69921875 5.26171875 C-0.46609416 3.50781937 -0.2329991 1.75391606 0 0 Z" fill="#AAC470" transform="translate(203,386)"/>
<path style="visibility: visible;" data-index="32" d="M0 0 C0.66 0.33 1.32 0.66 2 1 C2 8.26 2 15.52 2 23 C4.31 23 6.62 23 9 23 C9.33 23.99 9.66 24.98 10 26 C8.37509046 26.02698189 6.75005367 26.04638757 5.125 26.0625 C3.76761719 26.07990234 3.76761719 26.07990234 2.3828125 26.09765625 C0 26 0 26 -2 25 C-2 17.08 -2 9.16 -2 1 C-1.34 0.67 -0.68 0.34 0 0 Z" fill="#383637" transform="translate(1122,740)"/>
<path style="visibility: visible;" data-index="33" d="M0 0 C1.66611905 -0.042721 3.33382885 -0.04063832 5 0 C6 1 6 1 6.12025452 3.70179749 C6.1169236 5.51048561 6.1169236 5.51048561 6.11352539 7.35571289 C6.11367142 8.01910172 6.11381744 8.68249054 6.1139679 9.36598206 C6.11326881 11.56823956 6.10547665 13.77041345 6.09765625 15.97265625 C6.09579206 17.49580336 6.09436816 19.01895107 6.09336853 20.542099 C6.08954346 24.55837651 6.07971328 28.57461808 6.06866455 32.59088135 C6.05845019 36.68623366 6.05387086 40.78159176 6.04882812 44.87695312 C6.038091 52.91798528 6.02101472 60.95898817 6 69 C3.89550279 65.55037837 3.75667197 62.85869569 3.77294922 58.85449219 C3.77310028 57.61350769 3.77325134 56.37252319 3.77340698 55.09393311 C3.78361939 53.7449121 3.79405136 52.39589273 3.8046875 51.046875 C3.80841951 49.6625387 3.81126559 48.27819975 3.81326294 46.89385986 C3.82088466 43.2573309 3.84052045 39.62096269 3.8626709 35.98449707 C3.88316091 32.27093683 3.89227139 28.55735052 3.90234375 24.84375 C3.92376785 17.56242686 3.95788599 10.28123599 4 3 C3.01 4.485 3.01 4.485 2 6 C1.01 5.67 0.02 5.34 -1 5 C-0.67 3.35 -0.34 1.7 0 0 Z" fill="#474546" transform="translate(600,696)"/>
<path style="visibility: visible;" data-index="34" d="M0 0 C0.66 0.99 1.32 1.98 2 3 C1.67 3.33 1.34 3.66 1 4 C0.87625 5.010625 0.7525 6.02125 0.625 7.0625 C0.13929069 10.12246866 -0.33488236 12.00688323 -1.5 14.75 C-3.23330971 19.03278953 -3.52425353 23.19362661 -3.7890625 27.77734375 C-4 30 -4 30 -5 31 C-5.18611382 33.03838951 -5.32344451 35.08131179 -5.4375 37.125 C-5.77406845 42.05952783 -6.37462698 46.34059734 -8 51 C-8.33 51 -8.66 51 -9 51 C-8.50338055 33.66798129 -5.80947904 16.37778666 0 0 Z" fill="#AFC976" transform="translate(9,509)"/>
<path style="visibility: visible;" data-index="35" d="M0 0 C2.55136963 3.82705445 3.20850346 7.42887131 4.1875 11.875 C4.37763672 12.67808594 4.56777344 13.48117187 4.76367188 14.30859375 C4.93833984 15.09105469 5.11300781 15.87351562 5.29296875 16.6796875 C5.4530542 17.38851074 5.61313965 18.09733398 5.77807617 18.82763672 C6 21 6 21 5 26 C1.7 26.66 -1.6 27.32 -5 28 C-4.34 27.34 -3.68 26.68 -3 26 C-2.71125 25.154375 -2.4225 24.30875 -2.125 23.4375 C-1.75375 22.633125 -1.3825 21.82875 -1 21 C1.0703125 20.34765625 1.0703125 20.34765625 3 20 C2.67515625 18.46279297 2.67515625 18.46279297 2.34375 16.89453125 C2.06224166 15.53390759 1.78100605 14.17322749 1.5 12.8125 C1.35691406 12.13896484 1.21382813 11.46542969 1.06640625 10.77148438 C0.31930158 7.12490207 -0.17352282 3.72351043 0 0 Z" fill="#84B570" transform="translate(376,513)"/>
<path style="visibility: visible;" data-index="36" d="M0 0 C0.33 0 0.66 0 1 0 C1.00586624 0.72218719 1.01173248 1.44437439 1.01777649 2.18844604 C1.07562604 8.98688741 1.14765773 15.78504564 1.23571491 22.58315849 C1.2804861 26.07836487 1.31972669 29.57345288 1.34643555 33.06884766 C1.3773659 37.085264 1.43215643 41.10104367 1.48828125 45.1171875 C1.49467117 46.37554413 1.5010611 47.63390076 1.50764465 48.9303894 C1.52743881 50.09144196 1.54723297 51.25249451 1.56762695 52.44873047 C1.57873001 53.47465302 1.58983307 54.50057556 1.60127258 55.55758667 C1.73285263 56.36358307 1.86443268 57.16957947 2 58 C2.99 58.66 3.98 59.32 5 60 C5.33 59.01 5.66 58.02 6 57 C6.5625 58.9375 6.5625 58.9375 7 61 C6 62 6 62 3.5 62.125 C1 62 1 62 0 61 C-0.09391296 59.09756238 -0.11743658 57.19161541 -0.11352539 55.28686523 C-0.11344986 54.0656749 -0.11337433 52.84448456 -0.11329651 51.58628845 C-0.10818911 50.24372314 -0.10297311 48.90115825 -0.09765625 47.55859375 C-0.09579199 46.19238842 -0.09436813 44.82618243 -0.09336853 43.4599762 C-0.08954394 39.85798305 -0.07971417 36.25603 -0.06866455 32.65405273 C-0.05844916 28.98096255 -0.05387064 25.30786591 -0.04882812 21.63476562 C-0.03809184 14.42315877 -0.02101614 7.211585 0 0 Z" fill="#413F40" transform="translate(837,704)"/>
<path style="visibility: visible;" data-index="37" d="M0 0 C0.33 0.99 0.66 1.98 1 3 C0.43410156 3.60328125 -0.13179687 4.2065625 -0.71484375 4.828125 C-1.44832031 5.62734375 -2.18179688 6.4265625 -2.9375 7.25 C-4.03384766 8.43335938 -4.03384766 8.43335938 -5.15234375 9.640625 C-6.97103594 11.96301419 -7.34253974 13.22800539 -8 16 C-11.44450737 18.29633824 -13.93812283 18.54016485 -18 19 C-12.44964797 12.21623641 -6.23557973 6.14477032 0 0 Z" fill="#81B56D" transform="translate(183,645)"/>
<path style="visibility: visible;" data-index="38" d="M0 0 C0.33 0 0.66 0 1 0 C2.36900047 6.75196348 3.29982504 13.39735057 3.75390625 20.2734375 C3.99224851 22.91411836 4.47107693 25.40458682 5 28 C5.28017079 30.59547107 5.5003494 33.19166165 5.71875 35.79296875 C5.881278 38.0380229 5.881278 38.0380229 7 40 C7.0716735 42.55157655 7.09308442 45.07472971 7.0625 47.625 C7.05798828 48.33140625 7.05347656 49.0378125 7.04882812 49.765625 C7.03703875 51.51045275 7.01910324 53.255237 7 55 C6.67 55 6.34 55 6 55 C5.91959473 54.27522461 5.83918945 53.55044922 5.75634766 52.80371094 C5.38258282 49.45209073 5.00381469 46.10105306 4.625 42.75 C4.43550781 41.04070313 4.43550781 41.04070313 4.2421875 39.296875 C3.48992259 32.67694378 2.58331558 26.11482989 1.44140625 19.55053711 C0.30812063 13.0021771 -0.13839793 6.64310067 0 0 Z" fill="#AEC776" transform="translate(122,585)"/>
<path style="visibility: visible;" data-index="39" d="M0 0 C2.47045803 3.81615468 2.43831912 7.84744248 2.625 12.25 C2.66367188 12.99507813 2.70234375 13.74015625 2.7421875 14.5078125 C2.83605108 16.3381524 2.91909718 18.16904143 3 20 C2.34 19.67 1.68 19.34 1 19 C0.98018066 19.71655762 0.96036133 20.43311523 0.93994141 21.17138672 C0.84490481 24.4063063 0.73513981 27.64056094 0.625 30.875 C0.5940625 32.00292969 0.563125 33.13085938 0.53125 34.29296875 C0.49257812 35.36933594 0.45390625 36.44570313 0.4140625 37.5546875 C0.36693115 39.04718018 0.36693115 39.04718018 0.31884766 40.56982422 C0 43 0 43 -2 45 C-1.0125055 13.67959553 -1.0125055 13.67959553 0 0 Z" fill="#F1FAD7" transform="translate(109,492)"/>
<path style="visibility: visible;" data-index="40" d="M0 0 C2.69990662 1.79993774 4.5418865 3.083773 6 6 C6.13415472 8.6723621 6.04318541 11.32250488 6 14 C5.67 13.34 5.34 12.68 5 12 C4.01 11.67 3.02 11.34 2 11 C1.31867549 9.33927151 0.65257873 7.672233 0 6 C-2.91765 4.0549 -4.62537285 3.54723683 -8 3 C-8 2.34 -8 1.68 -8 1 C-5.14675563 -0.42662219 -3.16545451 -0.31033868 0 0 Z" fill="#403E3F" transform="translate(1084,696)"/>
<path style="visibility: visible;" data-index="41" d="M0 0 C0.33 0 0.66 0 1 0 C1 7.92 1 15.84 1 24 C4.96 23.67 8.92 23.34 13 23 C13 24.65 13 26.3 13 28 C9.57767028 29.14077657 6.91326783 29.09815117 3.3125 29.0625 C1.54326172 29.04896484 1.54326172 29.04896484 -0.26171875 29.03515625 C-1.16535156 29.02355469 -2.06898437 29.01195312 -3 29 C-3.33 28.34 -3.66 27.68 -4 27 C-0.37 27 3.26 27 7 27 C7 26.34 7 25.68 7 25 C4.69 25 2.38 25 0 25 C0 16.75 0 8.5 0 0 Z" fill="#747373" transform="translate(1124,738)"/>
<path style="visibility: visible;" data-index="42" d="M0 0 C0.33 0 0.66 0 1 0 C1.07352666 5.33476785 1.04783671 10.66528663 1 16 C0.99419922 17.10327637 0.98839844 18.20655273 0.98242188 19.34326172 C0.95274831 22.97975712 0.88591979 26.61414548 0.8125 30.25 C0.80677979 31.44020752 0.80105957 32.63041504 0.79516602 33.85668945 C0.57507698 42.36944087 0.57507698 42.36944087 -2.55078125 45.796875 C-3.35902344 46.19390625 -4.16726562 46.5909375 -5 47 C-4.625 45.0625 -4.625 45.0625 -4 43 C-3.01 42.505 -3.01 42.505 -2 42 C-1.97494385 40.7632251 -1.9498877 39.5264502 -1.92407227 38.25219727 C-1.83017747 33.68063287 -1.72991371 29.10922682 -1.62768555 24.5378418 C-1.58426856 22.55610854 -1.54259863 20.57433622 -1.50268555 18.5925293 C-1.44514617 15.7503683 -1.38140555 12.90840517 -1.31640625 10.06640625 C-1.29969376 9.17474258 -1.28298126 8.28307892 -1.26576233 7.36439514 C-1.11387171 1.11387171 -1.11387171 1.11387171 0 0 Z" fill="#A8C26D" transform="translate(100,640)"/>
<path style="visibility: visible;" data-index="43" d="M0 0 C0.33 0 0.66 0 1 0 C1.16619069 8.01408459 0.8977745 16.03086583 0 24 C-0.33 24.33 -0.66 24.66 -1 25 C-1.5394725 28.29123558 -1.9661339 31.59204015 -2.40234375 34.8984375 C-3 38 -3 38 -5 41 C-3.82562176 27.23905031 -2.19690471 13.63545521 0 0 Z" fill="#B2CA7D" transform="translate(203,386)"/>
<path style="visibility: visible;" data-index="44" d="M0 0 C7.92 0 15.84 0 24 0 C24 0.33 24 0.66 24 1 C19.71 1 15.42 1 11 1 C10.67 1.99 10.34 2.98 10 4 C6.37 4 2.74 4 -1 4 C-0.67 2.68 -0.34 1.36 0 0 Z" fill="#535253" transform="translate(1092,695)"/>
<path style="visibility: visible;" data-index="45" d="M0 0 C0.33 0 0.66 0 1 0 C1.02703381 1.93742341 1.04641125 3.87495479 1.0625 5.8125 C1.07410156 6.89144531 1.08570313 7.97039062 1.09765625 9.08203125 C1 12 1 12 0 15 C-0.25993964 18.64276527 -0.44280583 22.27986773 -0.60546875 25.92773438 C-0.89926145 31.79852289 -0.89926145 31.79852289 -2 34 C-2.66 34 -3.32 34 -4 34 C-2.92386063 22.62039855 -1.75828425 11.29791156 0 0 Z" fill="#AEC977" transform="translate(190,482)"/>
<path style="visibility: visible;" data-index="46" d="M0 0 C11.8686708 0.44787437 23.36697914 2.74607284 35 5 C35 5.33 35 5.66 35 6 C28.08537219 5.39457176 21.25203452 4.47603283 14.39453125 3.40234375 C9.5087654 2.82324837 4.737196 2.48409728 0 4 C0 2.68 0 1.36 0 0 Z" fill="#ADC576" transform="translate(205,377)"/>
<path style="visibility: visible;" data-index="47" d="M0 0 C0 0.66 0 1.32 0 2 C-2.31 2.66 -4.62 3.32 -7 4 C-2.71 4.33 1.58 4.66 6 5 C6 5.33 6 5.66 6 6 C-1.59 6 -9.18 6 -17 6 C-14.38832897 3.38832897 -12.0278941 2.92868518 -8.5 1.875 C-6.75203125 1.34519531 -6.75203125 1.34519531 -4.96875 0.8046875 C-2 0 -2 0 0 0 Z" fill="#E9FAE1" transform="translate(293,567)"/>
<path style="visibility: visible;" data-index="48" d="M0 0 C4.62 0 9.24 0 14 0 C14 0.99 14 1.98 14 3 C9.05 3 4.1 3 -1 3 C-0.67 2.01 -0.34 1.02 0 0 Z" fill="#393738" transform="translate(1128,696)"/>
<path style="visibility: visible;" data-index="49" d="M0 0 C0.33 0 0.66 0 1 0 C1.33 2.31 1.66 4.62 2 7 C2.33 5.35 2.66 3.7 3 2 C3.33 2 3.66 2 4 2 C3.88581333 4.58422459 3.75907638 7.16679513 3.625 9.75 C3.5940625 10.47960937 3.563125 11.20921875 3.53125 11.9609375 C3.3251506 15.73942656 3.08487157 18.77946668 1 22 C0.29223008 14.64424835 -0.14715692 7.3905476 0 0 Z" fill="#F0F9D1" transform="translate(184,494)"/>
<path style="visibility: visible;" data-index="50" d="M0 0 C6.66666667 3.33333333 13.33333333 6.66666667 20 10 C20 10.66 20 11.32 20 12 C19.236875 11.690625 18.47375 11.38125 17.6875 11.0625 C15.81210323 10.32106407 13.91315348 9.63771783 12 9 C12 8.34 12 7.68 12 7 C11.38511719 6.89042969 10.77023437 6.78085937 10.13671875 6.66796875 C9.32847656 6.50941406 8.52023437 6.35085938 7.6875 6.1875 C6.88699219 6.03667969 6.08648437 5.88585937 5.26171875 5.73046875 C2.73679476 4.91499244 1.61930266 4.08046329 0 2 C0 1.34 0 0.68 0 0 Z" fill="#A8C36D" transform="translate(272,394)"/>
<path style="visibility: visible;" data-index="51" d="M0 0 C0.33 0.99 0.66 1.98 1 3 C0.21625 3.70125 -0.5675 4.4025 -1.375 5.125 C-4.08360818 8.09157086 -5.01722715 10.1582516 -6 14 C-7.98 14 -9.96 14 -12 14 C-8 9.33333333 -4 4.66666667 0 0 Z" fill="#80B36B" transform="translate(196,631)"/>
<path style="visibility: visible;" data-index="52" d="M0 0 C-2.32856841 1.01242105 -4.6615354 2.01080878 -7 3 C-8.26263672 3.53947266 -8.26263672 3.53947266 -9.55078125 4.08984375 C-10.42089844 4.45207031 -11.29101562 4.81429688 -12.1875 5.1875 C-13.00605469 5.53167969 -13.82460937 5.87585938 -14.66796875 6.23046875 C-17 7 -17 7 -21 7 C-21 6.34 -21 5.68 -21 5 C-18.25435036 3.96588523 -15.5045139 2.94748843 -12.75 1.9375 C-11.97269531 1.64294922 -11.19539062 1.34839844 -10.39453125 1.04492188 C-9.26337891 0.6340332 -9.26337891 0.6340332 -8.109375 0.21484375 C-7.41811523 -0.04176025 -6.72685547 -0.29836426 -6.01464844 -0.56274414 C-3.67968529 -1.06952056 -2.24624397 -0.74214139 0 0 Z" fill="#ABC473" transform="translate(144,384)"/>
<path style="visibility: visible;" data-index="53" d="M0 0 C0 3 0 3 -1.42578125 4.46484375 C-2.04839844 4.95082031 -2.67101562 5.43679688 -3.3125 5.9375 C-5.99409082 8.10547967 -7.96096333 10.2097393 -10 13 C-10.66 13 -11.32 13 -12 13 C-12 13.66 -12 14.32 -12 15 C-13.32 14.67 -14.64 14.34 -16 14 C-15.01257813 13.15695312 -14.02515625 12.31390625 -13.0078125 11.4453125 C-11.71350438 10.33858527 -10.41923559 9.23181204 -9.125 8.125 C-8.47402344 7.56941406 -7.82304687 7.01382813 -7.15234375 6.44140625 C-6.52714844 5.90644531 -5.90195313 5.37148438 -5.2578125 4.8203125 C-4.6817627 4.32805176 -4.10571289 3.83579102 -3.51220703 3.32861328 C-2.30047746 2.26399715 -1.14054725 1.14054725 0 0 Z" fill="#83B270" transform="translate(154,673)"/>
<path style="visibility: visible;" data-index="54" d="M0 0 C-15.56036446 4.59225513 -15.56036446 4.59225513 -24 4 C-20.25381962 1.76594972 -16.23042921 1.09037783 -12 0.3125 C-11.2884375 0.17005859 -10.576875 0.02761719 -9.84375 -0.11914062 C-6.31357087 -0.78104921 -3.41163242 -1.32378445 0 0 Z" fill="#B2C97E" transform="translate(168,379)"/>
<path style="visibility: visible;" data-index="55" d="M0 0 C0.66 0.33 1.32 0.66 2 1 C-2.35842441 5.59687924 -6.74276241 9.45941142 -12 13 C-11.34 11.35 -10.68 9.7 -10 8 C-9.34 8 -8.68 8 -8 8 C-7.67 7.01 -7.34 6.02 -7 5 C-4.4375 3.8125 -4.4375 3.8125 -2 3 C-2 2.34 -2 1.68 -2 1 C-1.34 0.67 -0.68 0.34 0 0 Z" fill="#EDFCE5" transform="translate(164,662)"/>
<path style="visibility: visible;" data-index="56" d="M0 0 C0.93979382 3.03856659 0.99875808 5.20695472 0.44140625 8.328125 C0.30283203 9.12734375 0.16425781 9.9265625 0.02148438 10.75 C-0.12998047 11.575 -0.28144531 12.4 -0.4375 13.25 C-0.58509766 14.09046875 -0.73269531 14.9309375 -0.88476562 15.796875 C-1.2491936 17.86588544 -1.62362541 19.93312939 -2 22 C-2.33 22 -2.66 22 -3 22 C-3.24685789 14.78626386 -2.96894798 7.98473517 -1 1 C-0.67 0.67 -0.34 0.34 0 0 Z" fill="#87B676" transform="translate(382,590)"/>
<path style="visibility: visible;" data-index="57" d="M0 0 C0.33 0.66 0.66 1.32 1 2 C-0.24628056 4.4302471 -1.45558318 6.47925348 -3.4375 8.375 C-5.04418587 10.0459533 -5.95118443 11.59993607 -7.0625 13.625 C-9 17 -9 17 -11 18 C-9.5810861 14.10508136 -7.74229459 10.79470749 -5.5 7.3125 C-4.8915625 6.35988281 -4.283125 5.40726562 -3.65625 4.42578125 C-2 2 -2 2 0 0 Z" fill="#AEC777" transform="translate(37,455)"/>
<path style="visibility: visible;" data-index="58" d="M0 0 C0.33 0 0.66 0 1 0 C1.18318935 4.21335496 0.93936336 8.14608462 0.25 12.3125 C0.11078125 13.15425781 -0.0284375 13.99601562 -0.171875 14.86328125 C-1 17 -1 17 -3.078125 18.29296875 C-3.71234375 18.52628906 -4.3465625 18.75960938 -5 19 C-4.35561067 16.39546825 -3.7095496 13.7913709 -3.0625 11.1875 C-2.88009766 10.44951172 -2.69769531 9.71152344 -2.50976562 8.95117188 C-1.7577385 5.92939016 -0.98514427 2.95543282 0 0 Z" fill="#89B676" transform="translate(308,430)"/>
<path style="visibility: visible;" data-index="59" d="M0 0 C2.97 1.98 2.97 1.98 6 4 C5.67 5.32 5.34 6.64 5 8 C4.01 8 3.02 8 2 8 C-0.1875 5.5 -0.1875 5.5 -2 3 C-1.34 3 -0.68 3 0 3 C0 2.01 0 1.02 0 0 Z" fill="#434142" transform="translate(825,419)"/>
<path style="visibility: visible;" data-index="60" d="M0 0 C0.33 0 0.66 0 1 0 C1 3.3 1 6.6 1 10 C-0.32 10.33 -1.64 10.66 -3 11 C-4 10 -4 10 -4.0625 7.4375 C-4.041875 6.633125 -4.02125 5.82875 -4 5 C-2.68 5.33 -1.36 5.66 0 6 C0 4.02 0 2.04 0 0 Z" fill="#575757" transform="translate(1073,717)"/>
<path style="visibility: visible;" data-index="61" d="M0 0 C0.66 0.33 1.32 0.66 2 1 C-2.29 5.29 -6.58 9.58 -11 14 C-11 9.82308582 -8.77013484 7.86318847 -6 5 C-4.05228995 3.24842937 -2.05675499 1.62627139 0 0 Z" fill="#A6C166" transform="translate(158,626)"/>
<path style="visibility: visible;" data-index="62" d="M0 0 C0.33 0.99 0.66 1.98 1 3 C-1.64 5.64 -4.28 8.28 -7 11 C-7.99 10.67 -8.98 10.34 -10 10 C-6.7 6.7 -3.4 3.4 0 0 Z" fill="#EDF7D9" transform="translate(158,628)"/>
<path style="visibility: visible;" data-index="63" d="M0 0 C0.66 0 1.32 0 2 0 C5.19221019 5.1075363 8.82215275 10.97355959 7.54296875 17.23828125 C7.36378906 17.81964844 7.18460937 18.40101563 7 19 C6.02016072 16.39608461 5.04110206 13.79188032 4.0625 11.1875 C3.64581055 10.08051758 3.64581055 10.08051758 3.22070312 8.95117188 C2.95322266 8.23896484 2.68574219 7.52675781 2.41015625 6.79296875 C2.16402588 6.1383667 1.91789551 5.48376465 1.66430664 4.80932617 C1.07962967 3.21688185 0.53644441 1.60933324 0 0 Z" fill="#EDFCE6" transform="translate(366,484)"/>
<path style="visibility: visible;" data-index="64" d="M0 0 C0 0.33 0 0.66 0 1 C-2.76867997 1.69740804 -5.53936862 2.38322853 -8.3125 3.0625 C-9.09818359 3.26166016 -9.88386719 3.46082031 -10.69335938 3.66601562 C-11.8293457 3.94155273 -11.8293457 3.94155273 -12.98828125 4.22265625 C-14.03302612 4.48187866 -14.03302612 4.48187866 -15.09887695 4.74633789 C-17 5 -17 5 -20 4 C-17.44085276 1.44085276 -15.79558351 1.43065115 -12.25 0.875 C-11.22390625 0.70742188 -10.1978125 0.53984375 -9.140625 0.3671875 C-6.06077228 0.00710522 -3.09752203 -0.06491813 0 0 Z" fill="#F7FDE5" transform="translate(157,379)"/>
<path style="visibility: visible;" data-index="65" d="M0 0 C0.86625 0.495 0.86625 0.495 1.75 1 C4.19883862 2.27075898 4.19883862 2.27075898 8 2 C8.66 1.67 9.32 1.34 10 1 C10.625 2.875 10.625 2.875 11 5 C10.34 5.66 9.68 6.32 9 7 C7.1875 7 7.1875 7 5 6 C3.1543032 4.10171925 1.61598185 2.10975408 0 0 Z" fill="#A7C368" transform="translate(58,705)"/>
<path style="visibility: visible;" data-index="66" d="M0 0 C0.66 0.33 1.32 0.66 2 1 C-1.63 4.63 -5.26 8.26 -9 12 C-9 8.47601214 -8.44884893 7.98495633 -6.1875 5.4375 C-5.40439453 4.53837891 -5.40439453 4.53837891 -4.60546875 3.62109375 C-3 2 -3 2 0 0 Z" fill="#F2FEEC" transform="translate(178,648)"/>
<path style="visibility: visible;" data-index="67" d="M0 0 C0.33 0.66 0.66 1.32 1 2 C0.10333658 4.24310013 -0.89146683 6.44754321 -1.9375 8.625 C-2.50339844 9.81351562 -3.06929688 11.00203125 -3.65234375 12.2265625 C-4.09707031 13.14179688 -4.54179687 14.05703125 -5 15 C-6.28639376 10.77988808 -5.55460829 8.14562211 -4 4 C-1.875 1.5625 -1.875 1.5625 0 0 Z" fill="#A9C26F" transform="translate(266,470)"/>
<path style="visibility: visible;" data-index="68" d="M0 0 C-2.64506516 1.76337678 -4.59213967 2.6560851 -7.5625 3.625 C-8.74005859 4.01558594 -8.74005859 4.01558594 -9.94140625 4.4140625 C-12 5 -12 5 -14 5 C-13.4375 3.0625 -13.4375 3.0625 -12 1 C-7.98287242 0.09046168 -4.10897143 -0.12451429 0 0 Z" fill="#85B472" transform="translate(328,555)"/>
<path style="visibility: visible;" data-index="69" d="M0 0 C0.66 0.33 1.32 0.66 2 1 C1.16855469 1.70576172 1.16855469 1.70576172 0.3203125 2.42578125 C-0.76636719 3.35970703 -0.76636719 3.35970703 -1.875 4.3125 C-2.59429687 4.92738281 -3.31359375 5.54226563 -4.0546875 6.17578125 C-6.19179331 8.0412324 -6.19179331 8.0412324 -8 11 C-9.32 10.67 -10.64 10.34 -12 10 C-10.82630859 9.04287109 -10.82630859 9.04287109 -9.62890625 8.06640625 C-8.61699219 7.24011719 -7.60507813 6.41382813 -6.5625 5.5625 C-5.55316406 4.73878906 -4.54382813 3.91507813 -3.50390625 3.06640625 C-1.70216039 1.58798996 -1.70216039 1.58798996 0 0 Z" fill="#89B575" transform="translate(135,689)"/>
<path style="visibility: visible;" data-index="70" d="M0 0 C0.66 0 1.32 0 2 0 C3.585869 3.171738 3.37866445 6.63513822 3.5625 10.125 C3.60568359 10.87910156 3.64886719 11.63320313 3.69335938 12.41015625 C3.7994832 14.27321888 3.90025001 16.13658524 4 18 C3.67 18 3.34 18 3 18 C2.49645133 15.56318413 1.99703244 13.12564561 1.5 10.6875 C1.35691406 9.99720703 1.21382813 9.30691406 1.06640625 8.59570312 C0.47374956 5.67475227 0 2.98891878 0 0 Z" fill="#ADC676" transform="translate(2,597)"/>
<path style="visibility: visible;" data-index="71" d="M0 0 C0.66 0 1.32 0 2 0 C5 3.46153846 5 3.46153846 5 6 C5.66 6 6.32 6 7 6 C9.125 10.625 9.125 10.625 8 14 C6.66397562 11.85580015 5.33107996 9.70976582 4 7.5625 C3.6184375 6.95083984 3.236875 6.33917969 2.84375 5.70898438 C0 1.11328125 0 1.11328125 0 0 Z" fill="#ECFCE7" transform="translate(349,454)"/>
<path style="visibility: visible;" data-index="72" d="M0 0 C-3.7559214 3.42931954 -8.23466745 4.56429083 -13 6 C-12.67 4.68 -12.34 3.36 -12 2 C-7.8803623 0.70756464 -4.33168317 -0.26252625 0 0 Z" fill="#81B36D" transform="translate(272,743)"/>
<path style="visibility: visible;" data-index="73" d="M0 0 C0.33 0 0.66 0 1 0 C1.3125 2.1875 1.3125 2.1875 1 5 C-1.3125 7.8125 -1.3125 7.8125 -4 10 C-4.99 10 -5.98 10 -7 10 C-5.85821872 8.33055479 -4.71147095 6.6645052 -3.5625 5 C-2.92441406 4.071875 -2.28632813 3.14375 -1.62890625 2.1875 C-1.09136719 1.465625 -0.55382812 0.74375 0 0 Z" fill="#83B272" transform="translate(229,590)"/>
<path style="visibility: visible;" data-index="74" d="M0 0 C0.99 0.33 1.98 0.66 3 1 C-0.96 4.465 -0.96 4.465 -5 8 C-5.33 6.68 -5.66 5.36 -6 4 C-5.34 3.34 -4.68 2.68 -4 2 C-2.68 2 -1.36 2 0 2 C0 1.34 0 0.68 0 0 Z" fill="#AAC470" transform="translate(80,697)"/>
<path style="visibility: visible;" data-index="75" d="M0 0 C1.79158489 -0.02696365 3.58328473 -0.04637917 5.375 -0.0625 C6.37273437 -0.07410156 7.37046875 -0.08570313 8.3984375 -0.09765625 C11 0 11 0 13 1 C13 1.66 13 2.32 13 3 C13.99 3.33 14.98 3.66 16 4 C10.49191603 3.40984815 5.35121931 2.43336231 0 1 C0 0.67 0 0.34 0 0 Z" fill="#E4F5DC" transform="translate(312,684)"/>
<path style="visibility: visible;" data-index="76" d="M0 0 C0.99 0.33 1.98 0.66 3 1 C0.03 3.97 -2.94 6.94 -6 10 C-6.33 9.34 -6.66 8.68 -7 8 C-6.67 7.34 -6.34 6.68 -6 6 C-5.34 6 -4.68 6 -4 6 C-3.71125 5.38125 -3.4225 4.7625 -3.125 4.125 C-2 2 -2 2 0 0 Z" fill="#EAFBE3" transform="translate(189,636)"/>
<path style="visibility: visible;" data-index="77" d="M0 0 C0.66 0.33 1.32 0.66 2 1 C-0.31 4.96 -2.62 8.92 -5 13 C-6 10 -6 10 -5.29296875 8.02734375 C-4.92816406 7.33769531 -4.56335938 6.64804687 -4.1875 5.9375 C-3.83042969 5.24527344 -3.47335938 4.55304687 -3.10546875 3.83984375 C-2 2 -2 2 0 0 Z" fill="#ACC575" transform="translate(240,519)"/>
<path style="visibility: visible;" data-index="78" d="M0 0 C0.33 0.99 0.66 1.98 1 3 C-2.90102388 5.78644563 -6.38486888 7.68139111 -11 9 C-8.77276018 6.66034429 -6.41043353 4.72900834 -3.8125 2.8125 C-3.09707031 2.28269531 -2.38164063 1.75289062 -1.64453125 1.20703125 C-1.10183594 0.80871094 -0.55914062 0.41039062 0 0 Z" fill="#85B274" transform="translate(115,705)"/>
<path style="visibility: visible;" data-index="79" d="M0 0 C0 0.99 0 1.98 0 3 C-3.28976808 4.09658936 -4.71303767 3.79953138 -8 3 C-8 2.34 -8 1.68 -8 1 C-5.29120665 -0.35439668 -2.99066732 -0.06501451 0 0 Z" fill="#393738" transform="translate(1084,696)"/>
<path style="visibility: visible;" data-index="80" d="M0 0 C0.33 0.99 0.66 1.98 1 3 C-2.03797468 8.62587904 -2.03797468 8.62587904 -5.25 9.875 C-5.8275 9.91625 -6.405 9.9575 -7 10 C-4.93992341 6.39486597 -2.6486859 3.19668988 0 0 Z" fill="#86B675" transform="translate(207,618)"/>
<path style="visibility: visible;" data-index="81" d="M0 0 C0.66 0.33 1.32 0.66 2 1 C0.68 4.3 -0.64 7.6 -2 11 C-2.66 10.34 -3.32 9.68 -4 9 C-3.63910592 5.51135721 -1.8589578 2.90967307 0 0 Z" fill="#F4FAE0" transform="translate(16,487)"/>
<path style="visibility: visible;" data-index="82" d="M0 0 C0.5625 1.9375 0.5625 1.9375 1 4 C0 5 0 5 -2.5625 5.0625 C-3.7690625 5.0315625 -3.7690625 5.0315625 -5 5 C-5.33 3.68 -5.66 2.36 -6 1 C-3.525 1.99 -3.525 1.99 -1 3 C-0.67 2.01 -0.34 1.02 0 0 Z" fill="#484748" transform="translate(843,761)"/>
<path style="visibility: visible;" data-index="83" d="M0 0 C2.31 0 4.62 0 7 0 C7 0.66 7 1.32 7 2 C4.03 2.66 1.06 3.32 -2 4 C-1.34 2.68 -0.68 1.36 0 0 Z" fill="#7DB069" transform="translate(250,748)"/>
<path style="visibility: visible;" data-index="84" d="M0 0 C0.99 0.66 1.98 1.32 3 2 C1.35830472 4.02054804 -0.30911778 6.02043058 -2 8 C-2.33 8 -2.66 8 -3 8 C-3.36923077 3.44615385 -3.36923077 3.44615385 -1.5 1.1875 C-1.005 0.795625 -0.51 0.40375 0 0 Z" fill="#A9C56B" transform="translate(173,608)"/>
<path style="visibility: visible;" data-index="85" d="M0 0 C1.13199353 0.9080162 2.25532363 1.82683826 3.375 2.75 C4.00148438 3.26046875 4.62796875 3.7709375 5.2734375 4.296875 C7.08312318 6.08199481 8.00117455 7.67949644 9 10 C8.01 9.67 7.02 9.34 6 9 C6 8.34 6 7.68 6 7 C5.38125 6.95875 4.7625 6.9175 4.125 6.875 C3.42375 6.58625 2.7225 6.2975 2 6 C0.75 2.9375 0.75 2.9375 0 0 Z" fill="#8CB77A" transform="translate(336,440)"/>
<path style="visibility: visible;" data-index="86" d="M0 0 C0.33 0 0.66 0 1 0 C1.45732667 5.71658336 0.52273754 8.48649253 -3 13 C-4 11 -4 11 -3.22265625 8.3984375 C-2.83980469 7.40070313 -2.45695312 6.40296875 -2.0625 5.375 C-1.68222656 4.37210937 -1.30195313 3.36921875 -0.91015625 2.3359375 C-0.60980469 1.56507813 -0.30945313 0.79421875 0 0 Z" fill="#F1F9DE" transform="translate(284,429)"/>
<path style="visibility: visible;" data-index="87" d="M0 0 C-4.55426184 2.66590937 -7.73946963 3.31563182 -13 3 C-8.8341563 0.22277086 -4.9360889 -1.89849573 0 0 Z" fill="#E6F5DE" transform="translate(341,553)"/>
<path style="visibility: visible;" data-index="88" d="M0 0 C1.06126775 4.24507101 1.08878929 5.31975221 -1 9 C-2.32 9.33 -3.64 9.66 -5 10 C-3.35 6.7 -1.7 3.4 0 0 Z" fill="#87B275" transform="translate(261,541)"/>
<path style="visibility: visible;" data-index="89" d="M0 0 C0.99 0.99 1.98 1.98 3 3 C3 3.66 3 4.32 3 5 C2.01 5.495 2.01 5.495 1 6 C-0.13350534 8.01669827 -0.13350534 8.01669827 -1 10 C-1.66 10 -2.32 10 -3 10 C-2.01 6.7 -1.02 3.4 0 0 Z" fill="#86B872" transform="translate(299,459)"/>
<path style="visibility: visible;" data-index="90" d="M0 0 C6.4 -0.49230769 6.4 -0.49230769 9.4375 2 C10.2109375 2.99 10.2109375 2.99 11 4 C3.375 2.25 3.375 2.25 0 0 Z" fill="#89B676" transform="translate(124,748)"/>
<path style="visibility: visible;" data-index="91" d="M0 0 C2.64 0.33 5.28 0.66 8 1 C7.34 2.65 6.68 4.3 6 6 C5.67 4.68 5.34 3.36 5 2 C3.35 1.67 1.7 1.34 0 1 C0 0.67 0 0.34 0 0 Z" fill="#86B270" transform="translate(331,690)"/>
<path style="visibility: visible;" data-index="92" d="M0 0 C0.33 0 0.66 0 1 0 C1.29036649 3.38115651 1.44908891 6.62919149 1 10 C-1.5 12.625 -1.5 12.625 -4 14 C-3.625 12.0625 -3.625 12.0625 -3 10 C-2.34 9.67 -1.68 9.34 -1 9 C-0.53348793 6.87423218 -0.53348793 6.87423218 -0.375 4.4375 C-0.30023438 3.61121094 -0.22546875 2.78492188 -0.1484375 1.93359375 C-0.09945312 1.29550781 -0.05046875 0.65742187 0 0 Z" fill="#BED390" transform="translate(99,673)"/>
<path style="visibility: visible;" data-index="93" d="M0 0 C3.3 0 6.6 0 10 0 C10 0.66 10 1.32 10 2 C10.66 2.33 11.32 2.66 12 3 C7.18550592 2.51855059 4.39828259 2.1991413 0 0 Z" fill="#E0F4DD" transform="translate(261,671)"/>
<path style="visibility: visible;" data-index="94" d="M0 0 C2 0 2 0 3.5625 1.5 C4.036875 1.995 4.51125 2.49 5 3 C5.33 3 5.66 3 6 3 C6 4.98 6 6.96 6 9 C2.91910327 6.22719294 1.31224548 3.93673644 0 0 Z" fill="#ACC574" transform="translate(25,663)"/>
<path style="visibility: visible;" data-index="95" d="M0 0 C0.66 0.33 1.32 0.66 2 1 C-0.46153846 5.8 -0.46153846 5.8 -3.1875 6.8125 C-3.785625 6.874375 -4.38375 6.93625 -5 7 C-1.125 1.125 -1.125 1.125 0 0 Z" fill="#F1F9E0" transform="translate(193,589)"/>
<path style="visibility: visible;" data-index="96" d="M0 0 C2.96052484 3.36423277 3.92289822 6.69159287 5 11 C4.34 11 3.68 11 3 11 C2.87625 10.360625 2.7525 9.72125 2.625 9.0625 C2.41875 8.381875 2.2125 7.70125 2 7 C1.34 6.67 0.68 6.34 0 6 C0 4.02 0 2.04 0 0 Z" fill="#87B373" transform="translate(364,481)"/>
<path style="visibility: visible;" data-index="97" d="M0 0 C2.31 1.98 4.62 3.96 7 6 C6.01 6.33 5.02 6.66 4 7 C2.35 5.02 0.7 3.04 -1 1 C-0.67 0.67 -0.34 0.34 0 0 Z" fill="#413F40" transform="translate(932,638)"/>
<path style="visibility: visible;" data-index="98" d="M0 0 C1 3 1 3 0.22265625 4.82421875 C-0.8515625 6.54947917 -1.92578125 8.27473958 -3 10 C-3.66 9.67 -4.32 9.34 -5 9 C-3.35 6.03 -1.7 3.06 0 0 Z" fill="#83B571" transform="translate(267,531)"/>
<path style="visibility: visible;" data-index="99" d="M0 0 C0.66 0 1.32 0 2 0 C0.7508258 3.45925163 -0.67527795 6.14693203 -3 9 C-3 7.02 -3 5.04 -3 3 C-2.01 2.67 -1.02 2.34 0 2 C0 1.34 0 0.68 0 0 Z" fill="#AAC66D" transform="translate(247,506)"/>
<path style="visibility: visible;" data-index="100" d="M0 0 C4.95 0.99 4.95 0.99 10 2 C10 2.33 10 2.66 10 3 C7.36 3.33 4.72 3.66 2 4 C1.34 2.68 0.68 1.36 0 0 Z" fill="#8AB979" transform="translate(280,676)"/>
<path style="visibility: visible;" data-index="101" d="M0 0 C2.475 0.495 2.475 0.495 5 1 C4.67 2.65 4.34 4.3 4 6 C2.62437146 4.71034824 1.29233607 3.37310707 0 2 C0 1.34 0 0.68 0 0 Z" fill="#454344" transform="translate(674,658)"/>
<path style="visibility: visible;" data-index="102" d="M0 0 C0.66 0.33 1.32 0.66 2 1 C0.02 3.97 0.02 3.97 -2 7 C-2.66 5.68 -3.32 4.36 -4 3 C-2 1 -2 1 0 0 Z" fill="#A7C469" transform="translate(224,544)"/>
<path style="visibility: visible;" data-index="103" d="M0 0 C0.99 0.33 1.98 0.66 3 1 C-2.75 6 -2.75 6 -5 6 C-5 5.01 -5 4.02 -5 3 C-3.35 2.67 -1.7 2.34 0 2 C0 1.34 0 0.68 0 0 Z" fill="#82B270" transform="translate(308,719)"/>
<path style="visibility: visible;" data-index="104" d="M0 0 C0.66 0.33 1.32 0.66 2 1 C0.02 3.31 -1.96 5.62 -4 8 C-4.33 7.01 -4.66 6.02 -5 5 C-3.35 3.35 -1.7 1.7 0 0 Z" fill="#F0FDE8" transform="translate(207,616)"/>
<path style="visibility: visible;" data-index="105" d="M0 0 C0.66 0 1.32 0 2 0 C1.46930939 3.82097239 0.50298434 6.06171403 -2 9 C-1.125 1.125 -1.125 1.125 0 0 Z" fill="#A6C26B" transform="translate(269,461)"/>
<path style="visibility: visible;" data-index="106" d="M0 0 C1.32 0.33 2.64 0.66 4 1 C1.69 2.65 -0.62 4.3 -3 6 C-2.67 4.68 -2.34 3.36 -2 2 C-1.34 2 -0.68 2 0 2 C0 1.34 0 0.68 0 0 Z" fill="#F0F9DB" transform="translate(76,412)"/>
</svg>