<?xml version="1.0" encoding="utf-8"?>
<!-- Generator: Adobe Illustrator 12.0.0, SVG Export Plug-In  -->
<!DOCTYPE svg PUBLIC "-//W3C//DTD SVG 1.1//EN" "http://www.w3.org/Graphics/SVG/1.1/DTD/svg11.dtd" [
	<!ENTITY ns_flows "http://ns.adobe.com/Flows/1.0/">
	<!ENTITY ns_svg "http://www.w3.org/2000/svg">
	<!ENTITY ns_xlink "http://www.w3.org/1999/xlink">
]>
<svg  version="1.1" xmlns="&ns_svg;" xmlns:xlink="&ns_xlink;" xmlns:a="http://ns.adobe.com/AdobeSVGViewerExtensions/3.0/"
	 width="128" height="61" viewBox="-0.142 -0.779 128 61" enable-background="new -0.142 -0.779 128 61" xml:space="preserve">
<defs>
</defs>
<path fill="#77787B" d="M32.664,50.031c-5.968-1.832-7.175-6.986-6.81-12.688h8.625c0,3.936,0.17,7.238,4.912,7.238
	c2.913,0,4.342-1.877,4.342-4.672c0-7.412-17.363-7.869-17.363-20.115c0-6.441,3.082-11.574,13.595-11.574
	c8.394,0,12.565,3.762,11.995,12.365h-8.398c0-3.078-0.512-6.207-3.998-6.207c-2.795,0-4.455,1.537-4.455,4.383
	c0,7.813,17.367,7.129,17.367,20.068c0,7.127-3.5,10.049-7.785,11.201H32.664"/>
<path fill="#77787B" d="M73.462,21.557c0.059-3.82-0.572-7.178-5.143-7.178c-5.367,0-5.367,7.236-5.367,15.217
	c0,12.877,1.26,15.16,6.17,15.16c1.428,0,2.972-0.344,4.281-0.801v-9.119h-4.681v-6.324h13.306v20.861
	c-0.912,0.178-2.358,0.424-3.99,0.658h-14.76c-7.992-1.988-9.066-8.318-9.066-20.891c0-10.379,0.518-20.92,14.623-20.92
	c8.454,0,13.71,4.732,13.193,13.336H73.462"/>
<path fill="#77787B" d="M98.327,8.221c7.537-0.016,11.652,2.932,12.224,9.553v2.813h-8.397c0.008-3-0.746-6.207-4.229-6.207
	c-2.799,0-4.458,1.537-4.458,4.383c0,7.221,14.839,7.184,17.085,17.354v5.961c-0.914,4.813-3.938,6.996-7.501,7.955H91.024
	c-5.967-1.832-7.174-6.986-6.809-12.688h8.623c0,3.936,0.174,7.238,4.916,7.238c2.909,0,4.337-1.877,4.337-4.672
	c0-7.412-17.364-7.869-17.364-20.115C84.728,13.354,87.812,8.244,98.327,8.221"/>
<rect y="50.031" fill="#F36F21" width="127.56" height="0.992"/>
<rect x="110.551" fill="#F36F21" width="0.992" height="59.527"/>
</svg>
