<svg id="svg" version="1.1" xmlns="http://www.w3.org/2000/svg" xmlns:xlink="http://www.w3.org/1999/xlink" width="400" height="400" viewBox="0, 0, 400,400"><g id="svgg"><path id="path0" d="M20.000 199.600 L 20.000 305.600 199.800 305.600 L 379.600 305.600 379.600 199.600 L 379.600 93.600 199.800 93.600 L 20.000 93.600 20.000 199.600 M376.701 199.700 L 376.600 303.800 200.242 303.900 C 70.195 303.975,23.741 303.883,23.342 303.551 C 22.777 303.083,22.481 97.696,23.043 96.233 C 23.264 95.657,39.232 95.600,200.044 95.600 L 376.802 95.600 376.701 199.700 M154.647 118.725 C 154.448 119.045,153.706 122.646,152.002 131.558 C 151.522 134.065,151.037 136.360,150.922 136.658 C 150.748 137.112,157.429 137.200,191.914 137.200 L 233.113 137.200 233.371 136.174 C 233.512 135.610,234.346 131.695,235.223 127.474 C 236.100 123.253,236.915 119.485,237.035 119.100 C 237.272 118.343,155.114 117.968,154.647 118.725 M55.392 146.900 C 55.228 147.351,53.559 155.383,52.796 159.400 C 52.628 160.280,52.201 162.440,51.846 164.200 C 51.491 165.960,51.200 167.535,51.200 167.700 C 51.200 167.865,57.140 168.000,64.400 168.000 L 77.600 168.000 77.600 168.900 C 77.599 169.395,77.317 171.150,76.972 172.800 C 76.627 174.450,75.628 179.220,74.753 183.400 C 73.878 187.580,72.700 193.250,72.137 196.000 C 71.573 198.750,70.698 202.980,70.192 205.400 C 67.544 218.067,67.075 220.331,66.796 221.800 C 66.628 222.680,66.183 224.840,65.806 226.600 C 65.429 228.360,64.979 230.520,64.805 231.400 C 64.631 232.280,64.357 233.585,64.195 234.300 L 63.900 235.600 77.074 235.600 L 90.249 235.600 90.706 233.700 C 90.958 232.655,91.622 229.595,92.182 226.900 C 92.742 224.205,93.650 219.840,94.200 217.200 C 94.750 214.560,95.650 210.240,96.200 207.600 C 96.750 204.960,97.650 200.640,98.200 198.000 C 98.750 195.360,99.650 191.040,100.200 188.400 C 102.793 175.951,103.271 173.651,103.685 171.600 C 104.486 167.641,102.999 168.000,118.590 168.000 C 126.359 168.000,132.450 167.843,132.576 167.638 C 132.761 167.340,133.504 163.883,135.079 156.000 C 136.221 150.282,136.800 147.201,136.800 146.837 C 136.800 146.160,55.640 146.222,55.392 146.900 M149.360 146.706 C 149.118 146.868,148.813 147.720,148.683 148.600 C 148.552 149.480,147.708 153.710,146.808 158.000 C 144.470 169.138,143.145 175.558,142.804 177.400 C 142.641 178.280,141.952 181.700,141.273 185.000 C 134.654 217.176,142.097 232.900,165.696 236.591 C 195.761 241.293,214.823 228.535,220.366 200.000 C 220.559 199.010,221.208 195.860,221.808 193.000 C 222.409 190.140,223.037 187.080,223.204 186.200 C 223.372 185.320,223.817 183.160,224.194 181.400 C 224.571 179.640,225.021 177.480,225.194 176.600 C 225.367 175.720,225.817 173.560,226.194 171.800 C 226.571 170.040,227.021 167.880,227.194 167.000 C 227.367 166.120,227.817 163.960,228.194 162.200 C 228.571 160.440,229.021 158.280,229.194 157.400 C 229.367 156.520,229.822 154.360,230.204 152.600 C 230.587 150.840,230.987 148.725,231.092 147.900 L 231.284 146.400 218.112 146.400 L 204.939 146.400 204.021 150.900 C 203.516 153.375,202.969 156.120,202.805 157.000 C 202.641 157.880,202.141 160.400,201.693 162.600 C 201.245 164.800,200.794 167.050,200.689 167.600 C 200.436 168.939,195.199 194.569,194.764 196.600 C 191.865 210.132,185.403 216.086,174.800 214.993 C 163.968 213.876,162.640 208.966,167.227 187.000 C 168.146 182.600,169.035 178.280,169.203 177.400 C 169.371 176.520,169.816 174.360,170.192 172.600 C 170.568 170.840,171.027 168.590,171.212 167.600 C 171.397 166.610,172.289 162.290,173.195 158.000 C 175.390 147.611,175.527 146.861,175.279 146.613 C 174.950 146.283,149.857 146.374,149.360 146.706 M151.800 255.948 C 147.598 257.050,145.800 259.006,145.800 262.478 C 145.800 266.315,148.416 268.230,155.800 269.797 C 160.207 270.733,160.206 270.732,161.367 271.646 C 163.708 273.487,162.032 276.500,158.387 277.002 C 154.342 277.558,151.931 276.639,150.430 273.969 C 149.688 272.647,149.344 272.375,148.655 272.560 C 148.185 272.686,147.125 272.792,146.300 272.795 C 144.341 272.802,144.232 274.296,146.012 276.753 C 150.444 282.872,164.768 282.437,167.415 276.103 C 169.551 270.990,166.753 267.642,158.800 265.798 C 151.804 264.176,150.453 263.437,150.940 261.496 C 151.742 258.303,159.787 258.539,161.272 261.799 C 161.758 262.866,165.420 263.282,166.774 262.424 C 168.172 261.540,165.433 257.840,162.400 256.516 C 160.823 255.827,153.713 255.446,151.800 255.948 M72.422 257.300 C 72.107 258.015,71.008 260.400,69.980 262.600 C 68.951 264.800,67.702 267.500,67.204 268.600 C 66.705 269.700,65.670 271.950,64.904 273.600 C 63.162 277.349,62.000 280.010,62.000 280.251 C 62.000 280.352,63.295 280.382,64.877 280.318 L 67.753 280.200 68.577 278.158 C 69.988 274.658,69.734 274.765,76.352 274.890 L 82.189 275.000 83.102 277.000 C 84.622 280.332,84.431 280.190,87.542 280.318 C 89.114 280.382,90.400 280.354,90.400 280.255 C 90.400 279.917,87.772 274.273,81.107 260.300 L 79.056 256.000 76.025 256.000 L 72.995 256.000 72.422 257.300 M104.533 256.630 C 103.989 258.047,104.651 274.957,105.299 276.200 C 108.479 282.302,122.561 282.873,126.316 277.052 L 127.382 275.400 127.532 265.681 L 127.683 255.962 124.941 256.081 L 122.200 256.200 122.000 265.539 L 121.800 274.877 120.647 275.796 C 118.361 277.618,113.836 277.523,111.537 275.605 L 110.200 274.489 110.079 265.245 L 109.958 256.000 107.367 256.000 C 105.377 256.000,104.719 256.146,104.533 256.630 M182.958 256.566 C 182.838 256.878,182.799 257.643,182.870 258.266 L 183.000 259.400 187.200 259.600 L 191.400 259.800 191.600 270.000 L 191.800 280.200 194.500 280.318 L 197.200 280.437 197.200 270.261 C 197.200 258.481,196.672 259.600,202.233 259.600 L 206.000 259.600 206.000 257.800 L 206.000 256.000 194.587 256.000 C 185.115 256.000,183.138 256.096,182.958 256.566 M222.000 268.200 L 222.000 280.400 224.600 280.400 L 227.200 280.400 227.200 275.680 C 227.200 270.584,227.409 270.000,229.230 270.000 C 232.594 270.000,233.957 271.035,238.476 277.022 L 241.000 280.366 244.324 280.383 C 246.878 280.396,247.578 280.284,247.349 279.900 C 246.160 277.907,243.437 274.585,241.154 272.342 C 238.471 269.707,238.234 269.200,239.687 269.200 C 244.746 269.200,247.498 261.959,243.809 258.352 C 241.764 256.352,239.829 256.017,230.300 256.008 L 222.000 256.000 222.000 268.200 M263.484 256.250 C 263.328 256.406,263.200 261.912,263.200 268.485 L 263.200 280.437 265.900 280.318 L 268.600 280.200 268.600 268.200 L 268.600 256.200 266.184 256.083 C 264.855 256.019,263.640 256.094,263.484 256.250 M292.832 256.883 C 292.634 257.387,291.847 259.150,291.084 260.800 C 289.246 264.775,287.493 268.588,286.487 270.800 C 286.037 271.790,284.854 274.355,283.858 276.500 L 282.046 280.400 284.958 280.400 L 287.870 280.400 288.827 278.137 C 290.267 274.729,290.109 274.799,296.329 274.806 C 302.673 274.813,302.320 274.667,303.798 277.900 L 304.940 280.400 307.860 280.400 C 311.308 280.400,311.399 281.371,307.114 272.400 C 305.485 268.990,303.534 264.865,302.776 263.234 C 302.019 261.602,300.944 259.352,300.387 258.234 L 299.374 256.200 296.284 256.083 C 293.381 255.973,293.171 256.022,292.832 256.883 M238.512 260.505 C 240.555 261.844,240.447 264.741,238.314 265.845 C 236.264 266.905,228.449 267.155,227.738 266.183 C 227.092 265.299,227.025 261.474,227.636 260.333 C 228.234 259.216,236.751 259.351,238.512 260.505 M78.295 266.213 C 79.244 268.390,79.931 270.402,79.823 270.685 C 79.544 271.411,72.457 271.414,72.179 270.689 C 72.022 270.281,74.600 263.695,75.463 262.298 C 75.956 261.501,76.672 262.491,78.295 266.213 M297.711 264.300 C 301.022 271.541,301.088 271.200,296.364 271.200 C 292.308 271.200,291.892 270.898,292.914 268.697 C 293.246 267.984,293.926 266.410,294.427 265.200 C 296.053 261.268,296.294 261.201,297.711 264.300 " stroke="none" fill="#090909" fill-rule="evenodd"></path><path id="path1" d="M0.000 200.000 L 0.000 400.000 200.000 400.000 L 400.000 400.000 400.000 200.000 L 400.000 0.000 200.000 0.000 L 0.000 0.000 0.000 200.000 M380.000 199.600 L 380.000 306.000 200.000 306.000 L 20.000 306.000 20.000 199.600 L 20.000 93.200 200.000 93.200 L 380.000 93.200 380.000 199.600 M23.600 199.600 L 23.600 303.200 200.000 303.200 L 376.400 303.200 376.400 199.600 L 376.400 96.000 200.000 96.000 L 23.600 96.000 23.600 199.600 M237.440 118.160 C 237.558 118.468,237.095 121.393,236.410 124.660 C 235.725 127.927,234.878 132.040,234.528 133.800 C 234.178 135.560,233.714 137.225,233.497 137.500 C 233.186 137.894,224.392 138.000,191.938 138.000 C 145.532 138.000,149.930 138.356,150.744 134.666 C 150.995 133.530,151.648 130.260,152.195 127.400 C 153.831 118.855,154.025 118.060,154.523 117.857 C 155.859 117.314,237.229 117.611,237.440 118.160 M348.700 122.730 C 349.056 122.956,348.027 124.593,345.120 128.424 C 339.194 136.234,320.923 160.616,312.373 172.123 C 287.384 205.756,264.918 235.400,264.419 235.400 C 263.841 235.400,260.082 224.725,255.194 209.200 C 254.051 205.570,252.702 201.340,252.195 199.800 C 251.688 198.260,250.795 195.470,250.211 193.600 C 248.946 189.552,242.264 168.953,238.209 156.600 C 236.620 151.760,235.394 147.665,235.484 147.500 C 235.574 147.335,241.372 147.200,248.370 147.200 L 261.093 147.200 261.915 149.500 C 262.368 150.765,263.935 155.220,265.397 159.400 C 266.859 163.580,268.480 168.170,268.998 169.600 C 269.517 171.030,270.598 174.090,271.401 176.400 C 273.807 183.323,274.090 184.001,274.554 183.973 C 275.010 183.946,276.636 181.786,286.734 167.800 C 289.911 163.400,293.714 158.180,295.186 156.200 C 296.657 154.220,300.200 149.360,303.060 145.400 C 313.403 131.076,319.355 122.994,319.773 122.706 C 320.352 122.307,348.070 122.330,348.700 122.730 M137.600 146.454 C 137.600 146.703,137.431 147.558,137.224 148.354 C 137.018 149.149,136.558 151.330,136.202 153.200 C 135.846 155.070,135.381 157.410,135.168 158.400 C 134.954 159.390,134.433 161.984,134.008 164.165 C 133.584 166.346,133.004 168.278,132.719 168.459 C 132.433 168.640,126.035 168.791,118.500 168.794 C 110.965 168.797,104.798 168.935,104.795 169.100 C 104.790 169.394,104.357 171.494,102.221 181.600 C 101.639 184.350,100.701 188.850,100.136 191.600 C 98.796 198.122,98.726 198.454,96.801 207.600 C 95.898 211.890,94.997 216.210,94.800 217.200 C 93.308 224.690,91.185 234.391,90.839 235.300 L 90.420 236.400 77.310 236.394 C 62.792 236.387,62.948 236.413,63.548 234.156 C 63.775 233.300,64.238 231.250,64.577 229.600 C 64.915 227.950,65.576 224.800,66.045 222.600 C 66.514 220.400,66.981 218.150,67.082 217.600 C 67.183 217.050,67.633 214.890,68.082 212.800 C 68.531 210.710,68.981 208.550,69.082 208.000 C 69.183 207.450,69.633 205.290,70.083 203.200 C 70.532 201.110,71.046 198.590,71.225 197.600 C 71.404 196.610,72.005 193.640,72.561 191.000 C 73.117 188.360,74.292 182.747,75.172 178.526 C 76.052 174.305,76.888 170.390,77.029 169.826 L 77.287 168.800 64.292 168.800 C 50.487 168.800,49.885 168.717,50.582 166.905 C 50.822 166.279,52.290 159.325,53.221 154.400 C 54.219 149.120,54.715 146.861,54.967 146.453 C 55.369 145.803,137.600 145.803,137.600 146.454 M176.000 146.739 C 176.000 147.145,175.361 150.520,174.580 154.239 C 172.804 162.693,171.193 170.508,170.796 172.600 C 170.628 173.480,170.184 175.640,169.808 177.400 C 169.432 179.160,168.973 181.410,168.789 182.400 C 168.605 183.390,167.788 187.260,166.974 191.000 C 163.112 208.743,165.425 214.204,176.800 214.197 C 187.013 214.190,191.505 209.288,194.573 194.800 C 195.226 191.715,196.756 184.177,197.091 182.400 C 197.194 181.850,197.645 179.600,198.093 177.400 C 198.541 175.200,199.039 172.680,199.201 171.800 C 199.663 169.288,203.147 152.118,203.848 148.900 L 204.480 146.000 218.275 146.000 L 232.070 146.000 231.802 147.700 C 231.654 148.635,231.380 150.030,231.192 150.800 C 230.890 152.043,230.398 154.385,229.175 160.400 C 228.973 161.390,228.558 163.370,228.252 164.800 C 227.945 166.230,227.479 168.480,227.215 169.800 C 226.951 171.120,226.580 172.920,226.391 173.800 C 226.202 174.680,225.753 176.840,225.393 178.600 C 225.034 180.360,224.584 182.520,224.393 183.400 C 224.203 184.280,223.768 186.350,223.427 188.000 C 223.087 189.650,222.424 192.800,221.954 195.000 C 221.485 197.200,220.953 199.810,220.772 200.800 C 216.209 225.776,201.799 237.718,176.200 237.739 C 150.645 237.759,138.270 227.022,138.236 204.800 C 138.226 198.262,138.518 195.596,140.097 187.800 C 140.542 185.600,141.042 183.080,141.208 182.200 C 141.373 181.320,141.816 179.160,142.192 177.400 C 142.568 175.640,143.029 173.390,143.216 172.400 C 143.403 171.410,144.294 167.090,145.195 162.800 C 146.096 158.510,146.988 154.190,147.176 153.200 C 148.031 148.712,148.491 146.577,148.662 146.300 C 149.135 145.533,176.000 145.964,176.000 146.739 M80.073 256.800 C 80.464 257.570,81.847 260.450,83.147 263.200 C 84.447 265.950,86.711 270.720,88.178 273.800 C 91.667 281.127,91.662 280.969,88.412 281.121 C 84.527 281.304,84.277 281.168,83.019 278.208 L 81.910 275.600 76.145 275.600 L 70.380 275.600 69.090 278.300 L 67.800 281.000 64.839 281.119 C 61.336 281.259,60.851 280.950,61.706 279.123 C 62.047 278.396,62.973 276.405,63.763 274.700 C 64.553 272.995,65.807 270.295,66.549 268.700 C 67.291 267.105,68.303 264.900,68.798 263.800 C 69.293 262.700,70.391 260.308,71.238 258.484 L 72.778 255.167 76.071 255.284 L 79.364 255.400 80.073 256.800 M110.276 255.700 C 110.454 255.975,110.690 260.333,110.800 265.385 L 111.000 274.570 112.359 275.485 C 114.579 276.980,120.349 276.475,121.254 274.706 C 121.284 274.648,121.419 270.280,121.554 265.000 L 121.800 255.400 124.800 255.400 L 127.800 255.400 127.800 265.400 C 127.800 276.705,127.616 277.584,124.871 279.401 C 118.244 283.786,106.709 281.698,104.580 275.726 C 104.005 274.116,103.726 256.008,104.267 255.467 C 104.762 254.972,109.935 255.172,110.276 255.700 M163.409 256.421 C 165.804 257.655,167.638 260.068,167.497 261.800 C 167.370 263.372,162.201 264.369,161.417 262.973 C 159.359 259.309,151.600 258.552,151.600 262.016 C 151.600 263.273,152.257 263.612,156.600 264.594 C 165.035 266.499,167.371 267.872,168.382 271.512 C 171.371 282.273,149.017 286.037,144.621 275.513 C 143.582 273.025,143.759 272.485,145.711 272.192 C 148.903 271.714,150.083 272.041,150.920 273.635 C 152.477 276.604,158.119 277.595,160.769 275.364 C 163.492 273.074,162.081 271.804,155.000 270.172 C 149.904 268.997,149.052 268.631,147.110 266.774 C 143.617 263.434,144.572 258.670,149.209 256.300 C 152.309 254.716,160.231 254.784,163.409 256.421 M206.320 255.680 C 206.942 256.302,206.942 259.298,206.320 259.920 C 206.012 260.228,204.436 260.400,201.920 260.400 L 198.000 260.400 198.000 270.351 C 198.000 281.885,198.211 281.296,194.136 281.119 L 191.400 281.000 191.293 270.700 L 191.186 260.400 187.426 260.400 C 182.453 260.400,182.400 260.373,182.400 257.824 C 182.400 256.674,182.520 255.613,182.667 255.467 C 183.178 254.955,205.799 255.159,206.320 255.680 M241.147 256.011 C 246.183 257.481,247.901 263.755,244.295 267.500 C 243.606 268.215,242.920 268.800,242.770 268.800 C 242.620 268.800,241.874 269.061,241.111 269.379 L 239.725 269.958 242.169 272.479 C 245.104 275.508,248.540 280.250,248.198 280.803 C 247.917 281.258,241.610 281.338,240.990 280.894 C 240.764 280.732,239.957 279.790,239.195 278.800 C 238.434 277.810,237.629 276.789,237.406 276.530 C 237.183 276.272,236.280 275.166,235.400 274.072 C 233.351 271.526,232.118 270.800,229.838 270.800 L 228.000 270.800 228.000 275.757 C 228.000 279.909,227.897 280.754,227.367 280.957 C 226.250 281.386,222.176 281.216,221.680 280.720 C 220.977 280.017,220.996 256.369,221.700 255.648 C 222.369 254.963,238.596 255.266,241.147 256.011 M269.000 268.200 L 269.000 281.000 266.264 281.119 C 262.144 281.298,262.400 282.154,262.400 268.231 C 262.400 254.288,262.157 255.118,266.196 255.284 L 269.000 255.400 269.000 268.200 M299.447 255.506 C 299.856 255.776,301.134 258.325,305.209 267.000 C 306.035 268.760,307.818 272.525,309.170 275.366 C 311.998 281.307,312.005 281.276,307.774 281.118 L 304.623 281.000 303.320 278.300 L 302.016 275.600 296.255 275.600 L 290.493 275.600 289.587 277.900 C 288.397 280.920,287.983 281.200,284.711 281.200 C 280.812 281.200,280.792 281.674,285.097 272.400 C 285.863 270.750,286.810 268.680,287.200 267.800 C 287.590 266.920,288.537 264.850,289.304 263.200 C 290.070 261.550,291.101 259.300,291.595 258.200 C 292.089 257.100,292.674 255.975,292.896 255.700 C 293.335 255.154,298.672 254.996,299.447 255.506 M228.000 263.200 L 228.000 266.000 232.420 266.000 C 238.168 266.000,239.299 265.509,239.122 263.088 C 238.952 260.764,238.086 260.413,232.500 260.406 L 228.000 260.400 228.000 263.200 M75.323 263.900 C 75.063 264.505,74.389 266.057,73.825 267.350 C 72.448 270.505,72.373 270.400,76.000 270.400 C 79.627 270.400,79.552 270.505,78.175 267.350 C 77.611 266.057,76.937 264.505,76.677 263.900 C 76.417 263.295,76.113 262.800,76.000 262.800 C 75.887 262.800,75.583 263.295,75.323 263.900 M294.504 266.500 L 292.912 270.200 296.106 270.317 C 299.962 270.458,299.865 270.538,298.771 268.139 C 298.285 267.073,297.559 265.435,297.158 264.500 C 296.217 262.307,296.352 262.206,294.504 266.500 " stroke="none" fill="#fbfbfb" fill-rule="evenodd"></path><path id="path2" d="M315.956 128.278 C 313.722 131.291,309.552 137.006,306.690 140.978 C 303.827 144.950,300.086 150.090,298.376 152.400 C 296.665 154.710,292.776 160.050,289.733 164.267 C 279.728 178.129,274.750 184.800,274.407 184.800 C 274.056 184.800,273.075 182.326,270.600 175.200 C 269.798 172.890,268.704 169.785,268.171 168.300 C 267.637 166.815,266.750 164.340,266.200 162.800 C 265.650 161.260,264.761 158.785,264.225 157.300 C 263.688 155.815,262.720 153.070,262.073 151.200 L 260.897 147.800 248.449 147.694 C 238.929 147.613,236.000 147.702,236.000 148.072 C 236.000 148.515,240.117 161.387,244.806 175.600 C 247.548 183.914,250.460 192.967,252.396 199.200 C 255.885 210.435,263.937 234.837,264.272 235.194 C 264.373 235.301,264.807 234.941,265.237 234.394 C 266.602 232.660,297.560 191.400,305.000 181.400 C 318.011 163.912,345.353 127.403,345.591 127.200 C 346.096 126.769,348.400 123.424,348.400 123.121 C 348.400 122.945,342.014 122.800,334.209 122.800 L 320.019 122.800 315.956 128.278 " stroke="none" fill="#cc2525" fill-rule="evenodd"></path><path id="path3" d="M23.399 199.600 L 23.400 303.400 200.000 303.400 L 376.600 303.400 376.601 199.800 L 376.602 96.200 376.500 199.700 L 376.398 303.200 200.000 303.200 L 23.602 303.200 23.500 199.500 L 23.398 95.800 23.399 199.600 M195.974 117.899 L 237.147 118.004 237.322 119.007 C 237.482 119.922,237.493 119.913,237.449 118.905 L 237.400 117.800 196.100 117.797 L 154.800 117.794 195.974 117.899 M153.400 120.800 C 153.246 121.710,153.204 122.538,153.307 122.640 C 153.410 122.743,153.613 122.077,153.760 121.160 C 153.907 120.243,153.948 119.415,153.853 119.320 C 153.758 119.224,153.554 119.890,153.400 120.800 M236.222 123.822 C 236.072 124.625,236.028 125.362,236.126 125.460 C 236.224 125.557,236.427 124.981,236.578 124.178 C 236.728 123.375,236.772 122.638,236.674 122.540 C 236.576 122.443,236.373 123.019,236.222 123.822 M319.768 122.706 C 319.530 122.868,317.838 125.070,316.008 127.600 C 314.179 130.130,312.237 132.785,311.693 133.500 C 311.150 134.215,310.802 134.800,310.920 134.800 C 311.038 134.800,313.132 132.100,315.574 128.800 L 320.013 122.800 334.206 122.800 C 342.013 122.800,348.400 122.945,348.400 123.121 C 348.400 123.298,347.844 124.198,347.165 125.121 C 345.475 127.419,346.017 127.254,347.791 124.930 C 348.858 123.532,349.091 122.977,348.710 122.736 C 348.073 122.332,320.360 122.304,319.768 122.706 M152.240 126.840 C 152.093 127.757,152.052 128.585,152.147 128.680 C 152.242 128.776,152.446 128.110,152.600 127.200 C 152.754 126.290,152.796 125.462,152.693 125.360 C 152.590 125.257,152.387 125.923,152.240 126.840 M328.913 149.323 C 309.187 175.736,309.877 174.800,310.147 174.800 C 310.265 174.800,313.013 171.245,316.252 166.900 C 319.491 162.555,326.654 152.994,332.170 145.653 C 345.856 127.441,346.036 127.197,345.698 127.223 C 345.534 127.236,337.981 137.181,328.913 149.323 M151.422 131.022 C 151.272 131.825,151.228 132.562,151.326 132.660 C 151.424 132.757,151.627 132.181,151.778 131.378 C 151.928 130.575,151.972 129.838,151.874 129.740 C 151.776 129.643,151.573 130.219,151.422 131.022 M234.222 133.422 C 234.072 134.225,234.028 134.962,234.126 135.060 C 234.224 135.157,234.427 134.581,234.578 133.778 C 234.728 132.975,234.772 132.238,234.674 132.140 C 234.576 132.043,234.373 132.619,234.222 133.422 M150.574 135.397 C 150.043 138.230,146.395 138.000,191.907 138.000 C 234.544 138.000,234.040 138.019,233.975 136.420 C 233.959 136.040,233.809 136.148,233.588 136.700 L 233.226 137.600 191.959 137.600 L 150.691 137.600 150.938 135.800 C 151.229 133.680,150.953 133.375,150.574 135.397 M305.161 142.500 C 302.258 146.515,299.684 150.060,299.441 150.377 C 299.119 150.798,299.120 150.882,299.444 150.688 C 299.689 150.541,301.928 147.582,304.420 144.111 C 306.912 140.640,309.389 137.215,309.923 136.500 C 310.458 135.785,310.792 135.200,310.667 135.200 C 310.542 135.200,308.064 138.485,305.161 142.500 M54.814 146.774 C 54.586 147.199,54.418 147.964,54.441 148.474 C 54.474 149.217,54.540 149.156,54.777 148.165 C 54.939 147.486,55.202 146.721,55.360 146.465 C 55.518 146.209,55.553 146.000,55.438 146.000 C 55.322 146.000,55.042 146.348,54.814 146.774 M235.477 147.500 C 235.384 147.665,235.899 149.510,236.622 151.600 C 237.346 153.690,237.951 155.207,237.969 154.970 C 237.986 154.734,237.550 153.217,237.000 151.600 C 236.450 149.983,236.000 148.419,236.000 148.124 C 236.000 147.686,238.262 147.608,248.449 147.694 L 260.897 147.800 262.073 151.200 C 262.720 153.070,263.674 155.770,264.194 157.200 C 264.713 158.630,265.538 160.929,266.026 162.310 C 266.515 163.690,266.984 164.749,267.069 164.664 C 267.202 164.532,265.513 159.565,261.915 149.500 L 261.093 147.200 248.370 147.200 C 241.372 147.200,235.571 147.335,235.477 147.500 M231.249 148.600 C 231.216 149.040,231.096 149.850,230.983 150.400 L 230.777 151.400 231.206 150.419 C 231.442 149.879,231.561 149.069,231.472 148.619 C 231.313 147.821,231.307 147.821,231.249 148.600 M203.422 150.622 C 203.272 151.425,203.228 152.162,203.326 152.260 C 203.424 152.357,203.627 151.781,203.778 150.978 C 203.928 150.175,203.972 149.438,203.874 149.340 C 203.776 149.243,203.573 149.819,203.422 150.622 M136.222 151.422 C 136.072 152.225,136.028 152.962,136.126 153.060 C 136.224 153.157,136.427 152.581,136.578 151.778 C 136.728 150.975,136.772 150.238,136.674 150.140 C 136.576 150.043,136.373 150.619,136.222 151.422 M147.400 151.600 C 147.248 152.291,147.207 152.941,147.309 153.042 C 147.411 153.144,147.609 152.653,147.750 151.950 C 148.083 150.283,147.760 149.960,147.400 151.600 M297.771 152.700 C 297.153 153.525,296.212 154.830,295.679 155.600 L 294.711 157.000 295.755 155.800 C 297.101 154.253,299.302 151.200,299.072 151.200 C 298.975 151.200,298.389 151.875,297.771 152.700 M53.422 153.022 C 53.272 153.825,53.228 154.562,53.326 154.660 C 53.424 154.757,53.627 154.181,53.778 153.378 C 53.928 152.575,53.972 151.838,53.874 151.740 C 53.776 151.643,53.573 152.219,53.422 153.022 M230.449 152.600 C 230.416 153.040,230.296 153.850,230.183 154.400 L 229.977 155.400 230.406 154.419 C 230.642 153.879,230.761 153.069,230.672 152.619 C 230.513 151.821,230.507 151.821,230.449 152.600 M174.222 154.222 C 174.072 155.025,174.028 155.762,174.126 155.860 C 174.224 155.957,174.427 155.381,174.578 154.578 C 174.728 153.775,174.772 153.038,174.674 152.940 C 174.576 152.843,174.373 153.419,174.222 154.222 M146.656 155.284 C 146.521 155.788,146.427 156.560,146.446 157.000 C 146.465 157.440,146.645 157.098,146.846 156.240 C 147.236 154.578,147.070 153.740,146.656 155.284 M135.249 156.200 C 135.216 156.640,135.096 157.450,134.983 158.000 L 134.777 159.000 135.206 158.019 C 135.442 157.479,135.561 156.669,135.472 156.219 C 135.313 155.421,135.307 155.421,135.249 156.200 M293.475 158.500 C 292.944 159.215,291.018 161.870,289.195 164.400 C 287.372 166.930,285.235 169.892,284.446 170.982 C 283.657 172.072,283.209 172.842,283.450 172.693 C 283.691 172.544,285.928 169.582,288.420 166.111 C 290.912 162.640,293.389 159.215,293.923 158.500 C 294.458 157.785,294.793 157.200,294.668 157.200 C 294.543 157.200,294.006 157.785,293.475 158.500 M229.249 158.200 C 229.216 158.640,229.096 159.450,228.983 160.000 L 228.777 161.000 229.206 160.019 C 229.442 159.479,229.561 158.669,229.472 158.219 C 229.313 157.421,229.307 157.421,229.249 158.200 M239.070 159.000 C 239.201 159.660,239.458 160.470,239.642 160.800 C 240.241 161.877,240.035 160.350,239.398 159.000 L 238.833 157.800 239.070 159.000 M201.422 160.622 C 201.272 161.425,201.228 162.162,201.326 162.260 C 201.424 162.357,201.627 161.781,201.778 160.978 C 201.928 160.175,201.972 159.438,201.874 159.340 C 201.776 159.243,201.573 159.819,201.422 160.622 M134.222 161.422 C 134.072 162.225,134.028 162.962,134.126 163.060 C 134.224 163.157,134.427 162.581,134.578 161.778 C 134.728 160.975,134.772 160.238,134.674 160.140 C 134.576 160.043,134.373 160.619,134.222 161.422 M145.422 161.422 C 145.272 162.225,145.228 162.962,145.326 163.060 C 145.424 163.157,145.627 162.581,145.778 161.778 C 145.928 160.975,145.972 160.238,145.874 160.140 C 145.776 160.043,145.573 160.619,145.422 161.422 M51.422 163.022 C 51.272 163.825,51.228 164.562,51.326 164.660 C 51.424 164.757,51.627 164.181,51.778 163.378 C 51.928 162.575,51.972 161.838,51.874 161.740 C 51.776 161.643,51.573 162.219,51.422 163.022 M240.030 162.000 C 240.033 162.330,240.291 163.140,240.602 163.800 L 241.167 165.000 240.930 163.800 C 240.632 162.298,240.021 161.075,240.030 162.000 M228.250 163.250 C 227.917 164.917,228.240 165.240,228.600 163.600 C 228.752 162.909,228.793 162.259,228.691 162.158 C 228.589 162.056,228.391 162.547,228.250 163.250 M172.222 163.822 C 172.072 164.625,172.028 165.362,172.126 165.460 C 172.224 165.557,172.427 164.981,172.578 164.178 C 172.728 163.375,172.772 162.638,172.674 162.540 C 172.576 162.443,172.373 163.019,172.222 163.822 M241.262 165.600 C 241.262 165.930,241.594 167.100,242.000 168.200 C 242.406 169.300,242.738 169.930,242.738 169.600 C 242.738 169.270,242.406 168.100,242.000 167.000 C 241.594 165.900,241.262 165.270,241.262 165.600 M267.212 165.600 C 267.212 165.930,267.387 166.470,267.600 166.800 C 267.945 167.333,267.988 167.333,267.988 166.800 C 267.988 166.470,267.813 165.930,267.600 165.600 C 267.255 165.067,267.212 165.067,267.212 165.600 M50.626 166.638 C 50.096 168.752,50.206 168.770,64.402 168.890 C 71.619 168.950,77.441 168.865,77.338 168.700 C 77.236 168.535,71.448 168.397,64.476 168.394 C 51.008 168.387,50.600 168.335,51.020 166.662 C 51.167 166.078,51.197 165.600,51.087 165.600 C 50.977 165.600,50.769 166.067,50.626 166.638 M133.200 166.520 C 133.200 168.380,133.043 168.400,118.544 168.400 C 111.011 168.400,104.763 168.536,104.660 168.703 C 104.557 168.870,104.374 169.725,104.253 170.603 L 104.034 172.200 104.474 170.500 L 104.914 168.800 118.628 168.800 C 130.563 168.800,132.424 168.718,132.971 168.171 C 133.543 167.600,133.877 165.600,133.400 165.600 C 133.290 165.600,133.200 166.014,133.200 166.520 M227.249 167.800 C 227.216 168.240,227.096 169.050,226.983 169.600 L 226.777 170.600 227.206 169.619 C 227.442 169.079,227.561 168.269,227.472 167.819 C 227.313 167.021,227.307 167.021,227.249 167.800 M268.229 168.400 C 268.376 168.950,268.664 169.670,268.867 170.000 C 269.125 170.417,269.157 170.295,268.971 169.600 C 268.824 169.050,268.536 168.330,268.333 168.000 C 268.075 167.583,268.043 167.705,268.229 168.400 M171.249 168.600 C 171.216 169.040,171.096 169.850,170.983 170.400 L 170.777 171.400 171.206 170.419 C 171.442 169.879,171.561 169.069,171.472 168.619 C 171.313 167.821,171.307 167.821,171.249 168.600 M199.456 170.084 C 199.321 170.588,199.227 171.360,199.246 171.800 C 199.265 172.240,199.445 171.898,199.646 171.040 C 200.036 169.378,199.870 168.540,199.456 170.084 M143.422 171.022 C 143.272 171.825,143.228 172.562,143.326 172.660 C 143.424 172.757,143.627 172.181,143.778 171.378 C 143.928 170.575,143.972 169.838,143.874 169.740 C 143.776 169.643,143.573 170.219,143.422 171.022 M243.070 171.400 C 243.201 172.060,243.458 172.870,243.642 173.200 C 244.241 174.277,244.035 172.750,243.398 171.400 L 242.833 170.200 243.070 171.400 M269.212 171.200 C 269.212 171.530,269.387 172.070,269.600 172.400 C 269.945 172.933,269.988 172.933,269.988 172.400 C 269.988 172.070,269.813 171.530,269.600 171.200 C 269.255 170.667,269.212 170.667,269.212 171.200 M226.250 172.850 C 225.917 174.517,226.240 174.840,226.600 173.200 C 226.752 172.509,226.793 171.859,226.691 171.758 C 226.589 171.656,226.391 172.147,226.250 172.850 M170.449 172.600 C 170.416 173.040,170.296 173.850,170.183 174.400 L 169.977 175.400 170.406 174.419 C 170.642 173.879,170.761 173.069,170.672 172.619 C 170.513 171.821,170.507 171.821,170.449 172.600 M198.656 174.084 C 198.521 174.588,198.427 175.360,198.446 175.800 C 198.465 176.240,198.645 175.898,198.846 175.040 C 199.236 173.378,199.070 172.540,198.656 174.084 M270.099 173.700 C 270.200 173.975,270.598 175.157,270.982 176.326 C 271.367 177.495,271.752 178.381,271.838 178.295 C 272.041 178.093,270.392 173.200,270.120 173.200 C 270.007 173.200,269.997 173.425,270.099 173.700 M278.935 178.573 C 274.648 184.427,274.291 184.694,273.591 182.573 C 273.332 181.788,273.041 181.226,272.943 181.323 C 272.680 181.587,274.035 184.800,274.410 184.800 C 274.587 184.800,276.216 182.775,278.030 180.300 C 279.844 177.825,281.770 175.215,282.311 174.500 C 282.852 173.785,283.199 173.200,283.083 173.200 C 282.966 173.200,281.099 175.618,278.935 178.573 M244.000 174.272 C 244.000 174.885,245.728 179.605,245.892 179.441 C 246.081 179.253,244.395 174.000,244.146 174.000 C 244.066 174.000,244.000 174.122,244.000 174.272 M103.249 175.000 C 103.216 175.440,103.096 176.250,102.983 176.800 L 102.777 177.800 103.206 176.819 C 103.442 176.279,103.561 175.469,103.472 175.019 C 103.313 174.221,103.307 174.221,103.249 175.000 M304.336 182.300 C 295.758 193.835,266.903 232.314,265.704 233.816 C 264.313 235.559,264.231 235.549,263.636 233.561 C 263.366 232.660,263.066 232.000,262.971 232.096 C 262.603 232.464,263.909 235.400,264.440 235.400 C 264.748 235.400,274.586 222.620,286.301 207.000 C 309.679 175.831,310.147 175.200,309.833 175.200 C 309.713 175.200,307.240 178.395,304.336 182.300 M75.422 177.022 C 75.272 177.825,75.228 178.562,75.326 178.660 C 75.424 178.757,75.627 178.181,75.778 177.378 C 75.928 176.575,75.972 175.838,75.874 175.740 C 75.776 175.643,75.573 176.219,75.422 177.022 M169.257 178.257 C 169.006 179.509,168.874 180.608,168.965 180.698 C 169.056 180.789,169.342 179.845,169.600 178.600 C 169.858 177.355,169.990 176.257,169.892 176.159 C 169.794 176.061,169.509 177.005,169.257 178.257 M102.222 179.822 C 102.072 180.625,102.028 181.362,102.126 181.460 C 102.224 181.557,102.427 180.981,102.578 180.178 C 102.728 179.375,102.772 178.638,102.674 178.540 C 102.576 178.443,102.373 179.019,102.222 179.822 M197.422 180.222 C 197.272 181.025,197.228 181.762,197.326 181.860 C 197.424 181.957,197.627 181.381,197.778 180.578 C 197.928 179.775,197.972 179.038,197.874 178.940 C 197.776 178.843,197.573 179.419,197.422 180.222 M272.012 179.200 C 272.012 179.530,272.187 180.070,272.400 180.400 C 272.745 180.933,272.788 180.933,272.788 180.400 C 272.788 180.070,272.613 179.530,272.400 179.200 C 272.055 178.667,272.012 178.667,272.012 179.200 M141.456 180.484 C 141.321 180.988,141.227 181.760,141.246 182.200 C 141.265 182.640,141.445 182.298,141.646 181.440 C 142.036 179.778,141.870 178.940,141.456 180.484 M246.000 180.249 C 246.000 180.790,248.733 188.676,248.770 188.241 C 248.806 187.818,246.420 180.286,246.171 180.038 C 246.077 179.944,246.000 180.039,246.000 180.249 M224.250 182.450 C 223.917 184.117,224.240 184.440,224.600 182.800 C 224.752 182.109,224.793 181.459,224.691 181.358 C 224.589 181.256,224.391 181.747,224.250 182.450 M168.222 183.422 C 168.072 184.225,168.028 184.962,168.126 185.060 C 168.224 185.157,168.427 184.581,168.578 183.778 C 168.728 182.975,168.772 182.238,168.674 182.140 C 168.576 182.043,168.373 182.619,168.222 183.422 M196.656 184.084 C 196.521 184.588,196.427 185.360,196.446 185.800 C 196.465 186.240,196.645 185.898,196.846 185.040 C 197.236 183.378,197.070 182.540,196.656 184.084 M140.656 184.484 C 140.521 184.988,140.427 185.760,140.446 186.200 C 140.465 186.640,140.645 186.298,140.846 185.440 C 141.236 183.778,141.070 182.940,140.656 184.484 M73.422 186.622 C 73.272 187.425,73.228 188.162,73.326 188.260 C 73.424 188.357,73.627 187.781,73.778 186.978 C 73.928 186.175,73.972 185.438,73.874 185.340 C 73.776 185.243,73.573 185.819,73.422 186.622 M100.222 189.422 C 100.072 190.225,100.028 190.962,100.126 191.060 C 100.224 191.157,100.427 190.581,100.578 189.778 C 100.728 188.975,100.772 188.238,100.674 188.140 C 100.576 188.043,100.373 188.619,100.222 189.422 M195.422 190.222 C 195.272 191.025,195.228 191.762,195.326 191.860 C 195.424 191.957,195.627 191.381,195.778 190.578 C 195.928 189.775,195.972 189.038,195.874 188.940 C 195.776 188.843,195.573 189.419,195.422 190.222 M249.070 189.800 C 249.201 190.460,249.458 191.270,249.642 191.600 C 250.241 192.677,250.035 191.150,249.398 189.800 L 248.833 188.600 249.070 189.800 M139.422 190.622 C 139.272 191.425,139.228 192.162,139.326 192.260 C 139.424 192.357,139.627 191.781,139.778 190.978 C 139.928 190.175,139.972 189.438,139.874 189.340 C 139.776 189.243,139.573 189.819,139.422 190.622 M222.222 192.222 C 222.072 193.025,222.028 193.762,222.126 193.860 C 222.224 193.957,222.427 193.381,222.578 192.578 C 222.728 191.775,222.772 191.038,222.674 190.940 C 222.576 190.843,222.373 191.419,222.222 192.222 M166.222 193.022 C 166.072 193.825,166.028 194.562,166.126 194.660 C 166.224 194.757,166.427 194.181,166.578 193.378 C 166.728 192.575,166.772 191.838,166.674 191.740 C 166.576 191.643,166.373 192.219,166.222 193.022 M250.000 192.638 C 250.000 193.265,251.713 198.420,251.870 198.264 C 252.068 198.065,250.417 192.400,250.161 192.400 C 250.072 192.400,250.000 192.507,250.000 192.638 M194.600 194.400 C 194.448 195.091,194.407 195.741,194.509 195.842 C 194.611 195.944,194.809 195.453,194.950 194.750 C 195.283 193.083,194.960 192.760,194.600 194.400 M99.249 194.200 C 99.216 194.640,99.096 195.450,98.983 196.000 L 98.777 197.000 99.206 196.019 C 99.442 195.479,99.561 194.669,99.472 194.219 C 99.313 193.421,99.307 193.421,99.249 194.200 M71.422 196.222 C 71.272 197.025,71.228 197.762,71.326 197.860 C 71.424 197.957,71.627 197.381,71.778 196.578 C 71.928 195.775,71.972 195.038,71.874 194.940 C 71.776 194.843,71.573 195.419,71.422 196.222 M138.520 198.000 C 138.520 199.210,138.595 199.705,138.687 199.100 C 138.778 198.495,138.778 197.505,138.687 196.900 C 138.595 196.295,138.520 196.790,138.520 198.000 M165.293 198.400 C 165.293 199.170,165.375 199.485,165.476 199.100 C 165.576 198.715,165.576 198.085,165.476 197.700 C 165.375 197.315,165.293 197.630,165.293 198.400 M98.222 199.022 C 98.072 199.825,98.028 200.562,98.126 200.660 C 98.224 200.757,98.427 200.181,98.578 199.378 C 98.728 198.575,98.772 197.838,98.674 197.740 C 98.576 197.643,98.373 198.219,98.222 199.022 M193.429 199.429 C 193.281 200.015,193.238 200.572,193.332 200.666 C 193.427 200.760,193.624 200.358,193.771 199.771 C 193.919 199.185,193.962 198.628,193.868 198.534 C 193.773 198.440,193.576 198.842,193.429 199.429 M252.030 199.200 C 252.033 199.530,252.291 200.340,252.602 201.000 L 253.167 202.200 252.930 201.000 C 252.632 199.498,252.021 198.275,252.030 199.200 M164.871 203.400 C 164.876 205.160,165.014 207.050,165.177 207.600 C 165.341 208.150,165.398 206.890,165.305 204.800 C 165.090 199.976,164.861 199.236,164.871 203.400 M220.250 201.650 C 219.917 203.317,220.240 203.640,220.600 202.000 C 220.752 201.309,220.793 200.659,220.691 200.558 C 220.589 200.456,220.391 200.947,220.250 201.650 M138.146 205.000 C 138.147 207.200,138.214 208.049,138.295 206.887 C 138.376 205.724,138.376 203.924,138.293 202.887 C 138.211 201.849,138.145 202.800,138.146 205.000 M192.444 202.444 C 192.198 203.151,192.066 203.800,192.152 203.885 C 192.238 203.971,192.509 203.462,192.756 202.756 C 193.002 202.049,193.134 201.400,193.048 201.315 C 192.962 201.229,192.691 201.738,192.444 202.444 M253.256 202.800 C 253.256 203.130,253.411 203.760,253.600 204.200 C 253.817 204.704,253.944 204.778,253.944 204.400 C 253.944 204.070,253.789 203.440,253.600 203.000 C 253.383 202.496,253.256 202.422,253.256 202.800 M69.422 205.822 C 69.272 206.625,69.228 207.362,69.326 207.460 C 69.424 207.557,69.627 206.981,69.778 206.178 C 69.928 205.375,69.972 204.638,69.874 204.540 C 69.776 204.443,69.573 205.019,69.422 205.822 M254.248 206.200 C 254.391 206.860,254.666 207.670,254.859 208.000 C 255.084 208.384,255.118 208.168,254.952 207.400 C 254.809 206.740,254.534 205.930,254.341 205.600 C 254.116 205.216,254.082 205.432,254.248 206.200 M190.360 207.275 C 190.102 207.757,189.067 209.062,188.060 210.175 L 186.229 212.200 188.026 210.503 C 189.667 208.955,191.541 206.400,191.037 206.400 C 190.922 206.400,190.617 206.794,190.360 207.275 M96.222 208.622 C 96.072 209.425,96.028 210.162,96.126 210.260 C 96.224 210.357,96.427 209.781,96.578 208.978 C 96.728 208.175,96.772 207.438,96.674 207.340 C 96.576 207.243,96.373 207.819,96.222 208.622 M255.230 208.946 C 255.176 209.565,257.749 217.354,257.879 216.964 C 257.948 216.755,257.388 214.788,256.633 212.592 C 255.878 210.397,255.247 208.756,255.230 208.946 M138.501 211.000 C 138.505 211.880,138.587 212.193,138.683 211.695 C 138.779 211.198,138.775 210.478,138.675 210.095 C 138.575 209.713,138.496 210.120,138.501 211.000 M166.000 209.918 C 166.000 210.774,170.567 214.366,171.047 213.886 C 171.145 213.788,170.682 213.482,170.017 213.207 C 169.352 212.932,168.177 212.007,167.404 211.152 C 166.632 210.297,166.000 209.742,166.000 209.918 M215.283 216.213 C 214.582 217.636,214.093 218.800,214.198 218.800 C 214.466 218.800,216.885 213.951,216.706 213.772 C 216.625 213.692,215.985 214.790,215.283 216.213 M67.422 215.422 C 67.272 216.225,67.228 216.962,67.326 217.060 C 67.424 217.157,67.627 216.581,67.778 215.778 C 67.928 214.975,67.972 214.238,67.874 214.140 C 67.776 214.043,67.573 214.619,67.422 215.422 M175.100 214.693 C 176.035 214.777,177.565 214.777,178.500 214.693 C 179.435 214.609,178.670 214.540,176.800 214.540 C 174.930 214.540,174.165 214.609,175.100 214.693 M139.256 215.200 C 139.256 215.530,139.411 216.160,139.600 216.600 C 139.817 217.104,139.944 217.178,139.944 216.800 C 139.944 216.470,139.789 215.840,139.600 215.400 C 139.383 214.896,139.256 214.822,139.256 215.200 M94.222 218.222 C 94.072 219.025,94.028 219.762,94.126 219.860 C 94.224 219.957,94.427 219.381,94.578 218.578 C 94.728 217.775,94.772 217.038,94.674 216.940 C 94.576 216.843,94.373 217.419,94.222 218.222 M140.218 218.500 C 140.368 218.995,140.655 219.576,140.856 219.791 C 141.057 220.006,141.019 219.601,140.772 218.891 C 140.265 217.438,139.797 217.108,140.218 218.500 M258.215 218.500 C 259.160 221.668,259.726 223.207,259.886 223.047 C 260.092 222.842,258.391 217.600,258.119 217.600 C 258.024 217.600,258.067 218.005,258.215 218.500 M141.200 220.662 C 141.200 221.259,144.219 225.844,144.860 226.220 C 145.167 226.400,145.110 226.205,144.730 225.769 C 144.361 225.346,143.416 223.931,142.630 222.624 C 141.843 221.316,141.200 220.434,141.200 220.662 M211.975 222.047 C 211.726 222.513,210.358 224.268,208.935 225.947 L 206.349 229.000 208.874 226.326 C 211.180 223.885,213.151 221.200,212.637 221.200 C 212.522 221.200,212.224 221.581,211.975 222.047 M65.422 225.022 C 65.272 225.825,65.228 226.562,65.326 226.660 C 65.424 226.757,65.627 226.181,65.778 225.378 C 65.928 224.575,65.972 223.838,65.874 223.740 C 65.776 223.643,65.573 224.219,65.422 225.022 M260.000 223.872 C 260.000 224.485,261.728 229.205,261.892 229.041 C 262.081 228.853,260.395 223.600,260.146 223.600 C 260.066 223.600,260.000 223.722,260.000 223.872 M92.222 227.822 C 92.072 228.625,92.028 229.362,92.126 229.460 C 92.224 229.557,92.427 228.981,92.578 228.178 C 92.728 227.375,92.772 226.638,92.674 226.540 C 92.576 226.443,92.373 227.019,92.222 227.822 M147.618 229.200 C 149.647 231.144,152.400 233.145,152.400 232.676 C 152.400 232.583,151.644 232.006,150.721 231.395 C 149.797 230.784,148.204 229.545,147.181 228.642 C 146.158 227.739,146.355 227.990,147.618 229.200 M204.000 230.255 C 201.673 232.083,201.506 232.294,203.124 231.362 C 204.274 230.700,206.443 228.763,205.970 228.821 C 205.876 228.832,204.990 229.477,204.000 230.255 M262.012 230.000 C 262.012 230.330,262.187 230.870,262.400 231.200 C 262.745 231.733,262.788 231.733,262.788 231.200 C 262.788 230.870,262.613 230.330,262.400 230.000 C 262.055 229.467,262.012 229.467,262.012 230.000 M152.800 232.997 C 152.800 233.268,156.049 234.884,156.230 234.703 C 156.314 234.619,155.576 234.159,154.591 233.681 C 153.606 233.202,152.800 232.894,152.800 232.997 M63.420 234.662 C 63.247 235.352,63.337 235.840,63.677 236.056 C 64.329 236.469,90.284 236.512,90.538 236.100 C 90.640 235.935,84.666 235.800,77.262 235.800 L 63.800 235.800 63.915 234.700 C 64.062 233.299,63.768 233.276,63.420 234.662 M161.000 236.381 C 161.768 236.729,163.910 236.956,163.567 236.653 C 163.475 236.572,162.680 236.396,161.800 236.262 C 160.685 236.093,160.442 236.129,161.000 236.381 M189.200 236.400 C 188.396 236.657,188.357 236.723,189.000 236.732 C 189.440 236.738,190.160 236.589,190.600 236.400 C 191.619 235.962,190.568 235.962,189.200 236.400 M183.000 237.200 L 180.600 237.466 182.800 237.493 C 184.010 237.508,185.450 237.376,186.000 237.200 C 187.214 236.811,186.513 236.811,183.000 237.200 M167.907 237.490 C 168.626 237.579,169.706 237.577,170.307 237.486 C 170.908 237.395,170.320 237.322,169.000 237.324 C 167.680 237.326,167.188 237.401,167.907 237.490 M174.500 237.891 C 175.325 237.978,176.675 237.978,177.500 237.891 C 178.325 237.805,177.650 237.734,176.000 237.734 C 174.350 237.734,173.675 237.805,174.500 237.891 M72.008 256.784 C 70.912 258.932,70.993 259.389,72.118 257.400 L 73.022 255.800 76.002 255.681 C 78.462 255.582,79.071 255.683,79.491 256.257 C 79.771 256.640,80.000 256.775,80.000 256.556 C 80.000 255.569,78.894 255.200,75.928 255.200 L 72.816 255.200 72.008 256.784 M104.258 255.506 C 104.154 255.674,105.403 255.745,107.034 255.662 C 110.612 255.482,110.118 254.139,110.396 264.800 L 110.630 273.800 110.715 265.274 C 110.818 254.940,110.908 255.200,107.210 255.200 C 105.690 255.200,104.362 255.338,104.258 255.506 M121.807 255.700 C 121.714 255.975,121.585 260.332,121.519 265.383 C 121.454 270.433,121.514 274.033,121.653 273.383 C 121.792 272.732,121.927 268.451,121.953 263.868 L 122.000 255.537 124.963 255.668 C 126.593 255.741,127.842 255.665,127.740 255.500 C 127.408 254.967,121.992 255.150,121.807 255.700 M150.800 255.606 C 150.378 255.882,150.615 255.923,151.600 255.742 C 153.325 255.425,153.651 255.198,152.367 255.206 C 151.835 255.209,151.130 255.389,150.800 255.606 M160.000 255.600 C 161.368 256.038,162.419 256.038,161.400 255.600 C 160.960 255.411,160.240 255.262,159.800 255.268 C 159.157 255.277,159.196 255.343,160.000 255.600 M182.564 255.751 C 182.447 256.054,182.420 257.179,182.504 258.251 L 182.656 260.200 182.728 257.894 L 182.800 255.588 194.500 255.694 L 206.200 255.800 206.200 257.800 L 206.200 259.800 201.907 259.913 L 197.613 260.027 197.507 270.313 L 197.400 280.600 194.507 280.717 L 191.614 280.835 191.507 270.517 L 191.400 260.200 187.299 260.178 L 183.198 260.156 187.192 260.292 L 191.187 260.428 191.293 270.714 L 191.400 281.000 194.136 281.119 C 198.211 281.296,198.000 281.885,198.000 270.351 L 198.000 260.400 201.920 260.400 C 204.436 260.400,206.012 260.228,206.320 259.920 C 206.942 259.298,206.942 256.302,206.320 255.680 C 205.571 254.931,182.852 254.999,182.564 255.751 M221.680 255.680 C 221.328 256.032,221.200 259.369,221.200 268.200 C 221.200 281.993,220.989 281.232,224.780 281.129 L 227.400 281.059 224.600 280.829 L 221.800 280.600 221.800 268.200 L 221.800 255.800 230.962 255.800 C 236.001 255.800,239.421 255.675,238.562 255.523 C 235.744 255.023,222.211 255.149,221.680 255.680 M262.896 255.664 C 262.123 256.437,262.188 280.126,262.964 280.770 C 263.309 281.056,264.591 281.192,266.264 281.119 L 269.000 281.000 269.000 268.200 L 269.000 255.400 266.196 255.284 C 264.358 255.209,263.220 255.340,262.896 255.664 M292.555 256.212 C 292.190 256.769,292.006 257.339,292.146 257.479 C 292.286 257.619,292.400 257.536,292.400 257.295 C 292.400 255.107,298.711 254.779,300.004 256.900 C 300.853 258.293,301.104 258.124,300.340 256.674 C 299.326 254.748,293.732 254.416,292.555 256.212 M268.706 268.318 L 268.811 280.835 265.906 280.718 L 263.000 280.600 262.894 268.604 C 262.768 254.339,262.490 255.533,265.895 255.682 L 268.600 255.800 268.706 268.318 M242.977 257.181 C 243.624 257.608,244.568 258.642,245.075 259.478 C 245.581 260.315,245.997 260.841,245.998 260.647 C 246.005 259.477,243.184 256.394,242.114 256.403 C 241.941 256.404,242.330 256.754,242.977 257.181 M146.713 257.900 C 145.826 258.917,145.098 260.432,145.368 260.701 C 145.495 260.829,145.600 260.748,145.600 260.522 C 145.600 260.297,146.045 259.457,146.588 258.656 C 147.648 257.094,147.702 256.766,146.713 257.900 M165.599 258.300 C 166.122 259.015,166.613 259.600,166.689 259.600 C 166.993 259.600,166.001 258.100,165.345 257.567 C 164.913 257.216,165.010 257.496,165.599 258.300 M154.700 259.889 C 155.415 259.978,156.585 259.978,157.300 259.889 C 158.015 259.801,157.430 259.728,156.000 259.728 C 154.570 259.728,153.985 259.801,154.700 259.889 M290.465 260.617 C 289.795 262.088,289.923 262.402,290.647 261.065 C 290.986 260.440,291.188 259.854,291.096 259.763 C 291.005 259.671,290.721 260.056,290.465 260.617 M151.838 260.522 C 151.373 260.863,151.188 261.386,151.308 262.022 L 151.491 263.000 151.546 261.961 C 151.579 261.314,151.939 260.759,152.500 260.488 C 152.995 260.249,153.209 260.042,152.976 260.027 C 152.744 260.012,152.231 260.235,151.838 260.522 M232.840 260.354 C 238.478 260.629,239.073 260.885,239.310 263.130 L 239.466 264.600 239.533 263.162 C 239.652 260.612,238.753 260.208,232.859 260.154 L 227.800 260.109 232.840 260.354 M227.728 263.200 C 227.728 264.630,227.801 265.215,227.889 264.500 C 227.978 263.785,227.978 262.615,227.889 261.900 C 227.801 261.185,227.728 261.770,227.728 263.200 M75.326 263.100 C 75.189 263.485,74.987 263.963,74.877 264.162 C 74.766 264.361,74.884 264.395,75.138 264.238 C 75.392 264.081,75.600 263.708,75.600 263.410 C 75.600 263.111,75.825 262.776,76.100 262.665 C 76.492 262.507,76.489 262.456,76.087 262.432 C 75.806 262.414,75.463 262.715,75.326 263.100 M166.200 262.800 L 165.000 263.105 166.076 263.153 C 166.668 263.179,167.264 263.020,167.400 262.800 C 167.536 262.580,167.592 262.421,167.524 262.447 C 167.456 262.473,166.860 262.632,166.200 262.800 M295.381 263.637 C 295.029 264.318,294.820 264.953,294.917 265.050 C 295.013 265.147,295.328 264.658,295.615 263.963 C 296.113 262.763,296.167 262.738,296.723 263.450 C 297.275 264.158,297.293 264.159,297.054 263.467 C 296.914 263.064,296.800 262.659,296.800 262.567 C 296.800 261.942,295.911 262.612,295.381 263.637 M302.836 262.600 C 302.836 262.820,303.270 263.810,303.800 264.800 C 304.330 265.790,304.764 266.420,304.764 266.200 C 304.764 265.980,304.330 264.990,303.800 264.000 C 303.270 263.010,302.836 262.380,302.836 262.600 M161.560 263.320 C 161.746 263.506,162.506 263.596,163.249 263.519 C 164.567 263.383,164.558 263.375,162.910 263.180 C 161.981 263.071,161.373 263.133,161.560 263.320 M145.212 264.315 C 145.205 264.599,145.875 265.507,146.700 266.333 C 147.535 267.170,147.736 267.296,147.153 266.618 C 146.577 265.948,145.907 265.040,145.665 264.600 C 145.423 264.160,145.219 264.032,145.212 264.315 M288.075 265.819 C 286.870 268.300,287.005 268.647,288.246 266.261 C 288.801 265.194,289.187 264.253,289.103 264.170 C 289.019 264.086,288.557 264.828,288.075 265.819 M156.000 264.800 C 157.368 265.238,158.419 265.238,157.400 264.800 C 156.960 264.611,156.240 264.462,155.800 264.468 C 155.157 264.477,155.196 264.543,156.000 264.800 M297.228 264.600 C 297.228 264.820,297.486 265.450,297.800 266.000 C 298.114 266.550,298.372 266.820,298.372 266.600 C 298.372 266.380,298.114 265.750,297.800 265.200 C 297.486 264.650,297.228 264.380,297.228 264.600 M159.600 265.600 C 160.968 266.038,162.019 266.038,161.000 265.600 C 160.560 265.411,159.840 265.262,159.400 265.268 C 158.757 265.277,158.796 265.343,159.600 265.600 M243.941 267.296 C 243.139 268.123,242.609 268.800,242.763 268.800 C 243.128 268.800,245.799 266.046,245.573 265.902 C 245.478 265.842,244.744 266.469,243.941 267.296 M230.112 266.295 C 231.164 266.377,232.784 266.376,233.712 266.292 C 234.640 266.208,233.780 266.141,231.800 266.142 C 229.820 266.143,229.060 266.212,230.112 266.295 M78.028 267.000 C 78.028 267.220,78.286 267.850,78.600 268.400 C 78.914 268.950,79.172 269.220,79.172 269.000 C 79.172 268.780,78.914 268.150,78.600 267.600 C 78.286 267.050,78.028 266.780,78.028 267.000 M84.836 267.400 C 84.836 267.620,85.270 268.610,85.800 269.600 C 86.330 270.590,86.764 271.220,86.764 271.000 C 86.764 270.780,86.330 269.790,85.800 268.800 C 85.270 267.810,84.836 267.180,84.836 267.400 M165.556 267.953 C 166.082 268.357,166.843 269.118,167.247 269.644 C 167.651 270.170,167.986 270.471,167.991 270.314 C 168.007 269.815,165.537 267.200,165.059 267.209 C 164.806 267.214,165.030 267.549,165.556 267.953 M299.396 269.484 C 299.636 270.341,299.537 270.372,296.122 270.502 L 292.600 270.635 296.300 270.718 C 300.111 270.802,300.548 270.600,299.568 269.200 C 299.237 268.728,299.200 268.788,299.396 269.484 M239.700 269.465 C 238.913 269.783,239.101 270.181,240.500 271.154 L 241.800 272.058 240.674 271.026 L 239.548 269.994 240.474 269.622 C 240.983 269.418,241.130 269.254,240.800 269.257 C 240.470 269.260,239.975 269.354,239.700 269.465 M285.872 270.619 C 284.932 272.589,285.064 272.924,286.047 271.062 C 286.493 270.216,286.787 269.454,286.701 269.367 C 286.614 269.281,286.241 269.844,285.872 270.619 M72.432 270.100 C 72.404 270.717,72.826 270.800,76.000 270.800 C 79.174 270.800,79.596 270.717,79.568 270.100 C 79.550 269.682,79.456 269.601,79.335 269.900 C 79.198 270.240,78.132 270.400,76.000 270.400 C 73.868 270.400,72.802 270.240,72.665 269.900 C 72.544 269.601,72.450 269.682,72.432 270.100 M155.800 270.400 C 156.240 270.589,156.960 270.738,157.400 270.732 C 158.043 270.723,158.004 270.657,157.200 270.400 C 155.832 269.962,154.781 269.962,155.800 270.400 M64.875 272.219 C 63.670 274.700,63.805 275.047,65.046 272.661 C 65.601 271.594,65.987 270.653,65.903 270.570 C 65.819 270.486,65.357 271.228,64.875 272.219 M227.774 270.923 C 227.664 271.211,227.631 273.596,227.701 276.223 L 227.828 281.000 227.914 275.922 L 228.000 270.844 229.900 270.694 L 231.800 270.544 229.887 270.472 C 228.626 270.425,227.907 270.578,227.774 270.923 M159.642 271.332 C 160.215 271.590,160.980 272.047,161.342 272.349 C 161.704 272.651,162.000 272.716,162.000 272.495 C 162.000 272.089,159.574 270.772,158.940 270.832 C 158.753 270.850,159.069 271.075,159.642 271.332 M168.175 273.104 C 168.193 274.921,168.298 275.389,168.558 274.810 C 168.772 274.334,168.762 273.327,168.533 272.307 C 168.151 270.605,168.150 270.607,168.175 273.104 M306.836 271.000 C 306.836 271.220,307.270 272.210,307.800 273.200 C 308.330 274.190,308.764 274.820,308.764 274.600 C 308.764 274.380,308.330 273.390,307.800 272.400 C 307.270 271.410,306.836 270.780,306.836 271.000 M104.101 273.000 C 104.105 273.880,104.187 274.193,104.283 273.695 C 104.379 273.198,104.375 272.478,104.275 272.095 C 104.175 271.713,104.096 272.120,104.101 273.000 M146.300 272.282 C 146.795 272.378,147.605 272.378,148.100 272.282 C 148.595 272.187,148.190 272.109,147.200 272.109 C 146.210 272.109,145.805 272.187,146.300 272.282 M144.000 273.400 C 144.000 273.950,144.069 274.400,144.153 274.400 C 144.238 274.400,144.393 273.950,144.498 273.400 C 144.603 272.850,144.534 272.400,144.345 272.400 C 144.155 272.400,144.000 272.850,144.000 273.400 M151.150 274.691 C 151.654 275.650,153.121 276.612,153.501 276.232 C 153.629 276.105,153.548 276.000,153.321 276.000 C 153.095 276.000,152.408 275.505,151.796 274.900 C 150.843 273.959,150.750 273.929,151.150 274.691 M111.182 274.978 C 113.099 277.288,121.200 277.315,121.200 275.012 C 121.200 274.902,120.615 275.168,119.900 275.604 C 117.890 276.830,114.166 276.708,112.167 275.352 C 111.317 274.775,110.874 274.607,111.182 274.978 M160.678 275.413 C 160.060 275.956,159.714 276.400,159.908 276.400 C 160.102 276.400,160.683 275.950,161.200 275.400 C 162.395 274.128,162.131 274.134,160.678 275.413 M104.409 275.126 C 104.388 276.354,106.315 278.934,107.800 279.669 C 108.240 279.887,107.992 279.570,107.250 278.964 C 106.507 278.359,105.566 277.129,105.159 276.232 C 104.751 275.334,104.414 274.837,104.409 275.126 M144.418 274.926 C 144.362 275.948,146.739 278.932,148.200 279.676 C 148.640 279.900,148.321 279.508,147.491 278.805 C 146.661 278.102,145.633 276.868,145.208 276.063 C 144.783 275.258,144.427 274.747,144.418 274.926 M245.961 277.508 C 248.515 281.020,248.598 280.800,244.722 280.800 C 241.707 280.800,241.346 280.712,240.228 279.700 C 239.101 278.680,239.070 278.673,239.806 279.600 C 240.243 280.150,240.780 280.732,241.000 280.894 C 241.605 281.338,247.917 281.258,248.198 280.803 C 248.435 280.419,245.158 275.468,244.328 274.956 C 244.104 274.817,244.839 275.966,245.961 277.508 M69.664 276.219 C 69.003 277.670,69.119 278.008,69.829 276.700 L 70.426 275.600 76.186 275.600 C 81.665 275.600,81.959 275.641,82.210 276.430 C 82.354 276.887,82.561 277.172,82.669 277.064 C 82.777 276.957,82.664 276.493,82.418 276.034 C 81.997 275.246,81.644 275.200,76.050 275.200 L 70.128 275.200 69.664 276.219 M290.190 275.616 C 290.041 275.857,290.028 276.161,290.160 276.293 C 290.292 276.425,290.400 276.323,290.400 276.067 C 290.400 275.733,292.046 275.600,296.192 275.600 L 301.985 275.600 302.974 277.500 C 303.518 278.545,303.968 279.220,303.975 279.000 C 303.981 278.780,303.579 277.880,303.081 277.000 L 302.176 275.400 296.318 275.289 C 292.400 275.216,290.371 275.324,290.190 275.616 M88.836 275.800 C 88.836 276.020,89.270 277.010,89.800 278.000 C 90.330 278.990,90.764 279.620,90.764 279.400 C 90.764 279.180,90.330 278.190,89.800 277.200 C 89.270 276.210,88.836 275.580,88.836 275.800 M167.403 276.791 C 167.265 277.226,166.488 278.144,165.676 278.832 C 164.864 279.520,164.586 279.888,165.057 279.650 C 166.006 279.172,168.000 276.948,168.000 276.369 C 168.000 275.730,167.664 275.967,167.403 276.791 M62.465 277.417 C 61.795 278.888,61.923 279.202,62.647 277.865 C 62.986 277.240,63.188 276.654,63.096 276.563 C 63.005 276.471,62.721 276.856,62.465 277.417 M155.091 276.689 C 155.801 276.777,157.061 276.779,157.891 276.692 C 158.721 276.605,158.140 276.533,156.600 276.531 C 155.060 276.529,154.381 276.600,155.091 276.689 M125.806 278.288 L 125.104 279.400 126.030 278.511 C 126.539 278.022,126.855 277.522,126.732 277.399 C 126.609 277.276,126.192 277.676,125.806 278.288 M310.032 277.800 C 310.030 278.020,310.286 278.650,310.600 279.200 C 311.486 280.749,311.404 280.800,308.020 280.800 C 305.413 280.800,304.766 280.674,304.432 280.100 C 304.208 279.715,304.019 279.589,304.012 279.820 C 303.983 280.825,305.082 281.200,308.056 281.200 C 311.637 281.200,311.918 280.968,310.834 278.912 C 310.395 278.081,310.034 277.580,310.032 277.800 M83.201 278.481 C 83.197 279.336,84.252 280.848,84.981 281.031 C 86.545 281.423,90.930 281.032,91.038 280.490 C 91.094 280.210,91.049 280.165,90.937 280.390 C 90.359 281.556,84.816 280.845,83.996 279.500 C 83.560 278.785,83.202 278.327,83.201 278.481 M68.074 279.798 C 67.414 281.245,61.354 281.383,61.731 279.942 C 61.891 279.330,61.832 279.208,61.525 279.515 C 60.436 280.604,61.517 281.200,64.578 281.200 C 67.416 281.200,69.708 279.974,68.719 278.986 C 68.615 278.882,68.325 279.247,68.074 279.798 M281.727 280.200 C 281.800 280.913,282.112 281.003,284.604 281.026 L 287.400 281.052 284.726 280.909 C 282.630 280.797,282.008 280.618,281.849 280.083 C 281.699 279.579,281.667 279.610,281.727 280.200 M116.200 281.200 L 112.200 281.445 116.000 281.494 C 118.090 281.522,120.160 281.389,120.600 281.200 C 121.040 281.011,121.130 280.878,120.800 280.906 C 120.470 280.933,118.400 281.065,116.200 281.200 M152.241 281.246 C 152.658 281.410,154.620 281.536,156.600 281.525 C 160.985 281.503,160.333 281.297,155.241 281.096 C 153.173 281.015,151.823 281.082,152.241 281.246 " stroke="none" fill="#969696" fill-rule="evenodd"></path><path id="path4" d="M200.100 93.500 L 379.600 93.601 379.600 199.600 L 379.600 305.599 199.700 305.700 L 19.800 305.801 199.901 305.900 L 380.001 306.000 379.901 199.700 L 379.800 93.400 200.200 93.399 L 20.600 93.399 200.100 93.500 M111.500 95.900 C 160.175 95.956,239.825 95.956,288.500 95.900 C 337.175 95.844,297.350 95.798,200.000 95.798 C 102.650 95.798,62.825 95.844,111.500 95.900 M22.899 199.620 C 22.822 279.635,22.909 303.149,23.280 303.520 C 23.826 304.066,376.201 304.246,376.538 303.700 C 376.640 303.535,297.226 303.400,200.062 303.400 L 23.400 303.400 23.199 199.800 L 22.998 96.200 22.899 199.620 M154.243 118.633 C 154.109 118.981,154.013 119.476,154.028 119.733 C 154.044 119.990,154.197 119.840,154.368 119.400 C 154.677 118.609,155.146 118.598,196.040 118.397 L 237.400 118.194 195.943 118.097 C 158.451 118.009,154.462 118.061,154.243 118.633 M235.422 126.222 C 235.272 127.025,235.228 127.762,235.326 127.860 C 235.424 127.957,235.627 127.381,235.778 126.578 C 235.928 125.775,235.972 125.038,235.874 124.940 C 235.776 124.843,235.573 125.419,235.422 126.222 M152.222 128.622 C 152.072 129.425,152.028 130.162,152.126 130.260 C 152.224 130.357,152.427 129.781,152.578 128.978 C 152.728 128.175,152.772 127.438,152.674 127.340 C 152.576 127.243,152.373 127.819,152.222 128.622 M151.400 132.800 C 151.246 133.710,151.204 134.538,151.307 134.640 C 151.410 134.743,151.613 134.077,151.760 133.160 C 151.907 132.243,151.948 131.415,151.853 131.320 C 151.758 131.224,151.554 131.890,151.400 132.800 M233.461 135.698 L 233.164 137.196 191.882 137.300 L 150.600 137.404 191.910 137.502 L 233.220 137.600 233.626 136.532 C 233.849 135.944,233.971 135.179,233.895 134.832 C 233.820 134.484,233.624 134.874,233.461 135.698 M55.462 146.300 C 55.360 146.465,73.630 146.553,96.063 146.496 L 136.850 146.392 136.643 148.296 C 136.484 149.750,136.514 149.916,136.770 149.000 C 136.955 148.340,137.127 147.395,137.153 146.900 L 137.200 146.000 96.424 146.000 C 73.997 146.000,55.564 146.135,55.462 146.300 M149.062 146.300 C 148.959 146.465,154.844 146.600,162.138 146.600 L 175.400 146.600 175.319 147.800 C 175.243 148.932,175.256 148.943,175.552 148.000 C 176.191 145.964,176.429 146.000,162.381 146.000 C 155.157 146.000,149.164 146.135,149.062 146.300 M217.873 146.297 L 231.146 146.411 231.338 147.305 C 231.506 148.084,231.523 148.071,231.466 147.200 L 231.400 146.200 218.000 146.192 L 204.600 146.183 217.873 146.297 M204.222 148.222 C 204.072 149.025,204.028 149.762,204.126 149.860 C 204.224 149.957,204.427 149.381,204.578 148.578 C 204.728 147.775,204.772 147.038,204.674 146.940 C 204.576 146.843,204.373 147.419,204.222 148.222 M148.449 148.200 C 148.416 148.640,148.296 149.450,148.183 150.000 L 147.977 151.000 148.406 150.019 C 148.642 149.479,148.761 148.669,148.672 148.219 C 148.513 147.421,148.507 147.421,148.449 148.200 M54.222 150.622 C 54.072 151.425,54.028 152.162,54.126 152.260 C 54.224 152.357,54.427 151.781,54.578 150.978 C 54.728 150.175,54.772 149.438,54.674 149.340 C 54.576 149.243,54.373 149.819,54.222 150.622 M147.400 153.200 C 147.246 154.110,147.204 154.938,147.307 155.040 C 147.410 155.143,147.613 154.477,147.760 153.560 C 147.907 152.643,147.948 151.815,147.853 151.720 C 147.758 151.624,147.554 152.290,147.400 153.200 M135.422 153.822 C 135.272 154.625,135.228 155.362,135.326 155.460 C 135.424 155.557,135.627 154.981,135.778 154.178 C 135.928 153.375,135.972 152.638,135.874 152.540 C 135.776 152.443,135.573 153.019,135.422 153.822 M203.249 153.000 C 203.216 153.440,203.096 154.250,202.983 154.800 L 202.777 155.800 203.206 154.819 C 203.442 154.279,203.561 153.469,203.472 153.019 C 203.313 152.221,203.307 152.221,203.249 153.000 M53.249 155.400 C 53.216 155.840,53.096 156.650,52.983 157.200 L 52.777 158.200 53.206 157.219 C 53.442 156.679,53.561 155.869,53.472 155.419 C 53.313 154.621,53.307 154.621,53.249 155.400 M229.400 156.000 C 229.248 156.691,229.207 157.341,229.309 157.442 C 229.411 157.544,229.609 157.053,229.750 156.350 C 230.083 154.683,229.760 154.360,229.400 156.000 M173.422 156.622 C 173.272 157.425,173.228 158.162,173.326 158.260 C 173.424 158.357,173.627 157.781,173.778 156.978 C 173.928 156.175,173.972 155.438,173.874 155.340 C 173.776 155.243,173.573 155.819,173.422 156.622 M202.449 157.000 C 202.416 157.440,202.296 158.250,202.183 158.800 L 201.977 159.800 202.406 158.819 C 202.642 158.279,202.761 157.469,202.672 157.019 C 202.513 156.221,202.507 156.221,202.449 157.000 M146.222 159.022 C 146.072 159.825,146.028 160.562,146.126 160.660 C 146.224 160.757,146.427 160.181,146.578 159.378 C 146.728 158.575,146.772 157.838,146.674 157.740 C 146.576 157.643,146.373 158.219,146.222 159.022 M134.240 159.640 C 134.093 160.557,134.052 161.385,134.147 161.480 C 134.242 161.576,134.446 160.910,134.600 160.000 C 134.754 159.090,134.796 158.262,134.693 158.160 C 134.590 158.057,134.387 158.723,134.240 159.640 M52.449 159.400 C 52.416 159.840,52.296 160.650,52.183 161.200 L 51.977 162.200 52.406 161.219 C 52.642 160.679,52.761 159.869,52.672 159.419 C 52.513 158.621,52.507 158.621,52.449 159.400 M228.240 161.640 C 228.093 162.557,228.052 163.385,228.147 163.480 C 228.242 163.576,228.446 162.910,228.600 162.000 C 228.754 161.090,228.796 160.262,228.693 160.160 C 228.590 160.057,228.387 160.723,228.240 161.640 M133.422 163.822 C 133.272 164.625,133.228 165.362,133.326 165.460 C 133.424 165.557,133.627 164.981,133.778 164.178 C 133.928 163.375,133.972 162.638,133.874 162.540 C 133.776 162.443,133.573 163.019,133.422 163.822 M227.400 165.600 C 227.248 166.291,227.207 166.941,227.309 167.042 C 227.411 167.144,227.609 166.653,227.750 165.950 C 228.083 164.283,227.760 163.960,227.400 165.600 M171.422 166.222 C 171.272 167.025,171.228 167.762,171.326 167.860 C 171.424 167.957,171.627 167.381,171.778 166.578 C 171.928 165.775,171.972 165.038,171.874 164.940 C 171.776 164.843,171.573 165.419,171.422 166.222 M132.708 167.110 L 132.475 168.000 118.661 168.000 C 111.063 168.000,104.764 168.135,104.662 168.300 C 104.559 168.465,110.741 168.551,118.397 168.490 C 132.824 168.376,133.627 168.280,133.108 166.724 C 133.016 166.447,132.836 166.621,132.708 167.110 M200.449 167.000 C 200.416 167.440,200.296 168.250,200.183 168.800 L 199.977 169.800 200.406 168.819 C 200.642 168.279,200.761 167.469,200.672 167.019 C 200.513 166.221,200.507 166.221,200.449 167.000 M144.222 168.622 C 144.072 169.425,144.028 170.162,144.126 170.260 C 144.224 170.357,144.427 169.781,144.578 168.978 C 144.728 168.175,144.772 167.438,144.674 167.340 C 144.576 167.243,144.373 167.819,144.222 168.622 M56.000 168.284 C 67.598 168.566,77.601 168.573,77.600 168.300 C 77.600 168.135,71.705 168.039,64.500 168.086 C 57.295 168.133,53.470 168.222,56.000 168.284 M226.240 171.240 C 226.093 172.157,226.052 172.985,226.147 173.080 C 226.242 173.176,226.446 172.510,226.600 171.600 C 226.754 170.690,226.796 169.862,226.693 169.760 C 226.590 169.657,226.387 170.323,226.240 171.240 M103.422 172.622 C 103.272 173.425,103.228 174.162,103.326 174.260 C 103.424 174.357,103.627 173.781,103.778 172.978 C 103.928 172.175,103.972 171.438,103.874 171.340 C 103.776 171.243,103.573 171.819,103.422 172.622 M143.249 173.400 C 143.216 173.840,143.096 174.650,142.983 175.200 L 142.777 176.200 143.206 175.219 C 143.442 174.679,143.561 173.869,143.472 173.419 C 143.313 172.621,143.307 172.621,143.249 173.400 M76.222 174.622 C 76.072 175.425,76.028 176.162,76.126 176.260 C 76.224 176.357,76.427 175.781,76.578 174.978 C 76.728 174.175,76.772 173.438,76.674 173.340 C 76.576 173.243,76.373 173.819,76.222 174.622 M225.456 174.884 C 225.321 175.388,225.227 176.160,225.246 176.600 C 225.265 177.040,225.445 176.698,225.646 175.840 C 226.036 174.178,225.870 173.340,225.456 174.884 M169.400 176.000 C 169.248 176.691,169.207 177.341,169.309 177.442 C 169.411 177.544,169.609 177.053,169.750 176.350 C 170.083 174.683,169.760 174.360,169.400 176.000 M198.222 177.822 C 198.072 178.625,198.028 179.362,198.126 179.460 C 198.224 179.557,198.427 178.981,198.578 178.178 C 198.728 177.375,198.772 176.638,198.674 176.540 C 198.576 176.443,198.373 177.019,198.222 177.822 M142.449 177.400 C 142.416 177.840,142.296 178.650,142.183 179.200 L 141.977 180.200 142.406 179.219 C 142.642 178.679,142.761 177.869,142.672 177.419 C 142.513 176.621,142.507 176.621,142.449 177.400 M224.400 180.200 C 224.142 181.445,224.010 182.543,224.108 182.641 C 224.206 182.739,224.491 181.795,224.743 180.543 C 224.994 179.291,225.126 178.192,225.035 178.102 C 224.944 178.011,224.658 178.955,224.400 180.200 M168.240 181.640 C 168.093 182.557,168.052 183.385,168.147 183.480 C 168.242 183.576,168.446 182.910,168.600 182.000 C 168.754 181.090,168.796 180.262,168.693 180.160 C 168.590 180.057,168.387 180.723,168.240 181.640 M197.400 182.000 C 197.246 182.910,197.204 183.738,197.307 183.840 C 197.410 183.943,197.613 183.277,197.760 182.360 C 197.907 181.443,197.948 180.615,197.853 180.520 C 197.758 180.424,197.554 181.090,197.400 182.000 M101.422 182.222 C 101.272 183.025,101.228 183.762,101.326 183.860 C 101.424 183.957,101.627 183.381,101.778 182.578 C 101.928 181.775,101.972 181.038,101.874 180.940 C 101.776 180.843,101.573 181.419,101.422 182.222 M74.222 184.222 C 74.072 185.025,74.028 185.762,74.126 185.860 C 74.224 185.957,74.427 185.381,74.578 184.578 C 74.728 183.775,74.772 183.038,74.674 182.940 C 74.576 182.843,74.373 183.419,74.222 184.222 M223.456 184.484 C 223.321 184.988,223.227 185.760,223.246 186.200 C 223.265 186.640,223.445 186.298,223.646 185.440 C 224.036 183.778,223.870 182.940,223.456 184.484 M167.422 185.822 C 167.272 186.625,167.228 187.362,167.326 187.460 C 167.424 187.557,167.627 186.981,167.778 186.178 C 167.928 185.375,167.972 184.638,167.874 184.540 C 167.776 184.443,167.573 185.019,167.422 185.822 M196.222 187.822 C 196.072 188.625,196.028 189.362,196.126 189.460 C 196.224 189.557,196.427 188.981,196.578 188.178 C 196.728 187.375,196.772 186.638,196.674 186.540 C 196.576 186.443,196.373 187.019,196.222 187.822 M140.222 188.222 C 140.072 189.025,140.028 189.762,140.126 189.860 C 140.224 189.957,140.427 189.381,140.578 188.578 C 140.728 187.775,140.772 187.038,140.674 186.940 C 140.576 186.843,140.373 187.419,140.222 188.222 M222.656 188.484 C 222.521 188.988,222.427 189.760,222.446 190.200 C 222.465 190.640,222.645 190.298,222.846 189.440 C 223.236 187.778,223.070 186.940,222.656 188.484 M99.422 191.822 C 99.272 192.625,99.228 193.362,99.326 193.460 C 99.424 193.557,99.627 192.981,99.778 192.178 C 99.928 191.375,99.972 190.638,99.874 190.540 C 99.776 190.443,99.573 191.019,99.422 191.822 M139.453 192.036 C 139.314 192.731,139.221 193.773,139.247 194.350 C 139.272 194.928,139.455 194.427,139.652 193.239 C 140.037 190.921,139.873 189.934,139.453 192.036 M72.222 193.822 C 72.072 194.625,72.028 195.362,72.126 195.460 C 72.224 195.557,72.427 194.981,72.578 194.178 C 72.728 193.375,72.772 192.638,72.674 192.540 C 72.576 192.443,72.373 193.019,72.222 193.822 M221.422 194.622 C 221.272 195.425,221.228 196.162,221.326 196.260 C 221.424 196.357,221.627 195.781,221.778 194.978 C 221.928 194.175,221.972 193.438,221.874 193.340 C 221.776 193.243,221.573 193.819,221.422 194.622 M165.422 195.422 C 165.272 196.225,165.228 196.962,165.326 197.060 C 165.424 197.157,165.627 196.581,165.778 195.778 C 165.928 194.975,165.972 194.238,165.874 194.140 C 165.776 194.043,165.573 194.619,165.422 195.422 M194.250 197.250 C 193.917 198.917,194.240 199.240,194.600 197.600 C 194.752 196.909,194.793 196.259,194.691 196.158 C 194.589 196.056,194.391 196.547,194.250 197.250 M220.656 198.084 C 220.521 198.588,220.427 199.360,220.446 199.800 C 220.465 200.240,220.645 199.898,220.846 199.040 C 221.236 197.378,221.070 196.540,220.656 198.084 M71.249 198.600 C 71.216 199.040,71.096 199.850,70.983 200.400 L 70.777 201.400 71.206 200.419 C 71.442 199.879,71.561 199.069,71.472 198.619 C 71.313 197.821,71.307 197.821,71.249 198.600 M97.422 201.422 C 97.272 202.225,97.228 202.962,97.326 203.060 C 97.424 203.157,97.627 202.581,97.778 201.778 C 97.928 200.975,97.972 200.238,97.874 200.140 C 97.776 200.043,97.573 200.619,97.422 201.422 M138.554 204.800 C 138.554 207.550,138.618 208.675,138.696 207.300 C 138.774 205.925,138.774 203.675,138.696 202.300 C 138.618 200.925,138.554 202.050,138.554 204.800 M164.531 203.800 C 164.533 205.340,164.605 205.921,164.692 205.091 C 164.779 204.261,164.777 203.001,164.689 202.291 C 164.600 201.581,164.529 202.260,164.531 203.800 M70.222 203.422 C 70.072 204.225,70.028 204.962,70.126 205.060 C 70.224 205.157,70.427 204.581,70.578 203.778 C 70.728 202.975,70.772 202.238,70.674 202.140 C 70.576 202.043,70.373 202.619,70.222 203.422 M219.429 203.829 C 219.281 204.415,219.238 204.972,219.332 205.066 C 219.427 205.160,219.624 204.758,219.771 204.171 C 219.919 203.585,219.962 203.028,219.868 202.934 C 219.773 202.840,219.576 203.242,219.429 203.829 M69.249 208.200 C 69.216 208.640,69.096 209.450,68.983 210.000 L 68.777 211.000 69.206 210.019 C 69.442 209.479,69.561 208.669,69.472 208.219 C 69.313 207.421,69.307 207.421,69.249 208.200 M187.600 210.882 C 186.390 212.011,185.760 212.727,186.200 212.474 C 187.153 211.926,188.316 210.900,189.362 209.685 C 190.597 208.250,189.951 208.689,187.600 210.882 M95.422 211.022 C 95.272 211.825,95.228 212.562,95.326 212.660 C 95.424 212.757,95.627 212.181,95.778 211.378 C 95.928 210.575,95.972 209.838,95.874 209.740 C 95.776 209.643,95.573 210.219,95.422 211.022 M167.200 211.800 C 167.946 212.570,168.647 213.200,168.757 213.200 C 168.867 213.200,168.346 212.570,167.600 211.800 C 166.854 211.030,166.153 210.400,166.043 210.400 C 165.933 210.400,166.454 211.030,167.200 211.800 M68.222 213.022 C 68.072 213.825,68.028 214.562,68.126 214.660 C 68.224 214.757,68.427 214.181,68.578 213.378 C 68.728 212.575,68.772 211.838,68.674 211.740 C 68.576 211.643,68.373 212.219,68.222 213.022 M139.268 213.800 C 139.262 214.240,139.411 214.960,139.600 215.400 C 140.038 216.419,140.038 215.368,139.600 214.000 C 139.343 213.196,139.277 213.157,139.268 213.800 M171.400 214.400 C 171.840 214.589,172.560 214.738,173.000 214.732 C 173.643 214.723,173.604 214.657,172.800 214.400 C 171.432 213.962,170.381 213.962,171.400 214.400 M180.800 214.400 C 179.996 214.657,179.957 214.723,180.600 214.732 C 181.040 214.738,181.760 214.589,182.200 214.400 C 183.219 213.962,182.168 213.962,180.800 214.400 M175.700 215.087 C 176.305 215.178,177.295 215.178,177.900 215.087 C 178.505 214.995,178.010 214.920,176.800 214.920 C 175.590 214.920,175.095 214.995,175.700 215.087 M67.249 217.800 C 67.216 218.240,67.096 219.050,66.983 219.600 L 66.777 220.600 67.206 219.619 C 67.442 219.079,67.561 218.269,67.472 217.819 C 67.313 217.021,67.307 217.021,67.249 217.800 M140.828 219.000 C 140.828 219.220,141.086 219.850,141.400 220.400 C 141.714 220.950,141.972 221.220,141.972 221.000 C 141.972 220.780,141.714 220.150,141.400 219.600 C 141.086 219.050,140.828 218.780,140.828 219.000 M213.353 219.300 C 211.976 221.636,211.886 221.835,212.587 221.000 C 213.400 220.032,214.100 218.800,213.838 218.800 C 213.733 218.800,213.515 219.025,213.353 219.300 M93.422 220.622 C 93.272 221.425,93.228 222.162,93.326 222.260 C 93.424 222.357,93.627 221.781,93.778 220.978 C 93.928 220.175,93.972 219.438,93.874 219.340 C 93.776 219.243,93.573 219.819,93.422 220.622 M66.449 221.800 C 66.416 222.240,66.296 223.050,66.183 223.600 L 65.977 224.600 66.406 223.619 C 66.642 223.079,66.761 222.269,66.672 221.819 C 66.513 221.021,66.507 221.021,66.449 221.800 M142.349 222.200 C 142.565 222.640,143.034 223.360,143.393 223.800 L 144.044 224.600 143.651 223.800 C 143.435 223.360,142.966 222.640,142.607 222.200 L 141.956 221.400 142.349 222.200 M145.094 226.200 C 145.772 227.080,146.923 228.340,147.653 229.000 C 148.424 229.697,148.161 229.277,147.027 228.000 C 144.300 224.929,143.652 224.326,145.094 226.200 M65.257 227.457 C 65.006 228.709,64.874 229.808,64.965 229.898 C 65.056 229.989,65.342 229.045,65.600 227.800 C 65.858 226.555,65.990 225.457,65.892 225.359 C 65.794 225.261,65.509 226.205,65.257 227.457 M206.600 227.877 C 205.168 229.214,204.845 229.625,205.800 228.898 C 207.309 227.749,209.539 225.578,209.170 225.618 C 209.076 225.628,207.920 226.645,206.600 227.877 M91.422 230.222 C 91.272 231.025,91.228 231.762,91.326 231.860 C 91.424 231.957,91.627 231.381,91.778 230.578 C 91.928 229.775,91.972 229.038,91.874 228.940 C 91.776 228.843,91.573 229.419,91.422 230.222 M64.449 231.400 C 64.416 231.840,64.296 232.650,64.183 233.200 L 63.977 234.200 64.406 233.219 C 64.642 232.679,64.761 231.869,64.672 231.419 C 64.513 230.621,64.507 230.621,64.449 231.400 M200.700 232.027 C 199.875 232.463,199.200 232.908,199.200 233.018 C 199.200 233.127,199.920 232.849,200.800 232.400 C 201.680 231.951,202.400 231.497,202.400 231.392 C 202.400 231.130,202.397 231.131,200.700 232.027 M90.581 234.159 L 90.311 235.600 77.189 235.600 C 68.626 235.600,63.996 235.458,63.863 235.190 C 63.751 234.965,63.706 235.010,63.763 235.290 C 63.845 235.691,66.716 235.800,77.208 235.800 L 90.549 235.800 90.897 234.456 C 91.089 233.717,91.157 233.024,91.049 232.915 C 90.940 232.807,90.730 233.367,90.581 234.159 M156.000 234.333 C 156.330 234.536,157.050 234.824,157.600 234.971 C 158.295 235.157,158.417 235.125,158.000 234.867 C 157.670 234.664,156.950 234.376,156.400 234.229 C 155.705 234.043,155.583 234.075,156.000 234.333 M159.400 235.600 C 159.840 235.789,160.470 235.944,160.800 235.944 C 161.178 235.944,161.104 235.817,160.600 235.600 C 160.160 235.411,159.530 235.256,159.200 235.256 C 158.822 235.256,158.896 235.383,159.400 235.600 M191.400 235.600 C 190.896 235.817,190.822 235.944,191.200 235.944 C 191.530 235.944,192.160 235.789,192.600 235.600 C 193.104 235.383,193.178 235.256,192.800 235.256 C 192.470 235.256,191.840 235.411,191.400 235.600 M187.200 236.400 C 185.843 236.686,185.837 236.695,187.000 236.707 C 187.660 236.715,188.650 236.576,189.200 236.400 C 190.512 235.980,189.196 235.980,187.200 236.400 M164.100 236.676 C 164.485 236.776,165.115 236.776,165.500 236.676 C 165.885 236.575,165.570 236.493,164.800 236.493 C 164.030 236.493,163.715 236.575,164.100 236.676 M173.500 237.496 C 174.875 237.574,177.125 237.574,178.500 237.496 C 179.875 237.418,178.750 237.354,176.000 237.354 C 173.250 237.354,172.125 237.418,173.500 237.496 M154.711 255.493 C 155.651 255.578,157.091 255.577,157.911 255.491 C 158.730 255.405,157.960 255.336,156.200 255.337 C 154.440 255.339,153.770 255.409,154.711 255.493 M76.039 255.896 L 79.078 256.031 80.007 258.015 C 80.518 259.105,81.007 259.926,81.095 259.839 C 81.182 259.751,80.789 258.762,80.220 257.640 L 79.187 255.600 76.093 255.680 L 73.000 255.761 76.039 255.896 M104.500 255.865 C 103.951 256.086,103.828 269.203,104.339 273.000 C 104.488 274.100,104.607 270.770,104.604 265.600 L 104.600 256.200 107.400 255.971 L 110.200 255.741 107.600 255.702 C 106.170 255.681,104.775 255.754,104.500 255.865 M121.999 255.882 C 121.999 256.057,123.275 256.140,124.836 256.066 L 127.675 255.931 127.537 265.585 C 127.462 270.894,127.539 274.569,127.708 273.751 C 127.877 272.933,127.967 268.559,127.908 264.032 L 127.800 255.800 124.900 255.682 C 123.305 255.618,122.000 255.708,121.999 255.882 M182.800 255.894 C 182.800 256.062,188.020 256.150,194.400 256.088 L 206.000 255.976 206.000 257.774 L 206.000 259.572 201.999 259.708 L 197.998 259.844 202.099 259.822 L 206.200 259.800 206.200 257.800 L 206.200 255.800 194.500 255.694 C 188.065 255.636,182.800 255.726,182.800 255.894 M221.781 256.104 C 221.675 256.382,221.636 262.007,221.694 268.604 L 221.800 280.600 224.688 280.717 L 227.576 280.835 227.688 275.717 L 227.800 270.600 229.600 270.360 L 231.400 270.120 229.780 270.060 C 227.366 269.971,227.200 270.332,227.200 275.680 L 227.200 280.400 224.600 280.400 L 222.000 280.400 222.000 268.208 L 222.000 256.017 229.900 255.900 L 237.800 255.782 229.887 255.691 C 223.822 255.621,221.930 255.718,221.781 256.104 M262.981 256.104 C 262.875 256.382,262.836 262.007,262.894 268.604 L 263.000 280.600 265.900 280.718 C 267.495 280.782,268.800 280.692,268.801 280.518 C 268.801 280.343,267.539 280.260,265.995 280.333 L 263.188 280.466 263.294 268.333 L 263.400 256.200 266.063 256.200 C 267.527 256.200,268.642 256.065,268.539 255.900 C 268.208 255.368,263.193 255.552,262.981 256.104 M296.183 255.899 C 297.714 255.977,299.244 256.256,299.583 256.520 C 300.124 256.941,300.133 256.914,299.651 256.300 C 299.208 255.735,298.553 255.615,296.251 255.678 L 293.400 255.757 296.183 255.899 M240.000 256.400 C 241.368 256.838,242.419 256.838,241.400 256.400 C 240.960 256.211,240.240 256.062,239.800 256.068 C 239.157 256.077,239.196 256.143,240.000 256.400 M110.171 265.290 L 110.200 274.379 111.185 275.290 L 112.170 276.200 111.385 275.259 C 110.673 274.405,110.579 273.480,110.371 265.259 L 110.142 256.200 110.171 265.290 M147.692 257.421 C 147.205 257.762,146.613 258.437,146.376 258.921 L 145.946 259.800 146.673 258.912 C 147.073 258.423,147.760 257.754,148.200 257.425 C 149.261 256.630,148.825 256.627,147.692 257.421 M163.600 256.911 C 163.600 256.987,164.185 257.478,164.900 258.001 C 165.704 258.590,165.984 258.687,165.633 258.255 C 165.100 257.599,163.600 256.607,163.600 256.911 M243.600 258.123 C 244.370 258.931,245.055 259.593,245.123 259.596 C 245.469 259.608,243.947 257.841,243.137 257.291 C 242.555 256.896,242.731 257.211,243.600 258.123 M71.265 259.017 C 70.595 260.488,70.723 260.802,71.447 259.465 C 71.786 258.840,71.988 258.254,71.896 258.163 C 71.805 258.071,71.521 258.456,71.265 259.017 M153.338 259.506 C 153.084 259.668,154.282 259.800,156.000 259.800 C 157.718 259.800,158.916 259.668,158.662 259.506 C 158.062 259.125,153.938 259.125,153.338 259.506 M182.799 259.675 C 182.800 259.826,184.772 260.006,187.182 260.075 C 189.592 260.144,191.437 260.077,191.282 259.926 C 190.907 259.562,182.798 259.322,182.799 259.675 M227.614 260.374 C 227.386 260.799,227.200 262.071,227.200 263.200 C 227.200 266.836,229.696 267.733,236.200 266.434 C 237.179 266.239,236.058 266.193,233.312 266.317 C 227.859 266.562,227.597 266.421,227.606 263.251 C 227.615 260.062,227.634 260.048,232.414 259.899 L 236.600 259.769 232.314 259.684 C 228.438 259.608,227.989 259.674,227.614 260.374 M145.443 260.633 C 145.110 261.501,145.148 263.699,145.506 264.262 C 145.668 264.516,145.800 263.661,145.800 262.362 C 145.800 259.761,145.792 259.723,145.443 260.633 M160.629 261.500 C 161.688 263.117,161.831 263.196,163.571 263.128 L 165.400 263.056 163.520 262.907 C 162.139 262.797,161.579 262.565,161.410 262.032 C 161.283 261.632,160.805 260.967,160.348 260.553 C 159.712 259.977,159.778 260.200,160.629 261.500 M197.293 270.133 L 197.200 280.466 194.399 280.333 C 192.859 280.260,191.599 280.335,191.599 280.500 C 191.601 281.045,197.208 280.845,197.420 280.293 C 197.527 280.014,197.563 275.289,197.500 269.793 L 197.385 259.800 197.293 270.133 M245.398 262.830 C 245.397 264.343,245.519 265.270,245.670 264.890 C 246.041 263.954,246.057 261.108,245.694 260.540 C 245.532 260.287,245.399 261.318,245.398 262.830 M150.846 261.838 C 150.821 262.299,151.205 263.019,151.700 263.438 C 152.593 264.194,152.595 264.193,151.941 263.400 C 151.579 262.960,151.195 262.240,151.088 261.800 C 150.900 261.031,150.891 261.032,150.846 261.838 M289.872 262.619 C 288.932 264.589,289.064 264.924,290.047 263.062 C 290.493 262.216,290.787 261.454,290.701 261.367 C 290.614 261.281,290.241 261.844,289.872 262.619 M75.403 262.395 C 75.268 262.614,75.411 262.694,75.722 262.575 C 76.083 262.436,76.469 262.801,76.797 263.592 C 77.078 264.270,77.387 264.747,77.483 264.650 C 77.752 264.382,76.430 262.000,76.013 262.000 C 75.812 262.000,75.537 262.178,75.403 262.395 M239.646 263.084 C 239.619 263.847,239.234 264.720,238.700 265.234 L 237.800 266.099 238.695 265.638 C 239.651 265.146,240.192 263.731,239.882 262.532 C 239.773 262.112,239.673 262.347,239.646 263.084 M68.672 264.619 C 67.732 266.589,67.864 266.924,68.847 265.062 C 69.293 264.216,69.587 263.454,69.501 263.367 C 69.414 263.281,69.041 263.844,68.672 264.619 M153.200 264.382 C 153.530 264.605,154.145 264.791,154.567 264.794 C 155.590 264.802,155.271 264.573,153.800 264.244 C 152.924 264.048,152.762 264.085,153.200 264.382 M83.234 264.600 C 83.234 264.820,83.578 265.630,84.000 266.400 C 84.422 267.170,84.766 267.620,84.766 267.400 C 84.766 267.180,84.422 266.370,84.000 265.600 C 83.578 264.830,83.234 264.380,83.234 264.600 M147.287 266.605 C 148.104 267.460,148.838 268.079,148.917 267.980 C 148.997 267.881,148.328 267.181,147.431 266.425 L 145.800 265.050 147.287 266.605 M298.607 267.079 C 299.207 268.514,299.600 269.162,299.600 268.716 C 299.600 268.284,298.385 265.600,298.189 265.600 C 298.079 265.600,298.267 266.266,298.607 267.079 M304.036 265.800 C 304.036 266.020,304.470 267.010,305.000 268.000 C 305.530 268.990,305.964 269.620,305.964 269.400 C 305.964 269.180,305.530 268.190,305.000 267.200 C 304.470 266.210,304.036 265.580,304.036 265.800 M161.400 266.400 C 161.840 266.589,162.470 266.744,162.800 266.744 C 163.178 266.744,163.104 266.617,162.600 266.400 C 162.160 266.211,161.530 266.056,161.200 266.056 C 160.822 266.056,160.896 266.183,161.400 266.400 M244.030 266.968 C 243.530 267.500,242.593 268.154,241.948 268.422 C 241.302 268.689,240.853 268.987,240.950 269.083 C 241.251 269.384,243.353 268.127,244.370 267.038 C 244.903 266.467,245.249 266.000,245.139 266.000 C 245.029 266.000,244.530 266.436,244.030 266.968 M287.265 268.217 C 286.595 269.688,286.723 270.002,287.447 268.665 C 287.786 268.040,287.988 267.454,287.896 267.363 C 287.805 267.271,287.521 267.656,287.265 268.217 M72.415 269.163 C 71.669 270.964,72.088 271.200,76.036 271.200 C 79.848 271.200,80.544 270.836,79.628 269.324 C 79.262 268.720,79.230 268.782,79.438 269.700 L 79.687 270.800 76.043 270.800 C 72.277 270.800,72.016 270.665,72.832 269.139 C 73.070 268.695,73.184 268.251,73.086 268.153 C 72.988 268.055,72.686 268.509,72.415 269.163 M149.600 268.231 C 149.600 268.501,151.678 269.256,151.876 269.057 C 151.967 268.967,151.492 268.701,150.820 268.467 C 150.149 268.233,149.600 268.127,149.600 268.231 M292.545 269.400 C 291.954 270.938,292.632 271.235,296.461 271.115 C 299.044 271.034,300.166 270.849,300.238 270.490 C 300.294 270.210,300.249 270.165,300.137 270.390 C 300.020 270.625,298.389 270.800,296.320 270.800 L 292.707 270.800 292.898 269.800 C 293.109 268.695,292.904 268.463,292.545 269.400 M153.600 269.600 C 154.968 270.038,156.019 270.038,155.000 269.600 C 154.560 269.411,153.840 269.262,153.400 269.268 C 152.757 269.277,152.796 269.343,153.600 269.600 M238.628 269.555 C 238.507 269.750,238.711 270.155,239.081 270.455 C 239.648 270.914,239.702 270.914,239.426 270.455 C 239.224 270.120,239.310 269.776,239.649 269.561 C 240.089 269.283,240.064 269.211,239.524 269.206 C 239.152 269.203,238.749 269.360,238.628 269.555 M86.036 270.600 C 86.036 270.820,86.470 271.810,87.000 272.800 C 87.530 273.790,87.964 274.420,87.964 274.200 C 87.964 273.980,87.530 272.990,87.000 272.000 C 86.470 271.010,86.036 270.380,86.036 270.600 M158.033 270.544 C 158.125 270.623,158.740 270.808,159.400 270.956 C 160.276 271.152,160.438 271.115,160.000 270.818 C 159.460 270.453,157.632 270.198,158.033 270.544 M232.231 270.787 C 232.688 270.972,234.195 272.355,235.580 273.861 C 236.965 275.368,237.532 275.849,236.840 274.931 C 234.947 272.419,232.801 270.397,232.060 270.425 C 231.566 270.444,231.608 270.535,232.231 270.787 M241.600 272.685 C 242.590 273.804,243.553 274.737,243.739 274.759 C 244.210 274.816,242.020 272.314,240.800 271.401 C 240.250 270.989,240.610 271.567,241.600 272.685 M285.265 272.617 C 284.595 274.088,284.723 274.402,285.447 273.065 C 285.786 272.440,285.988 271.854,285.896 271.763 C 285.805 271.671,285.521 272.056,285.265 272.617 M149.450 272.685 C 149.863 273.117,150.434 273.814,150.721 274.235 C 151.008 274.656,150.916 274.384,150.517 273.632 C 150.119 272.880,149.547 272.182,149.246 272.082 C 148.920 271.973,149.002 272.216,149.450 272.685 M144.554 272.977 C 144.432 273.294,144.417 273.879,144.520 274.277 C 144.645 274.759,144.723 274.641,144.754 273.922 C 144.796 272.932,144.955 272.832,146.700 272.694 L 148.600 272.544 146.687 272.472 C 145.340 272.421,144.710 272.570,144.554 272.977 M162.000 273.530 C 162.000 274.636,160.858 276.058,159.600 276.518 C 159.093 276.703,159.100 276.742,159.642 276.768 C 160.761 276.824,162.400 274.952,162.400 273.619 C 162.400 272.949,162.310 272.400,162.200 272.400 C 162.090 272.400,162.000 272.909,162.000 273.530 M168.093 273.600 C 168.093 274.370,168.175 274.685,168.276 274.300 C 168.376 273.915,168.376 273.285,168.276 272.900 C 168.175 272.515,168.093 272.830,168.093 273.600 M307.239 272.600 C 307.239 272.820,307.851 274.170,308.600 275.600 C 309.349 277.030,309.961 278.020,309.961 277.800 C 309.961 277.580,309.349 276.230,308.600 274.800 C 307.851 273.370,307.239 272.380,307.239 272.600 M76.000 275.095 C 80.867 275.194,81.880 275.321,82.300 275.883 C 82.575 276.252,82.800 276.375,82.800 276.156 C 82.800 275.002,81.730 274.802,76.020 274.888 L 70.200 274.976 76.000 275.095 M296.173 275.100 C 299.429 275.172,301.965 275.405,302.273 275.661 C 302.609 275.940,302.800 275.951,302.800 275.692 C 302.800 274.946,301.573 274.799,296.067 274.888 L 290.600 274.975 296.173 275.100 M244.800 276.400 C 245.270 277.060,245.744 277.600,245.854 277.600 C 245.964 277.600,245.670 277.060,245.200 276.400 C 244.730 275.740,244.256 275.200,244.146 275.200 C 244.036 275.200,244.330 275.740,244.800 276.400 M145.514 276.600 C 145.741 277.040,146.438 277.849,147.063 278.399 L 148.200 279.397 147.003 277.999 C 145.107 275.782,145.080 275.758,145.514 276.600 M282.875 277.819 C 281.670 280.300,281.805 280.647,283.046 278.261 C 283.601 277.194,283.987 276.253,283.903 276.170 C 283.819 276.086,283.357 276.828,282.875 277.819 M82.828 277.000 C 82.828 277.220,83.086 277.850,83.400 278.400 C 83.714 278.950,83.972 279.220,83.972 279.000 C 83.972 278.780,83.714 278.150,83.400 277.600 C 83.086 277.050,82.828 276.780,82.828 277.000 M115.505 277.083 C 116.002 277.179,116.722 277.175,117.105 277.075 C 117.487 276.975,117.080 276.896,116.200 276.901 C 115.320 276.905,115.007 276.987,115.505 277.083 M155.705 277.087 C 156.314 277.179,157.214 277.177,157.705 277.082 C 158.197 276.987,157.700 276.911,156.600 276.914 C 155.500 276.917,155.097 276.995,155.705 277.087 M239.200 278.400 C 239.897 279.280,240.557 280.000,240.667 280.000 C 240.777 280.000,240.297 279.280,239.600 278.400 C 238.903 277.520,238.243 276.800,238.133 276.800 C 238.023 276.800,238.503 277.520,239.200 278.400 M89.231 277.400 C 89.230 277.620,89.486 278.250,89.800 278.800 C 90.114 279.350,90.378 279.935,90.386 280.100 C 90.410 280.618,85.002 280.437,84.399 279.900 C 83.922 279.475,83.918 279.504,84.368 280.100 C 85.030 280.974,90.812 281.154,90.783 280.300 C 90.763 279.691,89.235 276.836,89.231 277.400 M62.065 279.017 C 61.809 279.578,61.600 280.209,61.600 280.419 C 61.600 280.865,67.464 280.943,67.740 280.500 C 67.842 280.335,66.593 280.259,64.963 280.332 C 61.842 280.470,61.745 280.424,62.432 279.139 C 62.670 278.695,62.789 278.256,62.697 278.164 C 62.605 278.072,62.321 278.456,62.065 279.017 M124.411 279.020 C 123.647 279.559,123.197 279.999,123.411 279.998 C 123.625 279.997,124.340 279.553,125.000 279.012 C 126.541 277.749,126.205 277.753,124.411 279.020 M288.346 279.184 C 287.945 280.332,287.844 280.372,284.965 280.511 L 281.997 280.654 285.071 280.627 L 288.144 280.600 288.673 279.300 C 288.964 278.585,289.102 278.000,288.980 278.000 C 288.858 278.000,288.573 278.533,288.346 279.184 M304.027 278.926 C 303.909 280.354,304.857 280.800,308.014 280.800 C 311.243 280.800,311.529 280.675,310.756 279.600 C 310.392 279.094,310.360 279.109,310.550 279.700 C 310.941 280.918,305.079 280.724,304.488 279.500 C 304.249 279.005,304.042 278.747,304.027 278.926 M247.352 279.922 C 247.543 280.232,246.618 280.408,244.313 280.502 L 241.000 280.637 244.500 280.719 C 247.744 280.794,248.714 280.488,247.538 279.762 C 247.258 279.589,247.185 279.652,247.352 279.922 M121.200 280.400 C 120.376 280.664,120.341 280.726,121.000 280.754 C 121.440 280.773,122.070 280.613,122.400 280.400 C 123.101 279.947,122.614 279.947,121.200 280.400 M150.400 280.382 C 150.730 280.605,151.345 280.791,151.767 280.794 C 152.790 280.802,152.471 280.573,151.000 280.244 C 150.124 280.048,149.962 280.085,150.400 280.382 M161.600 280.400 C 160.776 280.664,160.741 280.726,161.400 280.754 C 161.840 280.773,162.470 280.613,162.800 280.400 C 163.501 279.947,163.014 279.947,161.600 280.400 M112.500 281.076 C 112.885 281.176,113.515 281.176,113.900 281.076 C 114.285 280.975,113.970 280.893,113.200 280.893 C 112.430 280.893,112.115 280.975,112.500 281.076 " stroke="none" fill="#747474" fill-rule="evenodd"></path></g></svg>